<?xml version="1.0" encoding="utf-8"?>
<!-- Generator: Adobe Illustrator 27.5.0, SVG Export Plug-In . SVG Version: 6.00 Build 0)  -->
<svg version="1.1" xmlns="http://www.w3.org/2000/svg" xmlns:xlink="http://www.w3.org/1999/xlink" x="0px" y="0px"
	 viewBox="0 0 3710 3710" style="enable-background:new 0 0 3710 3710;" xml:space="preserve">
<g id="Background">
	<g>
		<g>
			<rect style="fill:#FFFFFF;" width="3710" height="3710"/>
		</g>
	</g>
</g>
<g id="Illustration">
	<g>
		<linearGradient id="SVGID_1_" gradientUnits="userSpaceOnUse" x1="3573.2493" y1="4016.9392" x2="1135.6963" y2="989.6514">
			<stop  offset="0" style="stop-color:#DAE3FE"/>
			<stop  offset="1" style="stop-color:#E9EFFD"/>
		</linearGradient>
		<path style="fill:url(#SVGID_1_);" d="M2918.238,2812.232c-56.843,58.351-110.628,95.98-153.122,125.711
			c-499.51,349.472-1090.564,247.603-1216.18,222.725c-185.495-36.736-544.052-107.746-803.283-404.998
			c-392.194-449.718-331.124-1158.235-26.911-1625.938c55.645-85.551,349.579-560.377,946.999-636.524
			c361.552-46.083,783.005,46.861,1088.21,296.19C3394.604,1312.761,3348.996,2370.046,2918.238,2812.232z"/>
		<g>
			<path style="fill:#BDD0FB;" d="M972.923,472.585C883.47,718.61,411.06,2160.427,1457.971,2580.552
				c0,0,514.459-917.218-452.716-2120.565C996.794,449.46,978.767,456.512,972.923,472.585z"/>
			
				<linearGradient id="SVGID_00000057129146153821615060000008029559897863637136_" gradientUnits="userSpaceOnUse" x1="1016.8258" y1="1599.5331" x2="1399.6805" y2="1599.5331">
				<stop  offset="0" style="stop-color:#DAE3FE"/>
				<stop  offset="1" style="stop-color:#E9EFFD"/>
			</linearGradient>
			<path style="fill:url(#SVGID_00000057129146153821615060000008029559897863637136_);" d="M1028.144,695.823
				c0,0-1.737,29.186-3.109,80.388c-1.365,51.194-2.408,124.38-0.978,212.177c1.365,87.791,5.257,190.196,13.296,299.642
				c8.17,109.421,20.43,225.909,38.553,341.506c9.014,57.799,19.4,115.377,31.201,171.718
				c11.859,56.326,25.169,111.402,39.781,164.207c14.606,52.805,30.539,103.331,47.456,150.578
				c16.904,47.252,34.802,91.211,52.97,131.01c18.191,39.787,36.48,75.497,54.091,106.328c4.334,7.747,8.864,15.049,13.052,22.204
				c2.115,3.564,4.194,7.064,6.231,10.499c2.141,3.37,4.243,6.676,6.299,9.916c4.123,6.476,8.076,12.688,11.853,18.625
				c3.963,5.81,7.74,11.35,11.328,16.609c7.046,10.61,13.876,19.69,19.729,27.656c2.933,3.978,5.645,7.658,8.131,11.031
				c2.601,3.282,4.963,6.263,7.078,8.933c8.46,10.68,12.974,16.376,12.974,16.376l0.156,0.197c2.288,2.889,1.802,7.086-1.089,9.375
				c-2.887,2.289-7.085,1.802-9.373-1.087l-0.02-0.021c0,0-4.556-5.8-13.101-16.676c-2.138-2.719-4.523-5.755-7.147-9.098
				c-2.506-3.43-5.244-7.173-8.199-11.219c-5.902-8.101-12.791-17.34-19.883-28.113c-3.611-5.341-7.414-10.969-11.406-16.871
				c-3.797-6.024-7.773-12.327-11.918-18.898c-2.066-3.287-4.178-6.641-6.329-10.061c-2.05-3.481-4.135-7.029-6.264-10.642
				c-4.204-7.251-8.754-14.657-13.101-22.502c-17.67-31.232-35.982-67.353-54.156-107.541
				c-18.152-40.199-35.995-84.545-52.804-132.154c-16.826-47.604-32.631-98.461-47.088-151.565
				c-14.46-53.104-27.593-108.448-39.26-165.014c-11.608-56.58-21.786-114.369-30.588-172.354
				c-17.689-115.971-29.496-232.734-37.23-342.37c-7.603-109.66-11.077-212.218-12.081-300.127c-2.109-175.86,5.296-293,5.296-293
				c0.094-1.559,1.437-2.745,2.995-2.65C1027.052,692.929,1028.238,694.265,1028.144,695.823z"/>
		</g>
		<g>
			<path style="fill:#91B3FA;" d="M1201.96,2079.882c0,0-841.274-296.386-710.643-1359.975
				c2.179-17.733,30.164-27.536,46.161-16.185C686.388,809.383,1196.268,1232.784,1201.96,2079.882z"/>
			
				<linearGradient id="SVGID_00000042696623772478955400000009017417985756983992_" gradientUnits="userSpaceOnUse" x1="633.441" y1="1444.8341" x2="1095.6259" y2="1444.8341">
				<stop  offset="0" style="stop-color:#DAE3FE"/>
				<stop  offset="1" style="stop-color:#E9EFFD"/>
			</linearGradient>
			<path style="fill:url(#SVGID_00000042696623772478955400000009017417985756983992_);" d="M638.506,933.587
				c0,0,30.22,63.027,75.555,157.567c22.607,47.298,48.802,102.567,76.646,161.889c13.74,29.745,27.939,60.482,42.366,91.715
				c7.163,15.64,14.381,31.404,21.633,47.229c7.134,15.877,14.3,31.817,21.463,47.756c14.264,31.908,28.528,63.816,42.571,95.226
				c13.919,31.467,27.613,62.434,40.87,92.402c12.964,30.096,25.501,59.19,37.386,86.778c11.882,27.589,22.803,53.814,33.049,77.945
				c5.152,12.053,9.94,23.67,14.421,34.749c4.517,11.064,8.799,21.558,12.827,31.421c4.021,9.863,7.786,19.093,11.269,27.628
				c3.396,8.571,6.515,16.444,9.333,23.555c11.175,28.479,17.559,44.753,17.559,44.753c0.502,1.278-0.127,2.721-1.408,3.222
				c-1.251,0.492-2.662-0.104-3.191-1.332l-0.016-0.033c0,0-6.873-16.056-18.908-44.154c-2.985-7.033-6.286-14.82-9.884-23.297
				c-3.682-8.443-7.665-17.574-11.918-27.33c-8.535-19.5-18.165-41.499-28.672-65.499c-10.595-23.962-21.89-49.997-34.17-77.392
				c-12.286-27.393-25.24-56.28-38.641-86.163c-13.401-29.884-27.244-60.765-41.316-92.143
				c-14.196-31.324-28.616-63.145-43.037-94.966c-28.874-63.629-57.751-127.259-84.819-186.911
				c-26.889-59.743-51.983-115.503-73.492-163.297c-21.636-47.739-39.667-87.521-52.289-115.369
				c-6.342-13.909-11.325-24.839-14.72-32.29c-3.445-7.429-5.283-11.391-5.283-11.391c-0.619-1.334-0.039-2.916,1.294-3.535
				C636.306,931.706,637.877,932.277,638.506,933.587z"/>
		</g>
		<g>
			
				<linearGradient id="SVGID_00000056427184332966433590000012049375314022521478_" gradientUnits="userSpaceOnUse" x1="2906.8254" y1="1326.4933" x2="782.6626" y2="2943.8459">
				<stop  offset="0" style="stop-color:#09005D"/>
				<stop  offset="1" style="stop-color:#1A0F91"/>
			</linearGradient>
			<path style="fill:url(#SVGID_00000056427184332966433590000012049375314022521478_);" d="M618.92,1323.833l2400.956-40.573
				c96.664-1.633,174.25,81.274,168.505,180.061l-82.642,1421.197c-4.523,77.781-67.084,138.71-143.2,139.462L654.64,3046.804
				c-57.005,0.564-104.103-45.399-106.274-103.712l-55.218-1483.285C490.416,1386.403,547.169,1325.046,618.92,1323.833z"/>
			<path style="fill:#7D97F4;" d="M655.724,1360.039l2338.292-38.602c94.141-1.555,169.702,77.324,164.107,171.311l-80.486,1352.131
				c-4.405,74.001-65.333,131.969-139.462,132.686l-2247.664,21.714c-55.518,0.537-101.386-43.193-103.501-98.673l-53.776-1411.202
				C530.573,1419.568,585.846,1361.192,655.724,1360.039z"/>
			<path style="fill:#91B3FA;" d="M702.764,1432.617l2233.51-36.172c89.922-1.457,162.097,72.457,156.754,160.527l-76.879,1267.019
				c-4.208,69.343-62.406,123.662-133.213,124.333l-2146.943,20.348c-53.03,0.502-96.843-40.474-98.862-92.462l-51.367-1322.37
				C583.221,1488.399,636.017,1433.698,702.764,1432.617z"/>
			<g>
				<path style="opacity:0.53;fill:#FFFFFF;" d="M1361.986,1615.704l-654.784,1.724c-1.365,0.004-2.474-1.1-2.478-2.465
					l-0.14-53.232c-0.004-1.365,1.1-2.474,2.465-2.478l654.784-1.724c1.365-0.004,2.474,1.1,2.478,2.465l0.14,53.232
					C1364.454,1614.591,1363.351,1615.7,1361.986,1615.704z"/>
				<path style="opacity:0.53;fill:#FFFFFF;" d="M1775.054,1615.881l-226.745,0.597c-1.31,0.004-2.374-1.055-2.377-2.365
					l-0.141-53.432c-0.003-1.309,1.055-2.374,2.365-2.377l226.745-0.597c1.309-0.003,2.374,1.055,2.377,2.365l0.141,53.431
					C1777.422,1614.813,1776.363,1615.877,1775.054,1615.881z"/>
				<path style="opacity:0.53;fill:#FFFFFF;" d="M2278.539,1614.555l-449.641,1.184c-2.082,0.005-3.774-1.678-3.779-3.759
					l-0.133-50.635c-0.005-2.082,1.678-3.774,3.759-3.779l449.641-1.184c2.082-0.005,3.774,1.678,3.779,3.759l0.134,50.635
					C2282.304,1612.858,2280.621,1614.55,2278.539,1614.555z"/>
				<path style="opacity:0.53;fill:#FFFFFF;" d="M877.09,1719.219l-169.315,0.446c-2.082,0.005-3.774-1.678-3.779-3.759
					l-0.133-50.635c-0.005-2.082,1.678-3.774,3.759-3.779l169.315-0.446c2.082-0.005,3.774,1.678,3.779,3.759l0.133,50.635
					C880.854,1717.522,879.171,1719.214,877.09,1719.219z"/>
				<path style="opacity:0.53;fill:#FFFFFF;" d="M1363.561,1718.043l-474.845,1.25c-1.365,0.004-2.474-1.1-2.478-2.465l-0.14-53.232
					c-0.004-1.365,1.1-2.474,2.465-2.478l474.845-1.25c1.365-0.004,2.474,1.1,2.478,2.465l0.14,53.232
					C1366.029,1716.93,1364.926,1718.039,1363.561,1718.043z"/>
				<path style="opacity:0.53;fill:#FFFFFF;" d="M1777.183,1718.218l-226.745,0.597c-1.31,0.004-2.374-1.055-2.377-2.365
					l-0.141-53.431c-0.003-1.31,1.055-2.374,2.365-2.377l226.745-0.597c1.31-0.003,2.374,1.055,2.377,2.365l0.141,53.431
					C1779.552,1717.15,1778.493,1718.214,1777.183,1718.218z"/>
				<path style="opacity:0.53;fill:#FFFFFF;" d="M2653.104,1715.912l-662.203,1.744c-2.082,0.005-3.774-1.678-3.779-3.759
					l-0.133-50.635c-0.005-2.082,1.678-3.774,3.759-3.779l662.203-1.743c2.082-0.006,3.774,1.677,3.779,3.759l0.133,50.635
					C2656.869,1714.214,2655.186,1715.906,2653.104,1715.912z"/>
				<path style="opacity:0.53;fill:#FFFFFF;" d="M877.229,1821.413l-169.315,0.446c-2.082,0.005-3.774-1.678-3.779-3.759
					l-0.133-50.635c-0.005-2.082,1.678-3.774,3.759-3.779l169.315-0.446c2.082-0.005,3.774,1.678,3.779,3.759l0.133,50.635
					C880.994,1819.715,879.311,1821.407,877.229,1821.413z"/>
				<path style="opacity:0.53;fill:#FFFFFF;" d="M1363.601,1820.237l-474.845,1.25c-1.365,0.004-2.474-1.1-2.478-2.465l-0.14-53.232
					c-0.004-1.365,1.1-2.474,2.465-2.478l474.845-1.25c1.365-0.004,2.474,1.1,2.478,2.465l0.14,53.232
					C1366.069,1819.124,1364.965,1820.233,1363.601,1820.237z"/>
				<path style="opacity:0.53;fill:#FFFFFF;" d="M1777.283,1820.411l-226.745,0.597c-1.31,0.004-2.374-1.055-2.377-2.365
					l-0.141-53.431c-0.003-1.31,1.055-2.374,2.365-2.377l226.745-0.597c1.309-0.003,2.374,1.055,2.377,2.365l0.141,53.432
					C1779.651,1819.344,1778.593,1820.408,1777.283,1820.411z"/>
				<path style="opacity:0.53;fill:#FFFFFF;" d="M2938.307,1817.354l-865.179,2.278c-2.082,0.005-3.774-1.678-3.779-3.759
					l-0.133-50.635c-0.005-2.082,1.678-3.774,3.76-3.779l865.179-2.278c2.082-0.005,3.774,1.678,3.779,3.759l0.133,50.635
					C2942.072,1815.657,2940.389,1817.349,2938.307,1817.354z"/>
				<path style="opacity:0.53;fill:#FFFFFF;" d="M878.92,1923.751l-169.315,0.446c-2.082,0.005-3.774-1.678-3.779-3.759
					l-0.133-50.635c-0.005-2.082,1.678-3.774,3.759-3.779l169.315-0.446c2.082-0.005,3.774,1.678,3.779,3.759l0.133,50.635
					C882.685,1922.053,881.002,1923.745,878.92,1923.751z"/>
				<path style="opacity:0.53;fill:#FFFFFF;" d="M1366.392,1922.573l-474.845,1.25c-1.365,0.004-2.474-1.1-2.478-2.465l-0.14-53.232
					c-0.004-1.365,1.1-2.474,2.465-2.478l474.845-1.25c1.365-0.004,2.474,1.1,2.478,2.465l0.14,53.232
					C1368.86,1921.46,1367.757,1922.569,1366.392,1922.573z"/>
				<path style="opacity:0.53;fill:#FFFFFF;" d="M1779.413,1922.748l-226.745,0.597c-1.31,0.003-2.374-1.055-2.377-2.365
					l-0.141-53.432c-0.003-1.309,1.055-2.374,2.365-2.377l226.745-0.597c1.31-0.003,2.374,1.055,2.377,2.365l0.141,53.432
					C1781.781,1921.681,1780.722,1922.745,1779.413,1922.748z"/>
				<path style="opacity:0.53;fill:#FFFFFF;" d="M2943.164,1919.684l-865.179,2.278c-2.082,0.005-3.774-1.678-3.779-3.759
					l-0.134-50.635c-0.005-2.082,1.678-3.774,3.76-3.779l865.179-2.278c2.082-0.005,3.774,1.678,3.779,3.759l0.133,50.635
					C2946.929,1917.987,2945.246,1919.679,2943.164,1919.684z"/>
				<path style="opacity:0.53;fill:#FFFFFF;" d="M878.663,2029.946l-169.315,0.446c-2.082,0.005-3.774-1.678-3.779-3.759
					l-0.133-50.635c-0.005-2.082,1.678-3.774,3.759-3.779l169.315-0.446c2.082-0.005,3.774,1.678,3.779,3.759l0.133,50.635
					C882.428,2028.248,880.745,2029.94,878.663,2029.946z"/>
				<path style="opacity:0.53;fill:#FFFFFF;" d="M1365.72,2028.769l-474.845,1.25c-1.365,0.004-2.474-1.1-2.478-2.464l-0.14-53.232
					c-0.004-1.365,1.1-2.474,2.465-2.478l474.845-1.25c1.365-0.004,2.474,1.1,2.478,2.465l0.14,53.232
					C1368.188,2027.656,1367.085,2028.766,1365.72,2028.769z"/>
				<path style="opacity:0.53;fill:#FFFFFF;" d="M1778.99,2028.944l-226.745,0.597c-1.309,0.003-2.374-1.055-2.377-2.365
					l-0.141-53.431c-0.003-1.309,1.055-2.374,2.365-2.377l226.745-0.597c1.31-0.003,2.374,1.055,2.377,2.365l0.141,53.432
					C1781.359,2027.876,1780.3,2028.94,1778.99,2028.944z"/>
				<path style="opacity:0.53;fill:#FFFFFF;" d="M2941.712,2025.882l-865.179,2.278c-2.082,0.005-3.774-1.678-3.779-3.759
					l-0.134-50.635c-0.005-2.082,1.678-3.774,3.76-3.779l865.179-2.278c2.082-0.005,3.774,1.678,3.779,3.759l0.133,50.635
					C2945.477,2024.185,2943.794,2025.877,2941.712,2025.882z"/>
				<path style="opacity:0.53;fill:#FFFFFF;" d="M880.354,2132.284l-169.315,0.446c-2.082,0.005-3.774-1.678-3.779-3.76
					l-0.133-50.635c-0.005-2.082,1.678-3.774,3.759-3.779l169.315-0.446c2.082-0.005,3.774,1.678,3.779,3.759l0.133,50.635
					C884.119,2130.586,882.436,2132.278,880.354,2132.284z"/>
				<path style="opacity:0.53;fill:#FFFFFF;" d="M1368.511,2131.105l-474.845,1.25c-1.365,0.004-2.474-1.1-2.478-2.465l-0.14-53.231
					c-0.004-1.365,1.1-2.474,2.465-2.478l474.845-1.25c1.365-0.004,2.474,1.1,2.478,2.465l0.14,53.232
					C1370.98,2129.992,1369.876,2131.101,1368.511,2131.105z"/>
				<path style="opacity:0.53;fill:#FFFFFF;" d="M1781.12,2131.281l-226.745,0.597c-1.309,0.003-2.374-1.055-2.377-2.365
					l-0.141-53.431c-0.003-1.31,1.055-2.374,2.365-2.377l226.745-0.597c1.309-0.004,2.374,1.055,2.377,2.365l0.141,53.431
					C1783.488,2130.213,1782.43,2131.277,1781.12,2131.281z"/>
				<path style="opacity:0.53;fill:#FFFFFF;" d="M2357.405,2129.763l-527.15,1.388c-2.082,0.005-3.774-1.678-3.779-3.76
					l-0.133-50.635c-0.005-2.082,1.678-3.774,3.759-3.779l527.15-1.388c2.082-0.006,3.774,1.678,3.779,3.759l0.133,50.635
					C2361.169,2128.066,2359.486,2129.758,2357.405,2129.763z"/>
				<path style="opacity:0.53;fill:#FFFFFF;" d="M1368.904,2233.298l-658.378,1.733c-1.365,0.004-2.474-1.1-2.478-2.465
					l-0.14-53.232c-0.004-1.365,1.1-2.474,2.465-2.478l658.378-1.733c1.365-0.004,2.474,1.1,2.478,2.465l0.14,53.231
					C1371.373,2232.185,1370.269,2233.295,1368.904,2233.298z"/>
				<path style="opacity:0.53;fill:#FFFFFF;" d="M1781.22,2233.474l-226.745,0.597c-1.309,0.003-2.374-1.055-2.377-2.365
					l-0.141-53.431c-0.003-1.31,1.055-2.374,2.365-2.377l226.745-0.597c1.31-0.003,2.374,1.055,2.377,2.365l0.141,53.431
					C1783.588,2232.406,1782.529,2233.471,1781.22,2233.474z"/>
				<path style="opacity:0.53;fill:#FFFFFF;" d="M2610.1,2231.292l-659.072,1.735c-2.082,0.005-3.774-1.678-3.779-3.76
					l-0.133-50.635c-0.005-2.082,1.678-3.774,3.759-3.779l659.072-1.735c2.082-0.006,3.774,1.677,3.779,3.759l0.133,50.635
					C2613.864,2229.594,2612.181,2231.286,2610.1,2231.292z"/>
				<path style="opacity:0.53;fill:#FFFFFF;" d="M875.528,2336.833l-162.245,0.427c-2.082,0.006-3.774-1.677-3.779-3.759
					l-0.133-50.635c-0.005-2.082,1.678-3.774,3.759-3.779l162.245-0.427c2.082-0.005,3.774,1.678,3.779,3.759l0.133,50.635
					C879.292,2335.135,877.609,2336.827,875.528,2336.833z"/>
				<path style="opacity:0.53;fill:#FFFFFF;" d="M1371.342,2335.635l-474.845,1.25c-1.365,0.004-2.474-1.1-2.478-2.465l-0.14-53.232
					c-0.004-1.365,1.1-2.474,2.465-2.478l474.845-1.25c1.365-0.004,2.474,1.1,2.478,2.465l0.14,53.231
					C1373.811,2334.522,1372.707,2335.631,1371.342,2335.635z"/>
				<path style="opacity:0.53;fill:#FFFFFF;" d="M1783.35,2335.811l-226.745,0.597c-1.309,0.003-2.374-1.055-2.377-2.365
					l-0.141-53.431c-0.003-1.309,1.055-2.374,2.365-2.377l226.745-0.597c1.309-0.004,2.374,1.055,2.377,2.365l0.141,53.431
					C1785.718,2334.743,1784.659,2335.808,1783.35,2335.811z"/>
				<path style="opacity:0.53;fill:#FFFFFF;" d="M2948.275,2332.744l-894.822,2.356c-2.082,0.005-3.774-1.678-3.779-3.76
					l-0.134-50.635c-0.005-2.082,1.678-3.774,3.76-3.779l894.822-2.356c2.082-0.005,3.774,1.678,3.779,3.759l0.133,50.635
					C2952.04,2331.047,2950.357,2332.739,2948.275,2332.744z"/>
				<path style="opacity:0.53;fill:#FFFFFF;" d="M879.321,2642.231l-169.315,0.446c-2.082,0.006-3.774-1.677-3.779-3.759
					l-0.133-50.635c-0.005-2.082,1.678-3.774,3.759-3.779l169.315-0.446c2.082-0.005,3.774,1.678,3.779,3.76l0.133,50.635
					C883.086,2640.534,881.403,2642.226,879.321,2642.231z"/>
				<path style="opacity:0.53;fill:#FFFFFF;" d="M1367.711,2641.054l-474.845,1.25c-1.365,0.003-2.474-1.1-2.478-2.465l-0.14-53.232
					c-0.004-1.365,1.1-2.474,2.465-2.478l474.845-1.25c1.365-0.004,2.474,1.1,2.478,2.465l0.14,53.232
					C1370.179,2639.941,1369.075,2641.051,1367.711,2641.054z"/>
				<path style="opacity:0.53;fill:#FFFFFF;" d="M1780.087,2641.228l-226.745,0.597c-1.31,0.003-2.374-1.055-2.377-2.365
					l-0.141-53.431c-0.003-1.31,1.055-2.374,2.365-2.377l226.745-0.597c1.309-0.003,2.374,1.055,2.377,2.365l0.141,53.431
					C1782.456,2640.16,1781.397,2641.225,1780.087,2641.228z"/>
				<path style="opacity:0.53;fill:#FFFFFF;" d="M2356.372,2639.711l-527.15,1.388c-2.082,0.005-3.774-1.678-3.779-3.759
					l-0.133-50.635c-0.005-2.082,1.678-3.774,3.759-3.779l527.15-1.388c2.082-0.005,3.774,1.678,3.779,3.76l0.133,50.635
					C2360.137,2638.013,2358.453,2639.705,2356.372,2639.711z"/>
				<path style="opacity:0.53;fill:#FFFFFF;" d="M1368.104,2743.247l-658.378,1.733c-1.365,0.004-2.474-1.1-2.478-2.465
					l-0.14-53.232c-0.004-1.365,1.1-2.474,2.465-2.478l658.378-1.733c1.365-0.003,2.474,1.1,2.478,2.465l0.14,53.232
					C1370.572,2742.135,1369.468,2743.244,1368.104,2743.247z"/>
				<path style="opacity:0.53;fill:#FFFFFF;" d="M1780.187,2743.421l-226.745,0.597c-1.309,0.003-2.374-1.055-2.377-2.365
					l-0.141-53.432c-0.004-1.31,1.055-2.374,2.365-2.377l226.745-0.597c1.309-0.003,2.374,1.055,2.377,2.365l0.141,53.431
					C1782.555,2742.354,1781.497,2743.418,1780.187,2743.421z"/>
				<path style="opacity:0.53;fill:#FFFFFF;" d="M2608.708,2741.24l-659.072,1.735c-2.082,0.006-3.774-1.678-3.779-3.759
					l-0.133-50.635c-0.005-2.082,1.678-3.774,3.759-3.779l659.072-1.735c2.082-0.006,3.774,1.677,3.779,3.759l0.133,50.635
					C2612.473,2739.543,2610.79,2741.235,2608.708,2741.24z"/>
				<path style="opacity:0.53;fill:#FFFFFF;" d="M874.495,2846.781l-162.245,0.427c-2.082,0.005-3.774-1.678-3.779-3.759
					l-0.133-50.635c-0.005-2.082,1.678-3.774,3.759-3.779l162.245-0.427c2.082-0.005,3.774,1.678,3.779,3.76l0.133,50.635
					C878.26,2845.083,876.576,2846.775,874.495,2846.781z"/>
				<path style="opacity:0.53;fill:#FFFFFF;" d="M1370.542,2845.584l-474.845,1.25c-1.365,0.004-2.474-1.1-2.478-2.465l-0.14-53.232
					c-0.004-1.365,1.1-2.474,2.465-2.478l474.845-1.25c1.365-0.004,2.474,1.1,2.478,2.465l0.14,53.231
					C1373.01,2844.471,1371.906,2845.581,1370.542,2845.584z"/>
				<path style="opacity:0.53;fill:#FFFFFF;" d="M1782.317,2845.759l-226.745,0.597c-1.31,0.003-2.374-1.055-2.377-2.365
					l-0.141-53.432c-0.003-1.309,1.055-2.374,2.365-2.377l226.745-0.597c1.309-0.003,2.374,1.055,2.377,2.365l0.141,53.431
					C1784.685,2844.691,1783.626,2845.755,1782.317,2845.759z"/>
				<path style="opacity:0.53;fill:#FFFFFF;" d="M2946.884,2842.692l-894.822,2.356c-2.082,0.005-3.774-1.678-3.779-3.759
					l-0.133-50.635c-0.005-2.082,1.678-3.774,3.76-3.779l894.822-2.356c2.082-0.005,3.774,1.678,3.779,3.76l0.133,50.635
					C2950.648,2840.995,2948.965,2842.687,2946.884,2842.692z"/>
				<path style="opacity:0.53;fill:#FFFFFF;" d="M873.817,2440.924l-162.245,0.427c-2.082,0.005-3.774-1.678-3.779-3.759
					l-0.133-50.635c-0.005-2.082,1.678-3.774,3.759-3.779l162.245-0.427c2.082-0.005,3.774,1.678,3.779,3.76l0.133,50.635
					C877.582,2439.227,875.899,2440.919,873.817,2440.924z"/>
				<path style="opacity:0.53;fill:#FFFFFF;" d="M1367.948,2439.731l-474.845,1.25c-1.365,0.004-2.474-1.1-2.478-2.465l-0.14-53.232
					c-0.004-1.365,1.1-2.474,2.465-2.478l474.845-1.25c1.365-0.003,2.474,1.1,2.478,2.465l0.14,53.232
					C1370.416,2438.618,1369.313,2439.727,1367.948,2439.731z"/>
				<path style="opacity:0.53;fill:#FFFFFF;" d="M1780.918,2439.904l-226.745,0.597c-1.309,0.003-2.374-1.055-2.377-2.365
					l-0.141-53.432c-0.003-1.309,1.055-2.374,2.365-2.377l226.745-0.597c1.31-0.003,2.374,1.055,2.377,2.365l0.141,53.431
					C1783.286,2438.836,1782.227,2439.901,1780.918,2439.904z"/>
				<path style="opacity:0.53;fill:#FFFFFF;" d="M2941.65,2436.848l-894.822,2.356c-2.082,0.006-3.774-1.677-3.779-3.759
					l-0.133-50.635c-0.005-2.082,1.678-3.774,3.759-3.779l894.822-2.356c2.082-0.006,3.774,1.677,3.779,3.759l0.133,50.635
					C2945.415,2435.151,2943.732,2436.843,2941.65,2436.848z"/>
				<path style="opacity:0.53;fill:#FFFFFF;" d="M875.451,2543.262l-162.245,0.427c-2.082,0.006-3.774-1.678-3.779-3.759
					l-0.133-50.635c-0.005-2.082,1.678-3.774,3.759-3.779l162.245-0.427c2.082-0.006,3.774,1.677,3.779,3.759l0.133,50.635
					C879.216,2541.565,877.533,2543.257,875.451,2543.262z"/>
				<path style="opacity:0.53;fill:#FFFFFF;" d="M1370.74,2542.067l-474.845,1.25c-1.365,0.004-2.474-1.1-2.478-2.465l-0.14-53.232
					c-0.004-1.365,1.1-2.474,2.465-2.478l474.845-1.25c1.365-0.004,2.474,1.1,2.478,2.465l0.14,53.231
					C1373.208,2540.954,1372.104,2542.063,1370.74,2542.067z"/>
				<path style="opacity:0.53;fill:#FFFFFF;" d="M1783.048,2542.241l-226.745,0.597c-1.309,0.004-2.374-1.055-2.377-2.365
					l-0.141-53.431c-0.003-1.31,1.055-2.374,2.365-2.377l226.745-0.597c1.309-0.003,2.374,1.055,2.377,2.365l0.141,53.431
					C1785.416,2541.174,1784.357,2542.238,1783.048,2542.241z"/>
				<path style="opacity:0.53;fill:#FFFFFF;" d="M2946.663,2539.178l-894.822,2.356c-2.082,0.005-3.774-1.678-3.779-3.76
					l-0.133-50.635c-0.006-2.082,1.678-3.774,3.759-3.779l894.822-2.356c2.082-0.006,3.774,1.678,3.779,3.759l0.133,50.635
					C2950.427,2537.48,2948.744,2539.172,2946.663,2539.178z"/>
				<path style="opacity:0.53;fill:#FFFFFF;" d="M1472.141,2914.213l-18.587,0.049c-0.764,0.002-1.385-0.616-1.387-1.38
					l-3.767-1430.849c-0.002-0.764,0.616-1.385,1.38-1.387l18.587-0.049c0.764-0.002,1.385,0.616,1.387,1.38l3.767,1430.849
					C1473.523,2913.59,1472.906,2914.211,1472.141,2914.213z"/>
			</g>
		</g>
		<g>
			<g>
				
					<linearGradient id="SVGID_00000095313609117927469820000003911795778581854391_" gradientUnits="userSpaceOnUse" x1="1447.1233" y1="3040.1606" x2="1442.3533" y2="3114.0962">
					<stop  offset="0" style="stop-color:#09005D"/>
					<stop  offset="1" style="stop-color:#1A0F91"/>
				</linearGradient>
				<path style="fill:url(#SVGID_00000095313609117927469820000003911795778581854391_);" d="M2079.828,3173.05H794.587
					c-11.49,0-20.804,9.315-20.804,20.805c0,11.49,9.314,20.804,20.804,20.804h1285.241c11.49,0,20.804-9.314,20.804-20.804
					C2100.633,3182.365,2091.318,3173.05,2079.828,3173.05z"/>
				
					<linearGradient id="SVGID_00000103250492305793995920000015492569743288952741_" gradientUnits="userSpaceOnUse" x1="1448.9924" y1="2835.9404" x2="1432.297" y2="3198.4629">
					<stop  offset="0" style="stop-color:#09005D"/>
					<stop  offset="1" style="stop-color:#1A0F91"/>
				</linearGradient>
				<path style="fill:url(#SVGID_00000103250492305793995920000015492569743288952741_);" d="M1897.785,2961.529H976.63
					c-27.771,0-50.283,22.513-50.283,50.282v161.239h1021.721v-161.239C1948.068,2984.042,1925.556,2961.529,1897.785,2961.529z"/>
				
					<linearGradient id="SVGID_00000125586870152698600200000007021679512305150606_" gradientUnits="userSpaceOnUse" x1="1446.8339" y1="2737.3872" x2="1432.5237" y2="3040.2837">
					<stop  offset="0" style="stop-color:#09005D"/>
					<stop  offset="1" style="stop-color:#1A0F91"/>
				</linearGradient>
				<path style="fill:url(#SVGID_00000125586870152698600200000007021679512305150606_);" d="M1829.635,2871.683H1044.78
					c-27.77,0-50.283,22.512-50.283,50.282v39.563h885.42v-39.563C1879.918,2894.196,1857.405,2871.683,1829.635,2871.683z"/>
				
					<linearGradient id="SVGID_00000053534932265294844630000008814913239401729471_" gradientUnits="userSpaceOnUse" x1="1453.3209" y1="2525.0459" x2="1431.8223" y2="2818.8618">
					<stop  offset="0" style="stop-color:#09005D"/>
					<stop  offset="1" style="stop-color:#1A0F91"/>
				</linearGradient>
				<path style="fill:url(#SVGID_00000053534932265294844630000008814913239401729471_);" d="M1673.63,2871.683h-472.846v-252.365
					c0-6.993,5.669-12.661,12.661-12.661h447.524c6.993,0,12.661,5.668,12.661,12.661V2871.683z"/>
			</g>
			<g>
				<g>
					
						<linearGradient id="SVGID_00000098908273279405949740000016052392006088678796_" gradientUnits="userSpaceOnUse" x1="-1229.7338" y1="997.5106" x2="-1125.9393" y2="997.5106" gradientTransform="matrix(0.7357 -0.6774 0.6774 0.7357 1203.8007 712.3969)">
						<stop  offset="0" style="stop-color:#09005D"/>
						<stop  offset="1" style="stop-color:#1A0F91"/>
					</linearGradient>
					<path style="fill:url(#SVGID_00000098908273279405949740000016052392006088678796_);" d="M666.134,1848.454
						c-11.521,10.608-12.523,28.453-2.262,40.284l647.04,755.569c10.702,12.338,29.483,13.393,41.498,2.33l55.049-50.686
						l-712.602-773.944L666.134,1848.454z"/>
					
						<linearGradient id="SVGID_00000115485850754262816750000007778722346365128340_" gradientUnits="userSpaceOnUse" x1="-1159.5259" y1="909.6062" x2="-907.7991" y2="909.6062" gradientTransform="matrix(0.7357 -0.6774 0.6774 0.7357 1203.8007 712.3969)">
						<stop  offset="0" style="stop-color:#09005D"/>
						<stop  offset="1" style="stop-color:#1A0F91"/>
					</linearGradient>
					<path style="fill:url(#SVGID_00000115485850754262816750000007778722346365128340_);" d="M754.738,1605.703
						c-22.027-22.959-58.372-24.085-81.778-2.534l-58.03,53.431c-23.406,21.551-25.279,57.865-4.213,81.709l772.039,880.388
						l161.834-149.007c13.125-12.084,13.722-32.605,1.324-45.433L754.738,1605.703z"/>
					
						<linearGradient id="SVGID_00000171696406764113083120000014713318025487386520_" gradientUnits="userSpaceOnUse" x1="-854.79" y1="379.9799" x2="-1087.0077" y2="1057.8696" gradientTransform="matrix(0.7357 -0.6774 0.6774 0.7357 1203.8007 712.3969)">
						<stop  offset="0" style="stop-color:#4F52FF"/>
						<stop  offset="1" style="stop-color:#4042E2"/>
					</linearGradient>
					<path style="fill:url(#SVGID_00000171696406764113083120000014713318025487386520_);" d="M810.107,1790.172l-6.07,5.589
						c-18.794,17.304-20.001,46.568-2.697,65.361l407.412,442.483c17.304,18.794,46.567,20.001,65.361,2.697l6.07-5.589
						c18.794-17.304,20.001-46.568,2.697-65.361L875.468,1792.87C858.164,1774.076,828.9,1772.868,810.107,1790.172z"/>
					
						<rect x="1030.483" y="1701.242" transform="matrix(0.7357 -0.6773 0.6773 0.7357 -1111.8918 1247.2714)" style="fill:#7D97F4;" width="23.253" height="693.991"/>
				</g>
				<g>
					
						<linearGradient id="SVGID_00000036959113811898060010000012287878551559604906_" gradientUnits="userSpaceOnUse" x1="-1275.0099" y1="1513.2247" x2="-862.5239" y2="1513.2247" gradientTransform="matrix(0.7357 -0.6774 0.6774 0.7357 1203.8007 712.3969)">
						<stop  offset="0" style="stop-color:#4F52FF"/>
						<stop  offset="1" style="stop-color:#4042E2"/>
					</linearGradient>
					
						<circle style="fill:url(#SVGID_00000036959113811898060010000012287878551559604906_);" cx="1442.568" cy="2549.659" r="206.256"/>
					
						<ellipse transform="matrix(0.7071 -0.7071 0.7071 0.7071 -1380.363 1766.8271)" style="fill:#7D97F4;" cx="1442.568" cy="2549.659" rx="157.552" ry="157.552"/>
				</g>
			</g>
			<g>
				<g>
					
						<linearGradient id="SVGID_00000156572206981232484900000016789133398489863564_" gradientUnits="userSpaceOnUse" x1="-1515.9915" y1="116.5567" x2="-1487.3781" y2="-83.7368" gradientTransform="matrix(0.5261 -0.8505 0.8505 0.5261 1835.9585 136.0775)">
						<stop  offset="0" style="stop-color:#09005D"/>
						<stop  offset="1" style="stop-color:#1A0F91"/>
					</linearGradient>
					<path style="fill:url(#SVGID_00000156572206981232484900000016789133398489863564_);" d="M752.306,1712.883l51.102,31.614
						c11.154,6.9,25.804,3.218,32.37-8.136l395.552-694.015c6.296-10.887,2.797-24.807-7.898-31.423l-26.664-16.495
						L752.306,1712.883z"/>
					
						<linearGradient id="SVGID_00000139269466571981650420000011454961662000809663_" gradientUnits="userSpaceOnUse" x1="-1910.9323" y1="-166.1844" x2="-924.9775" y2="-166.1844" gradientTransform="matrix(0.5261 -0.8505 0.8505 0.5261 1835.9585 136.0775)">
						<stop  offset="0" style="stop-color:#09005D"/>
						<stop  offset="1" style="stop-color:#1A0F91"/>
					</linearGradient>
					<path style="fill:url(#SVGID_00000139269466571981650420000011454961662000809663_);" d="M1180.822,818.537l53.87,33.326
						c21.728,13.442,28.716,41.793,15.723,63.793l-475.177,811.414l-150.231-92.939c-12.184-7.537-15.769-23.629-7.939-35.625
						l499.651-765.558C1130.605,811.499,1159.093,805.095,1180.822,818.537z"/>
					
						<linearGradient id="SVGID_00000167371736721677022500000013207437320532152502_" gradientUnits="userSpaceOnUse" x1="-1395.4891" y1="-367.4386" x2="-1454.6722" y2="-20.7953" gradientTransform="matrix(0.5261 -0.8505 0.8505 0.5261 1835.9585 136.0775)">
						<stop  offset="0" style="stop-color:#4F52FF"/>
						<stop  offset="1" style="stop-color:#4042E2"/>
					</linearGradient>
					<path style="fill:url(#SVGID_00000167371736721677022500000013207437320532152502_);" d="M1034.766,1023.364l-265.699,429.491
						c-11.756,19.002-5.881,43.936,13.121,55.692c19.002,11.755,43.937,5.881,55.692-13.122l265.699-429.491
						c11.755-19.002,5.881-43.937-13.122-55.692C1071.456,998.487,1046.522,1004.361,1034.766,1023.364z"/>
					
						<rect x="643.349" y="1250.058" transform="matrix(0.5261 -0.8504 0.8504 0.5261 -627.2931 1393.1096)" style="fill:#7D97F4;" width="585.95" height="18.673"/>
				</g>
				<g>
					
						<linearGradient id="SVGID_00000177454271606984316120000002325301201817026437_" gradientUnits="userSpaceOnUse" x1="-2068.2979" y1="-137.9949" x2="-1737.0593" y2="-137.9949" gradientTransform="matrix(0.5261 -0.8505 0.8505 0.5261 1835.9585 136.0775)">
						<stop  offset="0" style="stop-color:#4F52FF"/>
						<stop  offset="1" style="stop-color:#4042E2"/>
					</linearGradient>
					
						<circle style="fill:url(#SVGID_00000177454271606984316120000002325301201817026437_);" cx="717.595" cy="1681.706" r="165.63"/>
					
						<ellipse transform="matrix(0.7071 -0.7071 0.7071 0.7071 -978.9675 999.9766)" style="fill:#7D97F4;" cx="717.595" cy="1681.707" rx="126.519" ry="126.519"/>
				</g>
			</g>
			<g>
				
					<linearGradient id="SVGID_00000130623456266984256970000017060377167801456054_" gradientUnits="userSpaceOnUse" x1="2941.9812" y1="242.9195" x2="3526.0813" y2="242.9195" gradientTransform="matrix(0.8544 0.5197 -0.5197 0.8544 -1162.999 -912.0317)">
					<stop  offset="0" style="stop-color:#09005D"/>
					<stop  offset="1" style="stop-color:#1A0F91"/>
				</linearGradient>
				<path style="fill:url(#SVGID_00000130623456266984256970000017060377167801456054_);" d="M1736.481,1106.584l-25.841,42.482
					c-10.423,17.135-29.274,24.832-42.417,17.319l-485.07-274.13l72.065-118.471c5.844-9.608,16.513-13.698,23.62-9.056
					l453.518,296.226C1745.07,1069.17,1746.903,1089.449,1736.481,1106.584z"/>
			</g>
			<g>
				
					<linearGradient id="SVGID_00000112606208844949384910000011456253876065659581_" gradientUnits="userSpaceOnUse" x1="3163.6621" y1="59.1081" x2="2739.1494" y2="462.1569" gradientTransform="matrix(0.8544 0.5197 -0.5197 0.8544 -1162.999 -912.0317)">
					<stop  offset="0" style="stop-color:#4F52FF"/>
					<stop  offset="1" style="stop-color:#4042E2"/>
				</linearGradient>
				
					<circle style="fill:url(#SVGID_00000112606208844949384910000011456253876065659581_);" cx="1248.376" cy="839.06" r="130.013"/>
				
					<ellipse transform="matrix(0.0848 -0.9964 0.9964 0.0848 306.4417 2011.7595)" style="fill:#7D97F4;" cx="1248.376" cy="839.06" rx="99.313" ry="99.313"/>
			</g>
			
				<linearGradient id="SVGID_00000084517731843879795120000002874963080763461810_" gradientUnits="userSpaceOnUse" x1="4060.6604" y1="144.7223" x2="3709.8315" y2="140.4953" gradientTransform="matrix(0.8544 0.5197 -0.5197 0.8544 -1162.999 -912.0317)">
				<stop  offset="0" style="stop-color:#4F52FF"/>
				<stop  offset="1" style="stop-color:#4042E2"/>
			</linearGradient>
			<polygon style="fill:url(#SVGID_00000084517731843879795120000002874963080763461810_);" points="1818.499,1118.676 
				1927.125,1040.255 2077.637,1223.315 2054.818,1250.259 1918.736,1104.278 1834.671,1165.811 			"/>
			<g>
				<g style="opacity:0.3;">
					
						<linearGradient id="SVGID_00000045580693591875518240000012076449577565995426_" gradientUnits="userSpaceOnUse" x1="1948.6082" y1="8782.7568" x2="1961.9567" y2="7808.2837" gradientTransform="matrix(-0.2368 0.9715 -0.9715 -0.2368 -1920.8091 -1989.8759)">
						<stop  offset="0" style="stop-color:#FF928E"/>
						<stop  offset="1" style="stop-color:#FE7062"/>
					</linearGradient>
					<path style="fill:url(#SVGID_00000045580693591875518240000012076449577565995426_);" d="M2349.812,825.75
						c1.82-7.465,9.024-12.502,16.804-11.445c17.016,2.305,34.185,5.387,51.027,9.153c8.195,1.833,13.353,9.96,11.521,18.152
						c-0.024,0.098-0.047,0.193-0.07,0.288c-1.956,8.025-9.988,13.041-18.084,11.229c-16.002-3.58-32.311-6.505-48.474-8.697
						c-8.318-1.126-14.152-8.785-13.023-17.107C2349.583,826.789,2349.687,826.264,2349.812,825.75z M2478.24,858.066
						c0.141-0.577,0.318-1.154,0.53-1.726c2.932-7.866,11.688-11.868,19.554-8.936c16.158,6.026,32.218,12.802,47.731,20.14
						c7.59,3.59,10.823,12.613,7.246,20.243c-3.592,7.589-12.657,10.828-20.241,7.241c-14.747-6.974-30.003-13.41-45.361-19.134
						C2480.406,873.174,2476.441,865.447,2478.24,858.066z M2596.358,917.855c0.401-1.644,1.086-3.25,2.068-4.746
						c4.613-7.013,14.037-8.967,21.053-4.357c14.383,9.447,28.534,19.641,42.059,30.297c6.592,5.201,7.717,14.755,2.534,21.349
						c-5.195,6.593-14.756,7.728-21.349,2.533c-12.843-10.12-26.278-19.796-39.938-28.771
						C2597.265,930.535,2594.879,923.925,2596.358,917.855z M2698.163,1002.574c0.662-2.717,2.083-5.283,4.251-7.361
						c6.061-5.808,15.685-5.6,21.493,0.46c11.911,12.438,23.429,25.538,34.233,38.938c5.258,6.535,4.234,16.101-2.296,21.376
						c-6.534,5.268-16.105,4.24-21.376-2.296c-10.259-12.726-21.196-25.171-32.52-36.985
						C2698.222,1012.811,2696.974,1007.452,2698.163,1002.574z M2778.518,1107.866c0.929-3.811,3.323-7.261,6.951-9.436
						c7.201-4.32,16.539-1.982,20.853,5.218c8.834,14.732,17.164,30.052,24.747,45.531c3.7,7.536,0.587,16.645-6.957,20.34
						c-7.538,3.693-16.643,0.578-20.343-6.961c-7.207-14.714-15.123-29.274-23.518-43.275
						C2778.109,1115.711,2777.604,1111.615,2778.518,1107.866z M2833.575,1228.302c1.203-4.936,4.848-9.157,10.03-10.857
						c7.979-2.618,16.565,1.725,19.186,9.701c5.366,16.347,10.1,33.131,14.06,49.88c1.931,8.174-3.126,16.36-11.298,18.292
						c-8.165,1.933-16.357-3.126-18.29-11.295c-3.765-15.916-8.259-31.86-13.358-47.393
						C2832.985,1233.833,2832.926,1230.964,2833.575,1228.302z M2736.813,1778.057c0.499-2.045,1.43-4.015,2.814-5.777
						c10.086-12.845,19.748-26.305,28.711-40.004c4.597-7.024,14.018-8.993,21.039-4.397c7.027,4.594,8.996,14.016,4.399,21.043
						c-9.439,14.427-19.613,28.605-30.232,42.133c-5.186,6.605-14.743,7.753-21.345,2.568
						C2737.355,1789.823,2735.445,1783.671,2736.813,1778.057z M2860.556,1357.861c1.493-6.127,6.731-10.916,13.361-11.534
						c8.362-0.779,15.768,5.366,16.548,13.724c1.599,17.133,2.47,34.545,2.591,51.751c0.02,8.393-6.695,15.252-15.094,15.31
						c-8.394,0.059-15.248-6.7-15.309-15.097c-0.112-16.34-0.94-32.873-2.457-49.142
						C2860.037,1361.145,2860.167,1359.456,2860.556,1357.861z M2806.326,1665.346c0.238-0.975,0.571-1.942,1.015-2.885
						c6.96-14.786,13.369-30.071,19.061-45.424c2.922-7.872,11.669-11.888,19.539-8.971c7.869,2.921,11.927,11.672,8.97,19.538
						c-5.991,16.153-12.736,32.237-20.055,47.798c-3.575,7.597-12.634,10.859-20.227,7.284
						C2807.976,1679.559,2804.649,1672.223,2806.326,1665.346z M2857.92,1490.199c1.817-7.453,9.004-12.489,16.775-11.45
						c8.323,1.112,14.165,8.758,13.06,17.082c-2.277,17.038-5.32,34.207-9.053,51.027c-0.019,0.105-0.045,0.212-0.071,0.316
						c-1.953,8.013-9.966,13.027-18.055,11.235c-8.199-1.818-13.371-9.933-11.551-18.131c3.541-15.978,6.428-32.286,8.59-48.475
						C2857.692,1491.259,2857.792,1490.721,2857.92,1490.199z"/>
					
						<linearGradient id="SVGID_00000024001356260616006580000016496350703613881258_" gradientUnits="userSpaceOnUse" x1="2446.4023" y1="8790.001" x2="2459.7512" y2="7815.4995" gradientTransform="matrix(-0.2368 0.9715 -0.9715 -0.2368 -1920.8091 -1989.8759)">
						<stop  offset="0" style="stop-color:#FF928E"/>
						<stop  offset="1" style="stop-color:#FE7062"/>
					</linearGradient>
					<path style="fill:url(#SVGID_00000024001356260616006580000016496350703613881258_);" d="M2663.569,1855.706
						c0.709-2.908,2.279-5.639,4.694-7.773c5.874-5.19,11.731-10.592,17.426-16.05c6.056-5.812,15.682-5.614,21.491,0.444
						c5.815,6.056,5.624,15.688-0.448,21.493c-5.984,5.744-12.148,11.423-18.327,16.887c-6.288,5.56-15.899,4.971-21.456-1.316
						C2663.518,1865.515,2662.43,1860.379,2663.569,1855.706z"/>
				</g>
				<g style="opacity:0.3;">
					
						<linearGradient id="SVGID_00000141430372854505907140000008986492673005724596_" gradientUnits="userSpaceOnUse" x1="2706.5642" y1="8793.4609" x2="2719.9131" y2="7818.9639" gradientTransform="matrix(-0.2368 0.9715 -0.9715 -0.2368 -1920.8091 -1989.8759)">
						<stop  offset="0" style="stop-color:#FF928E"/>
						<stop  offset="1" style="stop-color:#FE7062"/>
					</linearGradient>
					<path style="fill:url(#SVGID_00000141430372854505907140000008986492673005724596_);" d="M2224.062,2002.752
						c1.738-7.128,8.436-12.142,15.983-11.536c7.811,0.63,15.768,1.106,23.645,1.412c8.391,0.328,14.926,7.394,14.599,15.782
						c-0.33,8.424-7.397,14.925-15.783,14.598c-8.293-0.326-16.673-0.825-24.898-1.486c-8.368-0.674-14.606-8.003-13.935-16.372
						C2223.739,2004.329,2223.873,2003.527,2224.062,2002.752z"/>
					
						<linearGradient id="SVGID_00000010993056631424073500000003624537957441792424_" gradientUnits="userSpaceOnUse" x1="2289.9519" y1="8787.4238" x2="2303.3003" y2="7812.9478" gradientTransform="matrix(-0.2368 0.9715 -0.9715 -0.2368 -1920.8091 -1989.8759)">
						<stop  offset="0" style="stop-color:#FF928E"/>
						<stop  offset="1" style="stop-color:#FE7062"/>
					</linearGradient>
					<path style="fill:url(#SVGID_00000010993056631424073500000003624537957441792424_);" d="M1695.719,1272.933
						c1.656-6.795,3.435-13.589,5.334-20.378c2.264-8.084,10.651-12.806,18.736-10.544c8.085,2.261,12.825,10.696,10.548,18.734
						c-4.382,15.669-8.12,31.479-11.139,47.175c-1.602,8.249-9.553,13.642-17.797,12.057c-8.249-1.587-13.647-9.558-12.059-17.801
						C1691.208,1292.467,1693.356,1282.628,1695.719,1272.933z M1727.906,1176.924c0.201-0.825,0.475-1.647,0.825-2.454
						c6.734-15.566,14.205-31.02,22.204-45.93c3.967-7.397,13.182-10.178,20.577-6.212c7.399,3.97,10.196,13.206,6.21,20.583
						c-7.596,14.161-14.689,28.843-21.094,43.634c-3.332,7.704-12.282,11.247-19.983,7.914
						C1729.744,1191.472,1726.184,1183.988,1727.906,1176.924z M1679.713,1381.59c1.697-6.963,8.152-11.957,15.568-11.564
						c8.387,0.446,14.82,7.604,14.377,15.988c-0.854,16.037-1.03,32.328-0.517,48.429c0.252,8.392-6.324,15.41-14.713,15.675
						c-8.394,0.264-15.412-6.324-15.677-14.716c-0.537-16.954-0.35-34.114,0.545-51.002
						C1679.349,1383.435,1679.493,1382.495,1679.713,1381.59z M1792.533,1063.722c0.457-1.875,1.285-3.69,2.489-5.346
						c9.981-13.693,20.669-27.125,31.764-39.92c5.5-6.342,15.097-7.024,21.439-1.524c6.347,5.502,7.034,15.097,1.526,21.443
						c-10.534,12.15-20.684,24.903-30.162,37.909c-4.942,6.786-14.455,8.275-21.237,3.33
						C1793.225,1075.876,1791.117,1069.528,1792.533,1063.722z M1687.256,1511.612c1.392-5.711,6.053-10.339,12.219-11.39
						c8.277-1.411,16.13,4.155,17.542,12.432c2.694,15.823,6.109,31.755,10.141,47.354c2.102,8.128-2.781,16.423-10.915,18.523
						c-8.127,2.099-16.416-2.785-18.517-10.912c-4.248-16.422-7.841-33.195-10.68-49.857
						C1686.687,1515.653,1686.78,1513.567,1687.256,1511.612z M1723.148,1636.834c1.113-4.566,4.322-8.554,9.001-10.475
						c7.768-3.185,16.648,0.529,19.833,8.297c6.111,14.896,12.921,29.709,20.237,44.025c3.832,7.47,0.873,16.626-6.612,20.455
						c-7.477,3.821-16.632,0.859-20.457-6.616c-7.701-15.066-14.866-30.653-21.294-46.329
						C1722.59,1643.106,1722.414,1639.845,1723.148,1636.834z M1785.485,1751.252c0.847-3.473,2.913-6.66,6.078-8.865
						c6.885-4.801,16.361-3.108,21.161,3.78c9.214,13.223,19.081,26.198,29.34,38.57c5.356,6.461,4.47,16.039-2.003,21.404
						c-6.464,5.356-16.044,4.462-21.405-2.003c-10.791-13.02-21.183-26.677-30.877-40.589
						C1785.186,1759.825,1784.488,1755.342,1785.485,1751.252z M1871.286,1849.345c0.586-2.406,1.769-4.7,3.56-6.656
						c5.671-6.19,15.283-6.609,21.473-0.938c11.875,10.882,24.346,21.376,37.073,31.195c6.646,5.129,7.874,14.684,2.754,21.32
						c-5.129,6.649-14.676,7.879-21.322,2.75c-13.406-10.342-26.542-21.395-39.041-32.849
						C1871.547,1860.284,1870.015,1854.557,1871.286,1849.345z M1976.568,1926.239c0.33-1.353,0.855-2.682,1.581-3.951
						c4.166-7.287,13.455-9.817,20.739-5.649c13.947,7.974,28.416,15.459,43.019,22.246c7.614,3.54,10.9,12.601,7.375,20.192
						c-3.537,7.614-12.581,10.916-20.195,7.377c-15.371-7.145-30.606-15.024-45.287-23.422
						C1977.782,1939.589,1975.005,1932.654,1976.568,1926.239z M2096.091,1978.089c0.074-0.303,0.16-0.606,0.252-0.907
						c2.48-8.019,10.995-12.51,19.013-10.028c11.321,3.503,22.882,6.696,34.375,9.498c4.159,1.014,8.325,1.977,12.483,2.897
						c8.2,1.812,13.379,9.927,11.564,18.123c-1.672,8.336-9.923,13.375-18.117,11.566c-4.379-0.967-8.752-1.981-13.131-3.048
						c-12.086-2.946-24.254-6.309-36.16-9.994C2098.652,1993.81,2094.203,1985.834,2096.091,1978.089z"/>
					
						<linearGradient id="SVGID_00000127736819263444220630000009449057421067179939_" gradientUnits="userSpaceOnUse" x1="1782.3401" y1="8780.8682" x2="1795.689" y2="7806.3667" gradientTransform="matrix(-0.2368 0.9715 -0.9715 -0.2368 -1920.8091 -1989.8759)">
						<stop  offset="0" style="stop-color:#FF928E"/>
						<stop  offset="1" style="stop-color:#FE7062"/>
					</linearGradient>
					<path style="fill:url(#SVGID_00000127736819263444220630000009449057421067179939_);" d="M1880.781,967.298
						c0.716-2.937,2.309-5.686,4.75-7.827c6.193-5.421,12.616-10.813,19.094-16.027c6.54-5.266,16.11-4.233,21.373,2.307
						c5.263,6.542,4.24,16.105-2.307,21.373c-6.153,4.954-12.254,10.077-18.135,15.222c-6.311,5.53-15.916,4.894-21.448-1.423
						C1880.72,977.049,1879.649,971.942,1880.781,967.298z"/>
				</g>
				<g>
					
						<linearGradient id="SVGID_00000101813884526692037180000002580527642702388608_" gradientUnits="userSpaceOnUse" x1="2126.0518" y1="8785.4746" x2="2139.4006" y2="7810.9785" gradientTransform="matrix(-0.2368 0.9715 -0.9715 -0.2368 -1920.8091 -1989.8759)">
						<stop  offset="0" style="stop-color:#FF928E"/>
						<stop  offset="1" style="stop-color:#FE7062"/>
					</linearGradient>
					<path style="fill:url(#SVGID_00000101813884526692037180000002580527642702388608_);" d="M2047.224,1028.985
						c-2.735,1.306-4.342,4.203-3.999,7.215l9.775,85.918c-31.516,25.248-59.234,55.703-81.666,90.688l-86.413-0.691
						c-3.032-0.025-5.744,1.877-6.755,4.735l-34.597,97.782c-1.01,2.859-0.096,6.042,2.273,7.929l67.621,53.807
						c-4.56,41.308-2.163,82.417,6.464,121.868l-61.633,60.654c-2.16,2.126-2.734,5.388-1.428,8.123l44.68,93.606
						c1.307,2.737,4.204,4.343,7.215,3.999l85.917-9.775c25.248,31.517,55.704,59.234,90.688,81.666l-0.691,86.415
						c-0.025,3.031,1.876,5.743,4.734,6.754l97.784,34.596c2.857,1.011,6.042,0.098,7.928-2.275l53.807-67.621
						c41.308,4.561,82.417,2.165,121.867-6.463l60.655,61.634c2.125,2.158,5.388,2.733,8.123,1.427l93.605-44.68
						c2.737-1.305,4.342-4.203,3.999-7.214l-9.776-85.918c31.518-25.247,59.235-55.703,81.666-90.688l86.415,0.692
						c3.03,0.024,5.743-1.876,6.755-4.734l34.595-97.784c1.012-2.857,0.098-6.041-2.274-7.929l-67.621-53.807
						c4.562-41.307,2.164-82.418-6.463-121.868l61.632-60.653c2.162-2.125,2.735-5.39,1.429-8.124l-44.68-93.605
						c-1.305-2.735-4.203-4.341-7.214-3.999l-85.917,9.775c-25.248-31.517-55.705-59.234-90.688-81.666l0.691-86.415
						c0.025-3.029-1.877-5.744-4.736-6.753l-97.781-34.596c-2.858-1.011-6.042-0.098-7.93,2.273l-53.807,67.621
						c-41.307-4.56-82.416-2.163-121.867,6.463l-60.654-61.632c-2.126-2.161-5.387-2.734-8.125-1.429L2047.224,1028.985z"/>
					<path style="opacity:0.7;fill:#FFFFFF;" d="M2188.918,1392.879c12.036-49.377,58.864-83.895,110.941-79.05
						c57.246,5.328,99.477,56.229,94.153,113.471c-2.574,27.734-15.804,52.797-37.233,70.576
						c-21.43,17.784-48.505,26.158-76.235,23.575c-57.246-5.328-99.477-56.229-94.154-113.47
						C2186.873,1402.82,2187.725,1397.774,2188.918,1392.879z M2367.839,1436.74c0.929-3.813,1.587-7.714,1.958-11.694
						c4.085-43.886-28.304-82.915-72.187-87c-43.889-4.083-82.933,28.287-87.003,72.189c-4.085,43.886,28.303,82.915,72.186,87
						c21.264,1.978,42.02-4.441,58.454-18.076C2354.602,1468.075,2363.802,1453.3,2367.839,1436.74z"/>
					<path style="opacity:0.7;fill:#FFFFFF;" d="M2042.111,1359.286c2.067-8.48,4.573-16.906,7.523-25.247l0,0
						c0.927-2.625,1.9-5.236,2.912-7.832c4.995-12.794,11-25.17,17.922-36.938c0.094-0.16,0.188-0.321,0.282-0.481
						c0.27-0.454,0.539-0.907,0.815-1.36c0.527-0.883,1.065-1.76,1.602-2.635c1.417-2.301,4.117-3.327,6.61-2.722
						c0.605,0.148,1.2,0.393,1.758,0.737c2.859,1.761,3.736,5.507,1.983,8.365c-9.068,14.71-16.608,30.496-22.415,46.92
						c-28.876,81.573-11.624,168.457,38.072,232.06c27.637,35.38,65.317,63.555,110.69,79.606
						c7.956,2.817,15.996,5.211,24.085,7.179c54.437,13.264,111.307,7.451,162.553-17.013
						c58.867-28.097,103.269-77.437,125.024-138.927c44.918-127-21.828-266.757-148.762-311.665
						c-7.826-2.77-15.765-5.132-23.778-7.083c-34.726-8.459-70.916-9.226-105.977-2.117c-0.906,0.183-1.804,0.156-2.646-0.052
						c-2.215-0.54-4.038-2.314-4.52-4.699c-0.657-3.295,1.451-6.504,4.754-7.168c36.809-7.462,74.807-6.661,111.263,2.22
						c8.412,2.047,16.742,4.528,24.958,7.432c133.271,47.15,203.308,193.965,156.176,327.188
						c-22.839,64.556-69.453,116.35-131.252,145.846c-53.799,25.683-113.501,31.784-170.651,17.862
						c-8.492-2.07-16.931-4.583-25.281-7.535c-64.559-22.843-116.356-69.454-145.853-131.251
						C2034.272,1476.165,2028.178,1416.446,2042.111,1359.286z"/>
				</g>
			</g>
			<g>
				
					<linearGradient id="SVGID_00000106854979782079458590000001024463216296509570_" gradientUnits="userSpaceOnUse" x1="2414.2893" y1="1567.0203" x2="2086.127" y2="1359.4075">
					<stop  offset="0" style="stop-color:#4F52FF"/>
					<stop  offset="1" style="stop-color:#4042E2"/>
				</linearGradient>
				<path style="fill:url(#SVGID_00000106854979782079458590000001024463216296509570_);" d="M1796.537,1074.556l-47.33-28.541
					c-1.033-0.623-2.376-0.291-2.999,0.743l-85.865,142.389c-0.623,1.033-0.291,2.376,0.743,2.999l47.329,28.541
					c1.033,0.623,2.376,0.291,2.999-0.743l85.865-142.389C1797.903,1076.522,1797.57,1075.179,1796.537,1074.556z"/>
				
					<linearGradient id="SVGID_00000072973024236438843900000013872588285433109156_" gradientUnits="userSpaceOnUse" x1="4100.0083" y1="360.6564" x2="3749.1831" y2="356.4294" gradientTransform="matrix(0.8544 0.5197 -0.5197 0.8544 -1162.999 -912.0317)">
					<stop  offset="0" style="stop-color:#4F52FF"/>
					<stop  offset="1" style="stop-color:#4042E2"/>
				</linearGradient>
				<polygon style="fill:url(#SVGID_00000072973024236438843900000013872588285433109156_);" points="1790.178,1248.262 
					1773.443,1381.188 2006.254,1425.5 2018.958,1392.556 1825.604,1343.129 1839.296,1239.855 				"/>
				
					<linearGradient id="SVGID_00000164479949578513082980000002685086522757683387_" gradientUnits="userSpaceOnUse" x1="3613.8186" y1="242.9347" x2="3709.7466" y2="242.9347" gradientTransform="matrix(0.8544 0.5197 -0.5197 0.8544 -1162.999 -912.0317)">
					<stop  offset="0" style="stop-color:#09005D"/>
					<stop  offset="1" style="stop-color:#1A0F91"/>
				</linearGradient>
				<path style="fill:url(#SVGID_00000164479949578513082980000002685086522757683387_);" d="M1755.106,1244.801
					c22.345,18.306,53.535,24.609,82.582,13.857c43.568-16.128,65.812-64.522,49.683-108.089
					c-8.162-22.049-24.588-38.637-44.471-47.553L1755.106,1244.801z"/>
				
					<linearGradient id="SVGID_00000162317060269511848440000003239756769040814766_" gradientUnits="userSpaceOnUse" x1="3658.0798" y1="167.7803" x2="3500.2883" y2="353.2542" gradientTransform="matrix(0.8544 0.5197 -0.5197 0.8544 -1162.999 -912.0317)">
					<stop  offset="0" style="stop-color:#4F52FF"/>
					<stop  offset="1" style="stop-color:#4042E2"/>
				</linearGradient>
				<path style="fill:url(#SVGID_00000162317060269511848440000003239756769040814766_);" d="M1707.309,1215.292l-13.741,22.787
					c-2.478,4.11-0.921,9.593,3.477,12.245l42.25,25.478c4.399,2.653,9.974,1.471,12.452-2.639l109.563-181.687
					c2.479-4.11,0.922-9.592-3.477-12.245l-42.25-25.478c-4.399-2.653-9.974-1.471-12.452,2.639l-12.591,20.879L1707.309,1215.292z"
					/>
			</g>
		</g>
		<g>
			<g style="opacity:0.3;">
				
					<linearGradient id="SVGID_00000106123505711432255550000002057999830258960292_" gradientUnits="userSpaceOnUse" x1="20921.6426" y1="5675.1069" x2="20227.5254" y2="5267.98" gradientTransform="matrix(0.0118 0.9999 -0.9999 0.0118 -1863.9955 -1551.5245)">
					<stop  offset="0" style="stop-color:#FF928E"/>
					<stop  offset="1" style="stop-color:#FE7062"/>
				</linearGradient>
				<path style="fill:url(#SVGID_00000106123505711432255550000002057999830258960292_);" d="M2421.085,1863.457
					c-0.052-4.373,3.209-8.17,7.648-8.687c9.709-1.134,19.612-1.862,29.432-2.166c4.778-0.148,8.771,3.604,8.918,8.381
					c0.001,0.057,0.001,0.113,0.002,0.169c0.056,4.702-3.664,8.603-8.385,8.748c-9.33,0.288-18.736,0.98-27.959,2.057
					c-4.746,0.555-9.046-2.844-9.599-7.592C2421.105,1864.062,2421.088,1863.758,2421.085,1863.457z M2496.471,1863.123
					c-0.004-0.338,0.012-0.681,0.048-1.027c0.505-4.752,4.768-8.197,9.52-7.692c9.761,1.039,19.575,2.505,29.167,4.359
					c4.693,0.906,7.751,5.425,6.857,10.138c-0.908,4.693-5.449,7.76-10.138,6.854c-9.118-1.761-18.44-3.154-27.718-4.139
					C2499.801,1871.147,2496.523,1867.447,2496.471,1863.123z M2570.057,1879.395c-0.011-0.963,0.139-1.945,0.469-2.909
					c1.552-4.52,6.473-6.929,10.994-5.379c9.266,3.176,18.511,6.797,27.475,10.761c4.37,1.936,6.341,7.046,4.415,11.414
					c-1.933,4.37-7.044,6.347-11.414,4.415c-8.513-3.765-17.289-7.202-26.09-10.22
					C2572.349,1886.259,2570.099,1882.951,2570.057,1879.395z M2638.17,1911.721c-0.019-1.592,0.402-3.208,1.304-4.66
					c2.521-4.059,7.858-5.305,11.917-2.785c8.326,5.175,16.53,10.771,24.381,16.632c3.823,2.86,4.611,8.28,1.756,12.112
					c-2.859,3.828-8.281,4.614-12.112,1.756c-7.456-5.567-15.246-10.884-23.16-15.798
					C2639.65,1917.357,2638.204,1914.579,2638.17,1911.721z M2697.363,1958.423c-0.027-2.233,0.806-4.474,2.499-6.186
					c3.36-3.4,8.84-3.431,12.237-0.071c6.954,6.875,13.713,14.145,20.082,21.609c3.106,3.632,2.677,9.095-0.961,12.2
					c-3.635,3.102-9.096,2.672-12.201-0.963c-6.054-7.095-12.478-14.005-19.086-20.538
					C2698.247,1962.807,2697.389,1960.619,2697.363,1958.423z M2744.748,2017.052c-0.034-2.892,1.379-5.734,3.996-7.405
					c4.03-2.571,9.378-1.39,11.951,2.637c5.27,8.255,10.253,16.842,14.804,25.518c2.22,4.234,0.589,9.463-3.645,11.684
					c-4.229,2.22-9.462,0.589-11.682-3.643c-4.326-8.245-9.057-16.401-14.065-24.246
					C2745.204,2020.185,2744.766,2018.611,2744.748,2017.052z M2769.102,2333.879c-0.014-1.198,0.221-2.416,0.735-3.583
					c3.746-8.509,7.171-17.296,10.177-26.117c1.542-4.523,6.459-6.941,10.98-5.398c4.524,1.54,6.942,6.457,5.4,10.981
					c-3.166,9.29-6.771,18.546-10.715,27.507c-1.926,4.375-7.034,6.359-11.407,4.433
					C2771.064,2340.291,2769.141,2337.168,2769.102,2333.879z M2777.94,2084.68c-0.042-3.59,2.169-6.971,5.737-8.249
					c4.501-1.612,9.454,0.73,11.065,5.229c3.303,9.221,6.245,18.699,8.744,28.17c1.197,4.625-1.536,9.357-6.159,10.576
					c-4.62,1.219-9.355-1.539-10.576-6.161c-2.371-8.995-5.166-17.994-8.302-26.751
					C2778.118,2086.564,2777.951,2085.615,2777.94,2084.68z M2791.501,2261.901c-0.007-0.571,0.041-1.151,0.152-1.734
					c1.748-9.137,3.121-18.472,4.09-27.742c0.498-4.754,4.754-8.205,9.506-7.708c4.752,0.498,8.227,4.75,7.708,9.506
					c-1.021,9.754-2.466,19.577-4.302,29.192c-0.898,4.695-5.431,7.774-10.124,6.876
					C2794.42,2269.505,2791.549,2265.93,2791.501,2261.901z M2795.193,2158.027c-0.052-4.367,3.199-8.159,7.632-8.685
					c4.747-0.563,9.049,2.827,9.616,7.573c1.153,9.717,1.902,19.615,2.221,29.418c0.004,0.06,0.005,0.123,0.006,0.184
					c0.056,4.695-3.654,8.592-8.368,8.748c-4.778,0.156-8.777-3.588-8.932-8.365c-0.306-9.312-1.019-18.712-2.116-27.945
					C2795.217,2158.644,2795.197,2158.333,2795.193,2158.027z"/>
				
					<linearGradient id="SVGID_00000176022487071835196930000009448799872360970382_" gradientUnits="userSpaceOnUse" x1="21058.3887" y1="5443.5332" x2="20364.248" y2="5036.3921" gradientTransform="matrix(0.0118 0.9999 -0.9999 0.0118 -1863.9955 -1551.5245)">
					<stop  offset="0" style="stop-color:#FF928E"/>
					<stop  offset="1" style="stop-color:#FE7062"/>
				</linearGradient>
				<path style="fill:url(#SVGID_00000176022487071835196930000009448799872360970382_);" d="M2739.69,2387.05
					c-0.02-1.703,0.46-3.432,1.49-4.95c2.505-3.692,4.972-7.499,7.34-11.313c2.518-4.061,7.854-5.313,11.914-2.793
					c4.063,2.518,5.319,7.856,2.791,11.915c-2.488,4.013-5.084,8.016-7.719,11.903c-2.681,3.955-8.064,4.989-12.017,2.307
					C2741.049,2392.466,2739.722,2389.788,2739.69,2387.05z"/>
			</g>
			<g style="opacity:0.3;">
				
					<linearGradient id="SVGID_00000124841690447571902260000000173479350267490446_" gradientUnits="userSpaceOnUse" x1="20999.6426" y1="5544.229" x2="20305.4883" y2="5137.0806" gradientTransform="matrix(0.0118 0.9999 -0.9999 0.0118 -1863.9955 -1551.5245)">
					<stop  offset="0" style="stop-color:#FF928E"/>
					<stop  offset="1" style="stop-color:#FE7062"/>
				</linearGradient>
				<path style="fill:url(#SVGID_00000124841690447571902260000000173479350267490446_);" d="M2518.12,2530.262
					c-0.049-4.176,2.936-7.887,7.183-8.621c4.396-0.757,8.851-1.619,13.238-2.564c4.673-1.005,9.276,1.968,10.281,6.639
					c1.009,4.692-1.969,9.276-6.639,10.281c-4.619,0.993-9.311,1.902-13.939,2.7c-4.709,0.812-9.185-2.348-9.998-7.058
					C2518.165,2531.178,2518.125,2530.717,2518.12,2530.262z"/>
				
					<linearGradient id="SVGID_00000095298987354162007530000003333870435184595848_" gradientUnits="userSpaceOnUse" x1="20847.2109" y1="5802.0518" x2="20153.0957" y2="5394.9258" gradientTransform="matrix(0.0118 0.9999 -0.9999 0.0118 -1863.9955 -1551.5245)">
					<stop  offset="0" style="stop-color:#FF928E"/>
					<stop  offset="1" style="stop-color:#FE7062"/>
				</linearGradient>
				<path style="fill:url(#SVGID_00000095298987354162007530000003333870435184595848_);" d="M2123.613,2202.506
					c-0.047-3.981-0.027-7.979,0.061-11.991c0.106-4.778,4.063-8.567,8.841-8.463s8.584,4.085,8.465,8.84
					c-0.201,9.26-0.028,18.506,0.526,27.588c0.283,4.775-3.339,8.873-8.109,9.164c-4.773,0.291-8.876-3.341-9.166-8.111
					C2123.887,2213.915,2123.68,2208.186,2123.613,2202.506z M2127.79,2145.014c-0.006-0.483,0.029-0.975,0.108-1.47
					c1.513-9.536,3.448-19.113,5.751-28.465c1.142-4.64,5.83-7.476,10.469-6.334c4.641,1.143,7.489,5.841,6.334,10.472
					c-2.187,8.883-4.023,17.981-5.464,27.042c-0.749,4.719-5.183,7.938-9.9,7.189
					C2130.86,2152.777,2127.839,2149.153,2127.79,2145.014z M2130.146,2264.685c-0.048-4.08,2.805-7.746,6.95-8.577
					c4.688-0.94,9.247,2.098,10.188,6.784c1.796,8.964,4.002,17.972,6.561,26.778c1.325,4.592-1.309,9.391-5.897,10.724
					c-4.592,1.332-9.392-1.309-10.725-5.899c-2.692-9.273-5.015-18.761-6.909-28.201
					C2130.207,2265.754,2130.153,2265.215,2130.146,2264.685z M2147.425,2073.456c-0.013-1.098,0.187-2.216,0.617-3.3
					c3.568-8.962,7.563-17.879,11.873-26.503c2.136-4.274,7.332-6.007,11.607-3.871c4.278,2.137,6.013,7.33,3.873,11.608
					c-4.091,8.189-7.885,16.656-11.273,25.168c-1.766,4.44-6.801,6.606-11.24,4.838
					C2149.525,2080.061,2147.466,2076.858,2147.425,2073.456z M2152.685,2335.316c-0.04-3.346,1.876-6.557,5.128-8.008
					c4.365-1.948,9.482,0.011,11.43,4.376c3.722,8.344,7.857,16.647,12.286,24.679c2.308,4.185,0.788,9.449-3.4,11.757
					c-4.185,2.306-9.446,0.785-11.753-3.4c-4.664-8.455-9.017-17.196-12.937-25.983
					C2152.943,2337.625,2152.699,2336.462,2152.685,2335.316z M2190.178,2399.293c-0.032-2.675,1.174-5.328,3.483-7.049
					c3.833-2.854,9.255-2.062,12.109,1.772c5.476,7.35,11.324,14.556,17.383,21.416c3.169,3.578,2.832,9.045-0.755,12.214
					c-3.583,3.164-9.05,2.825-12.216-0.757c-6.376-7.219-12.531-14.802-18.291-22.537
					C2190.757,2402.831,2190.199,2401.058,2190.178,2399.293z M2240.726,2453.575c-0.024-2.035,0.665-4.085,2.099-5.748
					c3.118-3.62,8.583-4.026,12.203-0.907c6.95,5.989,14.225,11.749,21.631,17.121c3.866,2.806,4.732,8.213,1.921,12.086
					c-2.807,3.867-8.216,4.729-12.086,1.921c-7.791-5.655-15.452-11.716-22.764-18.017
					C2241.773,2458.344,2240.754,2455.971,2240.726,2453.575z M2301.905,2495.537c-0.017-1.41,0.311-2.842,1.022-4.174
					c2.252-4.215,7.493-5.805,11.708-3.553c8.086,4.322,16.447,8.346,24.853,11.961c4.39,1.889,6.418,6.984,4.532,11.367
					c-1.888,4.392-6.979,6.419-11.369,4.531c-8.854-3.808-17.66-8.046-26.172-12.595
					C2303.595,2501.532,2301.941,2498.591,2301.905,2495.537z M2370.83,2523.056c-0.01-0.792,0.093-1.6,0.313-2.402
					c1.267-4.607,6.032-7.315,10.637-6.047c8.818,2.426,17.855,4.508,26.866,6.186c4.699,0.875,7.792,5.408,6.921,10.092
					c-0.874,4.699-5.394,7.798-10.093,6.922c-9.486-1.767-19.001-3.958-28.283-6.514
					C2373.386,2530.246,2370.875,2526.814,2370.83,2523.056z M2444.067,2534.752c-0.002-0.177,0.003-0.356,0.011-0.536
					c0.234-4.772,4.294-8.453,9.067-8.217c6.738,0.331,13.564,0.458,20.298,0.378c2.437-0.029,4.87-0.086,7.293-0.167
					c4.778-0.16,8.781,3.583,8.939,8.359c0.257,4.833-3.581,8.778-8.355,8.939c-2.552,0.086-5.106,0.145-7.672,0.175
					c-7.081,0.084-14.266-0.051-21.352-0.399C2447.702,2543.059,2444.121,2539.29,2444.067,2534.752z"/>
				
					<linearGradient id="SVGID_00000181084200088427292630000010843683553162399419_" gradientUnits="userSpaceOnUse" x1="20718.584" y1="6022.8789" x2="20024.4414" y2="5615.7363" gradientTransform="matrix(0.0118 0.9999 -0.9999 0.0118 -1863.9955 -1551.5245)">
					<stop  offset="0" style="stop-color:#FF928E"/>
					<stop  offset="1" style="stop-color:#FE7062"/>
				</linearGradient>
				<path style="fill:url(#SVGID_00000181084200088427292630000010843683553162399419_);" d="M2182.458,2007.811
					c-0.021-1.721,0.469-3.462,1.513-4.987c2.648-3.865,5.428-7.746,8.264-11.537c2.862-3.828,8.285-4.611,12.112-1.749
					c3.827,2.864,4.615,8.282,1.749,12.112c-2.692,3.602-5.333,7.289-7.848,10.957c-2.698,3.942-8.084,4.948-12.028,2.247
					C2183.802,2013.197,2182.49,2010.532,2182.458,2007.811z"/>
			</g>
			<g>
				
					<linearGradient id="SVGID_00000111158954209869556970000017553560649706227107_" gradientUnits="userSpaceOnUse" x1="20889.5059" y1="5731.7358" x2="20195.3574" y2="5324.5898" gradientTransform="matrix(0.0118 0.9999 -0.9999 0.0118 -1863.9955 -1551.5245)">
					<stop  offset="0" style="stop-color:#FF928E"/>
					<stop  offset="1" style="stop-color:#FE7062"/>
				</linearGradient>
				<path style="fill:url(#SVGID_00000111158954209869556970000017553560649706227107_);" d="M2282.958,2018.299
					c-1.323,1.106-1.8,2.931-1.185,4.544l17.535,45.995c-13.81,18.378-24.79,39.089-32.214,61.552l-47.748,11.834
					c-1.676,0.415-2.902,1.847-3.056,3.566l-5.255,58.81c-0.153,1.719,0.801,3.345,2.375,4.051l44.894,20.112
					c3.325,23.423,10.457,45.753,20.791,66.287l-25.412,42.159c-0.891,1.478-0.746,3.357,0.361,4.681l37.869,45.301
					c1.107,1.324,2.932,1.8,4.544,1.185l45.995-17.535c18.377,13.81,39.09,24.789,61.552,32.213l11.834,47.749
					c0.415,1.675,1.847,2.901,3.565,3.055l58.811,5.255c1.719,0.154,3.345-0.8,4.05-2.375l20.112-44.894
					c23.423-3.324,45.753-10.456,66.287-20.791l42.159,25.413c1.477,0.89,3.358,0.745,4.681-0.361l45.301-37.87
					c1.325-1.106,1.8-2.931,1.185-4.543l-17.536-45.995c13.811-18.377,24.79-39.089,32.214-61.552l47.749-11.834
					c1.674-0.415,2.901-1.846,3.056-3.565l5.254-58.811c0.154-1.719-0.8-3.345-2.375-4.051l-44.894-20.112
					c-3.323-23.423-10.457-45.753-20.791-66.288l25.412-42.158c0.892-1.478,0.746-3.359-0.36-4.682l-37.87-45.301
					c-1.106-1.324-2.931-1.8-4.543-1.185l-45.995,17.535c-18.377-13.811-39.09-24.789-61.552-32.213l-11.834-47.749
					c-0.415-1.674-1.847-2.902-3.566-3.055l-58.81-5.255c-1.719-0.153-3.345,0.8-4.051,2.375l-20.112,44.894
					c-23.422,3.324-45.752,10.457-66.287,20.79l-42.159-25.411c-1.478-0.891-3.357-0.746-4.682,0.36L2282.958,2018.299z"/>
				<path style="opacity:0.7;fill:#FFFFFF;" d="M2412.531,2198.93c-0.343-28.929,20.6-54.583,50.002-59.273
					c32.32-5.154,62.803,16.944,67.958,49.261c2.501,15.657-1.251,31.348-10.555,44.18c-9.303,12.836-23.049,21.281-38.705,23.777
					c-32.32,5.154-62.803-16.945-67.958-49.261C2412.809,2204.701,2412.565,2201.798,2412.531,2198.93z M2517.393,2197.824
					c-0.026-2.234-0.215-4.478-0.573-6.725c-3.951-24.778-27.328-41.721-52.104-37.77c-24.779,3.953-41.733,27.321-37.771,52.105
					c3.951,24.777,27.328,41.721,52.104,37.77c12.005-1.915,22.543-8.388,29.678-18.23
					C2514.523,2216.975,2517.508,2207.527,2517.393,2197.824z"/>
				<path style="opacity:0.7;fill:#FFFFFF;" d="M2326.83,2201.159c-0.059-4.969,0.132-9.969,0.58-14.986l0,0
					c0.14-1.579,0.308-3.156,0.499-4.73c0.946-7.761,2.508-15.434,4.661-22.902c0.029-0.102,0.058-0.204,0.087-0.305
					c0.084-0.288,0.169-0.576,0.257-0.865c0.166-0.561,0.339-1.121,0.511-1.679c0.456-1.469,1.8-2.417,3.26-2.436
					c0.355-0.004,0.717,0.047,1.073,0.158c1.825,0.567,2.839,2.509,2.276,4.332c-2.921,9.393-4.848,19.164-5.728,29.042
					c-4.392,49.063,17.403,94.534,53.797,122.582c20.241,15.603,45.002,25.813,72.291,28.25c4.785,0.428,9.557,0.612,14.296,0.554
					c31.893-0.381,62.431-11.626,87.231-32.359c28.489-23.814,45.999-57.299,49.303-94.281
					c6.817-76.381-49.744-144.011-126.088-150.832c-4.707-0.421-9.418-0.602-14.113-0.544c-20.344,0.244-40.409,4.937-58.738,13.813
					c-0.474,0.229-0.973,0.341-1.466,0.345c-1.298,0.015-2.554-0.705-3.156-1.952c-0.828-1.724-0.119-3.791,1.608-4.625
					c19.243-9.318,40.309-14.247,61.667-14.504c4.928-0.06,9.872,0.13,14.813,0.57c80.154,7.161,139.528,78.218,132.37,158.343
					c-3.469,38.827-21.851,73.976-51.759,98.977c-26.035,21.767-58.094,33.571-91.576,33.972c-4.975,0.059-9.984-0.134-15.006-0.581
					c-38.828-3.47-73.979-21.851-98.98-51.758C2339.028,2266.717,2327.226,2234.647,2326.83,2201.159z"/>
			</g>
		</g>
		<g>
			<g>
				
					<linearGradient id="SVGID_00000149355441993812422330000005787041549711596686_" gradientUnits="userSpaceOnUse" x1="862.2577" y1="2946.7715" x2="570.0159" y2="3310.3484" gradientTransform="matrix(-0.7257 0.688 0.688 0.7257 947.3353 -369.8229)">
					<stop  offset="0" style="stop-color:#FEBBBA"/>
					<stop  offset="1" style="stop-color:#FF928E"/>
				</linearGradient>
				<path style="fill:url(#SVGID_00000149355441993812422330000005787041549711596686_);" d="M2567.592,2434.537l-2.678-23.128
					c54.188-8.577,92.387-41.005,108.571-50.323c16.798,21.735,28.305,41.437,40.646,67.257
					C2646.907,2457.765,2567.592,2434.537,2567.592,2434.537z"/>
				
					<linearGradient id="SVGID_00000108280032443549790180000005817088801194609817_" gradientUnits="userSpaceOnUse" x1="-3358.613" y1="3175.259" x2="-3268.3843" y2="3175.259" gradientTransform="matrix(-1 0 0 1 -146.3213 0)">
					<stop  offset="0" style="stop-color:#09005D"/>
					<stop  offset="1" style="stop-color:#1A0F91"/>
				</linearGradient>
				<path style="fill:url(#SVGID_00000108280032443549790180000005817088801194609817_);" d="M3199.731,3143.465
					c0,0,10.026,15.805,12.549,60.053c0.235,4.123-3.031,7.635-7.16,7.635h-78.416c-3.155,0-5.407-3.094-4.396-6.082
					c4.595-13.6,18.489-46.757,49.489-65.705L3199.731,3143.465z"/>
				
					<linearGradient id="SVGID_00000163074800137425167720000001195718548186175667_" gradientUnits="userSpaceOnUse" x1="-3349.4602" y1="3133.3308" x2="-3312.8665" y2="3133.3308" gradientTransform="matrix(-1 0 0 1 -146.3213 0)">
					<stop  offset="0" style="stop-color:#FEBBBA"/>
					<stop  offset="1" style="stop-color:#FF928E"/>
				</linearGradient>
				<path style="fill:url(#SVGID_00000163074800137425167720000001195718548186175667_);" d="M3203.139,3113.482l-4.435,37.189
					c-0.383,3.208-2.897,5.777-6.107,6.147c-4.289,0.494-10.523,0.842-16.581-0.157c-5.507-0.908-9.47-5.813-9.47-11.395v-35.906
					L3203.139,3113.482z"/>
				
					<linearGradient id="SVGID_00000155864889391067529940000001404798579302103719_" gradientUnits="userSpaceOnUse" x1="-3166.7312" y1="3173.8167" x2="-3025.1589" y2="3173.8167" gradientTransform="matrix(-1 0 0 1 -146.3213 0)">
					<stop  offset="0" style="stop-color:#09005D"/>
					<stop  offset="1" style="stop-color:#1A0F91"/>
				</linearGradient>
				<path style="fill:url(#SVGID_00000155864889391067529940000001404798579302103719_);" d="M3005.717,3139.365
					c0,0,15.009,23.329,14.688,55.351c-0.076,7.543-6.39,13.551-13.934,13.551h-121.788c-5.703,0-8.018-7.328-3.351-10.605
					c23.045-16.183,68.342-46.415,101.103-58.297H3005.717z"/>
				
					<linearGradient id="SVGID_00000140722362914361351970000006945146205249534854_" gradientUnits="userSpaceOnUse" x1="-3164.5806" y1="3117.0818" x2="-3128.1885" y2="3117.0818" gradientTransform="matrix(-1 0 0 1 -146.3213 0)">
					<stop  offset="0" style="stop-color:#FEBBBA"/>
					<stop  offset="1" style="stop-color:#FF928E"/>
				</linearGradient>
				<path style="fill:url(#SVGID_00000140722362914361351970000006945146205249534854_);" d="M3018.259,3099.202l-9.46,45.93
					c-1.058,5.137-6.083,8.592-11.203,7.449c-3.112-0.695-6.784-2.026-10.707-4.479c-3.728-2.331-5.618-6.766-4.856-11.097
					l9.786-55.644L3018.259,3099.202z"/>
				
					<linearGradient id="SVGID_00000070090130987721832590000009556288809818944440_" gradientUnits="userSpaceOnUse" x1="3635.5146" y1="2212.9675" x2="3388.5679" y2="2506.6338">
					<stop  offset="0" style="stop-color:#4F52FF"/>
					<stop  offset="1" style="stop-color:#4042E2"/>
				</linearGradient>
				<path style="fill:url(#SVGID_00000070090130987721832590000009556288809818944440_);" d="M3185.762,2460.618
					c0,0,32.893,28.999,39.083,63.889c6.19,34.89-17.539,601.967-17.539,601.967s-32.892,5.473-49.848-4.802
					c0,0-20.11-368.029-35.396-453.071c0,0-80.165,381.229-102.377,450.113c0,0-31.688,3.855-41.907-2.175
					c0,0,20.999-494.18,47.385-582.038L3185.762,2460.618z"/>
				
					<linearGradient id="SVGID_00000176007674428441967540000011532524180925276050_" gradientUnits="userSpaceOnUse" x1="3188.2993" y1="2138.0559" x2="3123.2283" y2="2858.8379">
					<stop  offset="0" style="stop-color:#09005D"/>
					<stop  offset="1" style="stop-color:#1A0F91"/>
				</linearGradient>
				<path style="fill:url(#SVGID_00000176007674428441967540000011532524180925276050_);" d="M3123.023,2656.64
					c1.587,0,3.034-1.065,3.451-2.67l13.619-52.247l29.01-18.609c1.659-1.065,2.143-3.274,1.078-4.934
					c-1.065-1.663-3.268-2.146-4.934-1.078l-30.186,19.365c-0.756,0.483-1.302,1.236-1.527,2.105l-13.969,53.596
					c-0.5,1.909,0.645,3.859,2.553,4.355C3122.423,2656.603,3122.723,2656.64,3123.023,2656.64z"/>
				
					<linearGradient id="SVGID_00000055687900502598794060000007351436650791384463_" gradientUnits="userSpaceOnUse" x1="-2961.2075" y1="1771.7471" x2="-3035.2437" y2="2181.1223" gradientTransform="matrix(-1 0 0 1 -146.3213 0)">
					<stop  offset="0" style="stop-color:#4F52FF"/>
					<stop  offset="1" style="stop-color:#4042E2"/>
				</linearGradient>
				<path style="fill:url(#SVGID_00000055687900502598794060000007351436650791384463_);" d="M2861.163,2132.95
					c138.469-11.496,174.66,17.159,174.66,17.159l-66.543,105.053c0,0-136.059-2.688-233.552-77.83
					c18.246-19.65,30.917-41.366,39.045-58.275C2799.913,2129.505,2828.863,2135.631,2861.163,2132.95z"/>
				
					<linearGradient id="SVGID_00000080200935398243861390000017489309937317391758_" gradientUnits="userSpaceOnUse" x1="-2921.094" y1="2051.4792" x2="-2785.8438" y2="2051.4792" gradientTransform="matrix(-1 0 0 1 -146.3213 0)">
					<stop  offset="0" style="stop-color:#FEBBBA"/>
					<stop  offset="1" style="stop-color:#FF928E"/>
				</linearGradient>
				<path style="fill:url(#SVGID_00000080200935398243861390000017489309937317391758_);" d="M2644.322,1929.696
					c0.187-4.437,6.2-5.644,8.085-1.623l17.669,37.704c3.414,7.285,4.508,15.442,3.135,23.369l-6.198,21.945
					c-1.854,10.702,0.942,21.667,7.726,30.149c16.235,20.297,50.811,57.365,100.034,77.818
					c-8.127,16.909-20.799,38.625-39.045,58.275c-35.772-27.571-66.359-64.884-83.117-115.415
					c-8.029-2.466-13.394-10.026-13.075-18.419L2644.322,1929.696z"/>
				
					<linearGradient id="SVGID_00000008107558074344577390000009709588460418165400_" gradientUnits="userSpaceOnUse" x1="2954.6924" y1="2176.1118" x2="2887.95" y2="2963.6709">
					<stop  offset="0" style="stop-color:#4F52FF"/>
					<stop  offset="1" style="stop-color:#4042E2"/>
				</linearGradient>
				<path style="fill:url(#SVGID_00000008107558074344577390000009709588460418165400_);" d="M2815.583,2193.856
					c48.747-52.527,141.597-76.258,195.355-86.006c23.552-4.271,46.767,8.835,55.112,31.268
					c24.192,65.032,89.988,234.222,102.74,263.301c10.463,23.856,21.387,47.155,28.329,61.722
					c4.147,8.702,0.524,19.115-8.161,23.301c-45.229,21.801-126.613,46.466-159.607,56.088c-7.258,2.117-14.484-3.333-14.484-10.892
					c0-6.411-1.743-12.703-5.042-18.2l-124.957-208.231c-77.884,86.357-125.733,121.033-177.721,126.151
					c-17.154-17.473-45.347-54.437-36.119-71.994C2737.607,2325.519,2815.583,2193.856,2815.583,2193.856z"/>
				
					<linearGradient id="SVGID_00000182525168417805968890000006221932646053899709_" gradientUnits="userSpaceOnUse" x1="909.9382" y1="3000.9905" x2="617.7073" y2="3364.5537" gradientTransform="matrix(-0.7257 0.688 0.688 0.7257 947.3353 -369.8229)">
					<stop  offset="0" style="stop-color:#FEBBBA"/>
					<stop  offset="1" style="stop-color:#FF928E"/>
				</linearGradient>
				<path style="fill:url(#SVGID_00000182525168417805968890000006221932646053899709_);" d="M2586.99,2431.496l-54.999,56.375
					l-80.427,20.487c3.062-11.887,54.913-42.686,54.913-42.686s38.22-49.052,50.282-60.519c10.017-9.523,22.26,6.259,26.121,11.88
					c0.787,1.147,1.226,1.87,1.226,1.87L2586.99,2431.496z"/>
				
					<linearGradient id="SVGID_00000064326600528383064770000016590800575591852964_" gradientUnits="userSpaceOnUse" x1="-2943.6125" y1="1861.2413" x2="-3226.6472" y2="2381.2893" gradientTransform="matrix(-1 0 0 1 -146.3213 0)">
					<stop  offset="0" style="stop-color:#FEBBBA"/>
					<stop  offset="1" style="stop-color:#FF928E"/>
				</linearGradient>
				<path style="fill:url(#SVGID_00000064326600528383064770000016590800575591852964_);" d="M2936.996,2011.383l41.523,101.326
					c0,0-47.71,33.024-86.095,29.881l-20.723-91.111L2936.996,2011.383z"/>
				<g>
					
						<linearGradient id="SVGID_00000004540688652461994460000001639331036319381671_" gradientUnits="userSpaceOnUse" x1="-2776.9146" y1="2183.7236" x2="-2902.0002" y2="2349.2017" gradientTransform="matrix(-0.817 -0.5767 -0.5767 0.817 1877.1066 -1428.4956)">
						<stop  offset="0" style="stop-color:#FEBBBA"/>
						<stop  offset="1" style="stop-color:#FF928E"/>
					</linearGradient>
					<path style="fill:url(#SVGID_00000004540688652461994460000001639331036319381671_);" d="M2866.854,1942.306
						c-0.951,1.348-30.04,106.434-30.04,106.434l60.356,15.334l42.368-95.504C2939.538,1968.57,2882.775,1919.75,2866.854,1942.306z
						"/>
					
						<linearGradient id="SVGID_00000086657907525197244370000016783952426835315096_" gradientUnits="userSpaceOnUse" x1="-2872.4438" y1="2223.6411" x2="-2723.0271" y2="2223.6411" gradientTransform="matrix(-0.817 -0.5767 -0.5767 0.817 1877.1066 -1428.4956)">
						<stop  offset="0" style="stop-color:#09005D"/>
						<stop  offset="1" style="stop-color:#1A0F91"/>
					</linearGradient>
					<path style="fill:url(#SVGID_00000086657907525197244370000016783952426835315096_);" d="M2916.81,1983.08l-18.366,52.021
						c-0.236,0.667-0.551,1.284-0.958,1.863c-2.492,3.541-11.96,15.096-23.192,4.688c-10.191-9.444-19.631-17.911-28.351-19.449
						c-3.914-0.69-7.706,1.699-8.766,5.53c-2.64,9.549-8.192,31.176-10.149,50.701c-0.397,3.962,2.339,7.543,6.251,8.286
						c11.788,2.239,36.782,6.265,57.648,4.793c2.827-0.199,5.315-1.896,6.495-4.473c5.75-12.565,23.369-50.69,29.922-60.555
						c6.15-9.259,21.228-8.999,27.552-8.439c2.073,0.184,4.112-0.484,5.676-1.856c5.532-4.849,16.06-17.229,1.25-32.05
						c-3.099-3.102-3.016-8.105,0.179-11.109c6.359-5.98,13.162-16.586,2.565-29.74c-10.77-13.37-24.988-11.242-33.698-8.063
						c-3.523,1.285-7.365-0.204-9.279-3.427c-1.09-1.835-2.991-3.224-6.288-2.94c-4.443,0.382-8.178-3.325-8.098-7.783
						c0.154-8.565-2.913-19.387-17.771-24.011c-26.366-8.206-42.807,17.266-44.436,36.272
						c-1.628,19.007,27.463,26.279,44.569,24.996c13.006-0.974,22.663,11.917,26.545,18.152
						C2917.339,1978.464,2917.584,1980.886,2916.81,1983.08z"/>
					
						<linearGradient id="SVGID_00000071522352759069211520000014437848284123219108_" gradientUnits="userSpaceOnUse" x1="-2960.1157" y1="2314.769" x2="-2859.7869" y2="2211.8342" gradientTransform="matrix(-0.817 -0.5767 -0.5767 0.817 1877.1066 -1428.4956)">
						<stop  offset="0" style="stop-color:#FEBBBA"/>
						<stop  offset="1" style="stop-color:#FF928E"/>
					</linearGradient>
					<path style="fill:url(#SVGID_00000071522352759069211520000014437848284123219108_);" d="M2920.467,2045.361
						c0,0,4.259-32.997,17.986-34.613c13.726-1.617,27.086,9.664,13.44,28.185
						C2934.917,2061.97,2920.467,2045.361,2920.467,2045.361z"/>
				</g>
			</g>
		</g>
	</g>
</g>
</svg>
