<?xml version="1.0" encoding="utf-8"?>
<!-- Generator: Adobe Illustrator 27.5.0, SVG Export Plug-In . SVG Version: 6.00 Build 0)  -->
<svg version="1.1" xmlns="http://www.w3.org/2000/svg" xmlns:xlink="http://www.w3.org/1999/xlink" x="0px" y="0px"
	 viewBox="0 0 3710 3710" style="enable-background:new 0 0 3710 3710;" xml:space="preserve">
<g id="Background">
	<g>
		<g>
			<rect style="fill:#FFFFFF;" width="3710" height="3710"/>
		</g>
	</g>
</g>
<g id="Illustration">
	<g>
		<linearGradient id="SVGID_1_" gradientUnits="userSpaceOnUse" x1="3483.4092" y1="3653.9277" x2="1542.2806" y2="1587.5657">
			<stop  offset="0" style="stop-color:#DAE3FE"/>
			<stop  offset="1" style="stop-color:#E9EFFD"/>
		</linearGradient>
		<path style="fill:url(#SVGID_1_);" d="M2900.587,2824.912c-71.658,73.863-135.776,117.282-184.867,150.061
			c-478.771,319.68-1026.059,227.541-1195.267,196.047c-272.996-50.81-503.442-86.655-701.437-265.535
			c-449.903-406.47-428.021-1254.397-84.24-1779.651c40.762-62.28,384.023-571.099,932.495-642.796
			c13.415-1.754,23.424-2.752,32.191-3.68c84.847-8.983,610.63-56.396,1039.353,302.788c61.37,51.415,160.131,144.156,251.715,285.6
			C3325.404,1584.93,3326.465,2385.934,2900.587,2824.912z"/>
		<g>
			<path style="fill:#91B3FA;" d="M3094.94,2458.125H582.621c-20.161,0-36.505-16.344-36.505-36.505V703.943
				c0-20.161,16.344-36.505,36.505-36.505H3094.94c20.161,0,36.504,16.344,36.504,36.505V2421.62
				C3131.444,2441.781,3115.101,2458.125,3094.94,2458.125z"/>
			<path style="opacity:0.26;fill:#FFFFFF;" d="M3008.297,2383.172H645.238c-20.161,0-36.505-16.344-36.505-36.505V1013.145
				c0-20.161,16.344-36.505,36.505-36.505h2363.059c20.161,0,36.505,16.344,36.505,36.505v1333.523
				C3044.802,2366.829,3028.458,2383.172,3008.297,2383.172z"/>
			<path style="fill:#91B3FA;" d="M3131.444,896.464V788.589c0-66.909-55.377-121.12-122.288-121.12H675.098
				c-66.909,0-122.344,54.211-122.344,121.12v107.876H3131.444z"/>
			<g>
				
					<ellipse transform="matrix(0.7071 -0.7071 0.7071 0.7071 -383.3515 729.0228)" style="opacity:0.56;fill:#FFFFFF;" cx="688.333" cy="827.258" rx="31.591" ry="31.591"/>
				<circle style="opacity:0.56;fill:#FFFFFF;" cx="787.886" cy="828.643" r="31.591"/>
				<circle style="opacity:0.56;fill:#FFFFFF;" cx="883.36" cy="833.048" r="31.591"/>
			</g>
			<path style="opacity:0.56;fill:#FFFFFF;" d="M1499.686,2300.13H708.692c-6.6,0-12-5.4-12-12V1072.486c0-6.6,5.4-12,12-12h790.994
				c6.6,0,12,5.4,12,12V2288.13C1511.686,2294.73,1506.286,2300.13,1499.686,2300.13z"/>
			<path style="opacity:0.56;fill:#FFFFFF;" d="M2944.64,1651.647H1578.625c-6.6,0-12-5.4-12-12v-567.563c0-6.6,5.4-12,12-12
				H2944.64c6.6,0,12,5.4,12,12v567.563C2956.64,1646.247,2951.24,1651.647,2944.64,1651.647z"/>
			<path style="opacity:0.56;fill:#FFFFFF;" d="M2938.607,2279.857H1572.592c-6.6,0-12-5.4-12-12v-533.672c0-6.6,5.4-12,12-12
				h1366.014c6.6,0,12,5.4,12,12v533.672C2950.607,2274.457,2945.207,2279.857,2938.607,2279.857z"/>
		</g>
		<g>
			<g>
				<g style="opacity:0.3;">
					<path style="fill:#7D97F4;" d="M1297.189,1045.113c-5.341,1.084-10.749-2.022-12.418-7.335
						c-3.654-11.62-6.856-23.572-9.52-35.522c-1.296-5.814,2.366-11.578,8.178-12.873c0.07-0.014,0.138-0.028,0.206-0.042
						c5.742-1.165,11.386,2.477,12.665,8.222c2.53,11.354,5.573,22.706,9.042,33.745c1.787,5.68-1.37,11.737-7.053,13.522
						C1297.925,1044.947,1297.557,1045.039,1297.189,1045.113z M1279.187,952.911c-0.413,0.084-0.837,0.144-1.268,0.18
						c-5.935,0.491-11.146-3.923-11.637-9.858c-1.006-12.191-1.502-24.547-1.471-36.721c0.014-5.956,4.832-10.754,10.81-10.76
						c5.956,0.016,10.77,4.859,10.755,10.81c-0.028,11.572,0.443,23.309,1.402,34.895
						C1288.233,946.962,1284.469,951.839,1279.187,952.911z M1281.934,859.038c-1.176,0.239-2.414,0.283-3.671,0.104
						c-5.894-0.846-9.992-6.306-9.149-12.202c1.726-12.084,4-24.245,6.761-36.144c1.35-5.801,7.145-9.406,12.942-8.068
						c5.8,1.346,9.413,7.142,8.068,12.942c-2.622,11.299-4.781,22.844-6.421,34.321
						C1289.801,854.631,1286.277,858.157,1281.934,859.038z M1305.608,768.118c-1.945,0.395-4.02,0.257-6.009-0.509
						c-5.557-2.139-8.328-8.38-6.19-13.937c4.392-11.4,9.327-22.747,14.67-33.726c2.609-5.348,9.059-7.576,14.416-4.976
						c5.353,2.606,7.581,9.06,4.976,14.416c-5.075,10.426-9.765,21.203-13.933,32.037
						C1312.161,764.991,1309.098,767.409,1305.608,768.118z M1348.961,684.761c-2.727,0.553-5.664,0.057-8.155-1.616
						c-4.946-3.32-6.263-10.02-2.942-14.962c6.793-10.116,14.115-20.087,21.764-29.625c3.722-4.65,10.509-5.399,15.158-1.671
						c4.645,3.725,5.393,10.511,1.669,15.16c-7.272,9.066-14.231,18.542-20.687,28.156
						C1354.121,682.656,1351.644,684.216,1348.961,684.761z M1409.67,613.075c-3.532,0.717-7.341-0.35-9.997-3.163
						c-4.088-4.333-3.891-11.155,0.439-15.244c8.876-8.377,18.223-16.481,27.782-24.076c4.665-3.706,11.446-2.929,15.152,1.735
						c3.705,4.659,2.929,11.444-1.733,15.15c-9.082,7.22-17.963,14.915-26.396,22.876
						C1413.399,611.786,1411.575,612.689,1409.67,613.075z M1791.813,509.325c-1.463,0.297-3.009,0.293-4.558-0.063
						c-11.29-2.6-22.846-4.742-34.345-6.363c-5.896-0.832-10.004-6.286-9.171-12.181c0.829-5.898,6.284-10.005,12.182-9.173
						c12.11,1.707,24.282,3.961,36.172,6.697c5.805,1.336,9.426,7.126,8.089,12.929
						C1799.203,505.427,1795.829,508.51,1791.813,509.325z M1484.707,556.663c-4.384,0.89-9.039-1.028-11.436-5.098
						c-3.023-5.133-1.313-11.742,3.818-14.765c10.517-6.196,21.432-12.009,32.443-17.278c5.382-2.545,11.812-0.304,14.383,5.071
						c2.571,5.371,0.299,11.811-5.073,14.384c-10.457,5.002-20.821,10.522-30.808,16.405
						C1486.972,556.005,1485.849,556.431,1484.707,556.663z M1698.478,498.705c-0.698,0.141-1.419,0.219-2.158,0.219
						c-11.593-0.007-23.34,0.49-34.914,1.468c-5.935,0.499-11.153-3.904-11.654-9.837c-0.499-5.933,3.895-11.179,9.837-11.654
						c12.178-1.027,24.539-1.55,36.737-1.546c5.956,0.003,10.783,4.835,10.779,10.789
						C1707.104,493.357,1703.399,497.706,1698.478,498.705z M1570.465,518.426c-5.333,1.082-10.734-2.012-12.412-7.315
						c-1.797-5.679,1.349-11.737,7.026-13.538c11.625-3.679,23.566-6.906,35.491-9.584c0.073-0.019,0.15-0.035,0.224-0.05
						c5.734-1.164,11.371,2.468,12.661,8.202c1.306,5.813-2.343,11.582-8.156,12.886c-11.327,2.548-22.668,5.614-33.713,9.111
						C1571.214,518.253,1570.839,518.35,1570.465,518.426z"/>
					<path style="fill:#7D97F4;" d="M1863.763,532.92c-2.081,0.422-4.308,0.238-6.406-0.668c-5.104-2.205-10.34-4.336-15.562-6.345
						c-5.558-2.134-8.336-8.374-6.199-13.932c2.134-5.56,8.375-8.344,13.934-6.197c5.493,2.109,10.999,4.353,16.371,6.671
						c5.467,2.359,7.989,8.707,5.629,14.172C1870.076,529.993,1867.107,532.242,1863.763,532.92z"/>
				</g>
				<g style="opacity:0.3;">
					<path style="fill:#7D97F4;" d="M2090.776,770.721c-5.1,1.035-10.34-1.753-12.229-6.781c-1.952-5.204-4.048-10.457-6.227-15.606
						c-2.321-5.486,0.244-11.814,5.728-14.134c5.508-2.33,11.814,0.246,14.134,5.728c2.293,5.423,4.501,10.953,6.558,16.433
						c2.092,5.576-0.731,11.792-6.307,13.886C2091.886,770.453,2091.331,770.608,2090.776,770.721z"/>
					<path style="fill:#7D97F4;" d="M1781.637,1330.123c-4.863,0.987-9.761,1.895-14.692,2.724
						c-5.873,0.985-11.435-2.974-12.423-8.847c-0.988-5.873,2.997-11.461,8.845-12.424c11.382-1.914,22.66-4.285,33.648-7.082
						c5.779-1.461,11.641,2.017,13.11,7.788c1.47,5.775-2.019,11.645-7.79,13.113
						C1795.539,1327.125,1788.575,1328.715,1781.637,1330.123z M1710.287,1338.426c-0.59,0.12-1.201,0.192-1.825,0.211
						c-12.025,0.373-24.201,0.24-36.187-0.397c-5.946-0.315-10.512-5.392-10.196-11.337c0.317-5.948,5.402-10.53,11.341-10.197
						c11.384,0.604,22.949,0.728,34.378,0.377c5.952-0.185,10.926,4.492,11.11,10.442
						C1719.073,1332.856,1715.342,1337.4,1710.287,1338.426z M1856.225,1307.614c-4.983,1.011-10.136-1.626-12.121-6.506
						c-2.244-5.519,0.41-11.809,5.926-14.054c10.554-4.29,21.066-9.093,31.248-14.28c5.312-2.694,11.801-0.59,14.503,4.716
						c2.702,5.31,0.59,11.803-4.718,14.505c-10.723,5.46-21.796,10.518-32.908,15.038
						C1857.52,1307.291,1856.873,1307.483,1856.225,1307.614z M1618.111,1331.09c-1.342,0.272-2.756,0.288-4.183,0.015
						c-11.803-2.276-23.651-5.086-35.213-8.348c-5.731-1.618-9.065-7.573-7.447-13.304c1.617-5.735,7.57-9.071,13.306-7.45
						c10.979,3.097,22.229,5.765,33.438,7.926c5.848,1.125,9.674,6.783,8.546,12.63
						C1625.706,1326.979,1622.266,1330.247,1618.111,1331.09z M1937.425,1263.542c-4.087,0.829-8.464-0.766-11-4.408
						c-3.403-4.888-2.199-11.609,2.689-15.013c9.346-6.504,18.544-13.503,27.342-20.798c4.584-3.802,11.383-3.17,15.185,1.419
						c3.8,4.584,3.165,11.379-1.419,15.181c-9.261,7.682-18.946,15.05-28.786,21.9
						C1940.191,1262.688,1938.824,1263.258,1937.425,1263.542z M2006.989,1202.717c-3.267,0.663-6.796-0.194-9.441-2.618
						c-4.389-4.026-4.684-10.848-0.657-15.237c7.719-8.418,15.175-17.259,22.158-26.276c3.64-4.714,10.411-5.577,15.127-1.927
						c4.709,3.648,5.57,10.419,1.925,15.13c-7.349,9.49-15.194,18.793-23.319,27.65
						C2011.184,1201.182,2009.144,1202.28,2006.989,1202.717z M2061.638,1128.174c-2.485,0.504-5.155,0.14-7.526-1.228
						c-5.159-2.972-6.932-9.566-3.958-14.726c5.709-9.905,11.062-20.155,15.91-30.474c2.532-5.388,8.949-7.709,14.346-5.172
						c5.388,2.534,7.705,8.954,5.172,14.346c-5.103,10.856-10.736,21.649-16.742,32.07
						C2067.232,1125.779,2064.565,1127.58,2061.638,1128.174z M2098.727,1043.492c-1.722,0.349-3.551,0.282-5.347-0.277
						c-5.685-1.773-8.855-7.818-7.081-13.503c3.404-10.907,6.378-22.08,8.842-33.214c1.287-5.814,7.052-9.486,12.857-8.201
						c5.816,1.287,9.487,7.045,8.199,12.859c-2.595,11.727-5.728,23.495-9.31,34.976
						C2105.671,1040.024,2102.457,1042.735,2098.727,1043.492z M2116.327,952.7c-0.968,0.196-1.98,0.26-3.014,0.177
						c-5.935-0.476-10.362-5.676-9.884-11.61c0.912-11.36,1.351-22.908,1.302-34.331c-0.025-5.956,4.801-10.8,10.738-10.827
						c5.956-0.026,10.804,4.783,10.829,10.74c0.05,12.024-0.411,24.183-1.373,36.142
						C2124.532,947.892,2120.918,951.768,2116.327,952.7z M2113.554,860.321c-0.217,0.044-0.437,0.08-0.658,0.112
						c-5.897,0.827-11.349-3.284-12.175-9.181c-1.167-8.325-2.605-16.711-4.274-24.934c-0.604-2.976-1.242-5.941-1.907-8.888
						c-1.311-5.811,2.336-11.585,8.146-12.893c5.856-1.442,11.58,2.335,12.892,8.142c0.7,3.103,1.369,6.217,2.005,9.35
						c1.755,8.648,3.268,17.475,4.494,26.23C2122.874,853.933,2119.095,859.196,2113.554,860.321z"/>
					<path style="fill:#7D97F4;" d="M1529.58,1303.527c-2.101,0.426-4.347,0.234-6.458-0.688c-5.349-2.34-10.749-4.837-16.051-7.423
						c-5.354-2.61-7.578-9.065-4.968-14.418c2.612-5.353,9.06-7.581,14.418-4.968c5.037,2.455,10.167,4.827,15.245,7.05
						c5.454,2.383,7.944,8.742,5.557,14.199C1535.859,1300.624,1532.903,1302.853,1529.58,1303.527z"/>
				</g>
				<g>
					<path style="fill:#7D97F4;" d="M1518.964,1178.057c1.663,1.362,4.008,1.519,5.838,0.39l52.21-32.199
						c25.719,12.616,53.634,21.222,82.862,25.068l25.629,55.686c0.899,1.954,2.938,3.121,5.078,2.908l73.216-7.292
						c2.14-0.214,3.908-1.761,4.405-3.852l14.142-59.648c27.896-9.536,53.565-23.478,76.29-40.92l57.536,21.268
						c2.016,0.745,4.284,0.129,5.646-1.534l46.615-56.927c1.363-1.665,1.519-4.009,0.39-5.839l-32.198-52.21
						c12.616-25.718,21.222-53.635,25.068-82.863l55.688-25.63c1.953-0.899,3.121-2.937,2.908-5.077l-7.292-73.216
						c-0.213-2.139-1.76-3.909-3.853-4.404l-59.648-14.142c-9.535-27.896-23.477-53.566-40.919-76.29l21.269-57.537
						c0.745-2.016,0.129-4.284-1.534-5.646l-56.928-46.615c-1.664-1.363-4.008-1.519-5.838-0.391l-52.21,32.199
						c-25.718-12.617-53.634-21.223-82.862-25.068l-25.629-55.688c-0.899-1.953-2.937-3.121-5.077-2.908l-73.216,7.293
						c-2.14,0.212-3.908,1.76-4.404,3.852l-14.142,59.648c-27.896,9.534-53.566,23.478-76.29,40.919l-57.536-21.268
						c-2.017-0.747-4.285-0.129-5.647,1.534l-46.615,56.928c-1.362,1.663-1.519,4.008-0.391,5.838l32.198,52.21
						c-12.617,25.718-21.222,53.635-25.068,82.863l-55.688,25.629c-1.952,0.898-3.121,2.938-2.907,5.078l7.292,73.215
						c0.213,2.14,1.76,3.909,3.852,4.405l59.648,14.142c9.535,27.895,23.478,53.564,40.919,76.29l-21.267,57.536
						c-0.746,2.017-0.13,4.284,1.534,5.647L1518.964,1178.057z"/>
					<path style="fill:#91B3FA;" d="M1709.836,977.294c-35.332,7.17-71.622-12.478-84.224-47.374
						c-13.851-38.36,6.085-80.831,44.442-94.684c18.582-6.716,38.665-5.784,56.544,2.61c17.883,8.392,31.429,23.248,38.137,41.83
						c13.852,38.36-6.085,80.831-44.441,94.684C1716.835,975.608,1713.339,976.583,1709.836,977.294z M1684.01,849.192
						c-2.729,0.554-5.431,1.309-8.099,2.271c-29.408,10.619-44.693,43.188-34.075,72.594c10.621,29.409,43.183,44.709,72.596,34.076
						c29.408-10.618,44.693-43.188,34.075-72.594c-5.146-14.249-15.529-25.637-29.241-32.074
						C1708.122,848.236,1695.86,846.787,1684.01,849.192z"/>
					<path style="fill:#91B3FA;" d="M1732.563,1081.681c-6.068,1.231-12.233,2.165-18.479,2.788l0,0
						c-1.965,0.197-3.935,0.36-5.907,0.494c-9.721,0.653-19.478,0.532-29.122-0.361c-0.131-0.012-0.263-0.024-0.394-0.036
						c-0.373-0.036-0.745-0.072-1.119-0.113c-0.726-0.072-1.451-0.153-2.175-0.233c-1.905-0.215-3.378-1.64-3.742-3.423
						c-0.088-0.433-0.109-0.889-0.057-1.351c0.268-2.367,2.408-4.06,4.772-3.797c12.18,1.384,24.59,1.462,36.886,0.234
						c61.083-6.074,111.658-43.364,137.497-94.459c14.376-28.418,21.095-61.11,17.71-95.083c-0.592-5.958-1.481-11.841-2.658-17.629
						c-7.909-38.951-28.8-73.708-59.968-99.227c-35.799-29.316-80.874-42.935-126.915-38.349
						c-95.088,9.48-164.674,94.499-155.207,189.542c0.583,5.86,1.462,11.669,2.627,17.403c5.047,24.846,15.474,48.312,30.616,68.677
						c0.391,0.527,0.645,1.111,0.765,1.714c0.322,1.585-0.267,3.29-1.653,4.32c-1.917,1.416-4.613,1.031-6.036-0.889
						c-15.897-21.38-26.847-46.017-32.145-72.101c-1.223-6.018-2.145-12.115-2.759-18.265
						c-9.94-99.787,63.185-189.049,162.936-198.986c48.337-4.815,95.653,9.484,133.236,40.26
						c32.721,26.79,54.651,63.279,62.957,104.17c1.233,6.076,2.166,12.253,2.791,18.504c4.813,48.339-9.483,95.657-40.257,133.24
						C1809.966,1051.45,1773.464,1073.381,1732.563,1081.681z"/>
				</g>
			</g>
			<g>
				<g style="opacity:0.3;">
					<path style="fill:#7D97F4;" d="M993.074,1396.797c-2.824,0.573-5.799-0.741-7.212-3.421c-2.64-5-5.165-10.148-7.502-15.302
						c-1.519-3.349-0.036-7.293,3.315-8.816c3.349-1.535,7.297-0.034,8.816,3.315c2.227,4.911,4.633,9.818,7.152,14.59
						c1.717,3.249,0.471,7.277-2.78,8.999C994.284,1396.465,993.683,1396.673,993.074,1396.797z"/>
					<path style="fill:#7D97F4;" d="M973.415,1349.485c-3.308,0.671-6.653-1.258-7.675-4.548c-2.896-9.295-5.345-18.846-7.28-28.381
						c-0.407-2.008-0.793-4.027-1.162-6.056c-0.652-3.624,1.969-6.99,5.367-7.746c3.62-0.655,7.084,1.748,7.742,5.364
						c0.351,1.94,0.719,3.87,1.108,5.788c1.846,9.096,4.182,18.205,6.94,27.069c1.095,3.514-0.866,7.244-4.376,8.341
						C973.855,1349.382,973.635,1349.441,973.415,1349.485z M961.098,1281.437c-0.309,0.063-0.628,0.108-0.949,0.127
						c-3.674,0.208-6.822-2.598-7.034-6.271c-0.679-11.782-0.631-23.712,0.143-35.45c0.24-3.672,3.431-6.444,7.083-6.209
						c3.673,0.243,6.449,3.41,6.209,7.082c-0.737,11.2-0.781,22.578-0.136,33.815
						C966.604,1277.878,964.292,1280.789,961.098,1281.437z M965.651,1212.435c-0.828,0.168-1.702,0.179-2.583,0.013
						c-3.612-0.694-5.974-4.19-5.28-7.802c2.231-11.57,5.207-23.131,8.857-34.35c1.138-3.503,4.885-5.411,8.394-4.272
						c3.496,1.136,5.41,4.895,4.274,8.391c-3.479,10.701-6.321,21.718-8.445,32.754
						C970.342,1209.896,968.216,1211.914,965.651,1212.435z M987.029,1146.66c-1.352,0.274-2.797,0.13-4.142-0.494
						c-3.33-1.561-4.769-5.529-3.209-8.859c5.008-10.692,10.721-21.163,16.987-31.129c1.96-3.112,6.076-4.041,9.183-2.089
						c3.115,1.956,4.051,6.066,2.093,9.185c-5.974,9.495-11.426,19.488-16.199,29.682
						C990.812,1144.944,989.027,1146.255,987.029,1146.66z M1023.822,1088.104c-1.887,0.383-3.927-0.053-5.537-1.365
						c-2.85-2.322-3.276-6.516-0.956-9.369c7.451-9.138,15.533-17.906,24.027-26.054c2.654-2.556,6.87-2.463,9.417,0.193
						c2.547,2.655,2.46,6.874-0.193,9.416c-8.104,7.777-15.815,16.138-22.921,24.861
						C1026.646,1087.027,1025.278,1087.808,1023.822,1088.104z M1073.706,1040.258c-2.444,0.496-5.071-0.412-6.665-2.543
						c-2.2-2.945-1.593-7.116,1.351-9.32c9.446-7.054,19.423-13.585,29.65-19.404c3.212-1.813,7.265-0.698,9.085,2.497
						c1.819,3.195,0.701,7.264-2.494,9.081c-9.755,5.55-19.262,11.773-28.268,18.499
						C1075.549,1039.678,1074.64,1040.069,1073.706,1040.258z M1133.758,1006.07c-3.059,0.621-6.229-0.985-7.469-3.973
						c-1.41-3.397,0.202-7.295,3.598-8.707c10.853-4.506,22.131-8.387,33.522-11.542c3.569-0.923,7.219,1.104,8.197,4.648
						c0.982,3.544-1.098,7.212-4.641,8.196c-10.869,3.002-21.625,6.705-31.973,11.002
						C1134.585,1005.863,1134.172,1005.986,1133.758,1006.07z M1234.929,984.676c-0.376,0.076-0.768,0.123-1.168,0.131
						c-9.707,0.238-19.572,1.012-29.322,2.3c-1.478,0.187-2.927,0.388-4.37,0.608c-3.641,0.54-7.029-1.965-7.572-5.604
						c-0.55-3.645,1.966-7.142,5.601-7.574c1.54-0.226,3.078-0.445,4.628-0.641c10.187-1.344,20.528-2.155,30.708-2.402
						c3.679-0.089,6.73,2.816,6.82,6.494C1240.336,981.262,1238.037,984.045,1234.929,984.676z"/>
				</g>
				<g style="opacity:0.3;">
					<path style="fill:#7D97F4;" d="M1301.365,1540.188c-3.563,0.723-7.058-1.554-7.832-5.12c-0.779-3.592,1.504-7.141,5.1-7.917
						c10.823-2.343,21.595-5.365,32.017-8.986c3.464-1.168,7.272,0.628,8.479,4.106c1.207,3.478-0.635,7.27-4.106,8.479
						c-10.931,3.791-22.223,6.965-33.568,9.421C1301.426,1540.175,1301.394,1540.182,1301.365,1540.188z M1267.69,1545.382
						c-0.236,0.048-0.471,0.082-0.715,0.105c-11.544,1.082-23.272,1.471-34.856,1.161c-3.678-0.103-6.577-3.158-6.477-6.835
						c0.095-3.683,3.179-6.572,6.834-6.484c11.054,0.298,22.244-0.074,33.261-1.103c3.66-0.345,6.908,2.348,7.249,6.008
						C1273.306,1541.661,1270.979,1544.715,1267.69,1545.382z M1365.6,1517.86c-2.894,0.587-5.932-0.814-7.299-3.589
						c-1.621-3.294-0.264-7.286,3.036-8.912c9.94-4.897,19.664-10.434,28.905-16.472c3.094-2.001,7.207-1.144,9.217,1.939
						c2.011,3.076,1.145,7.207-1.935,9.219c-9.687,6.326-19.884,12.132-30.304,17.26
						C1366.692,1517.566,1366.148,1517.749,1365.6,1517.86z M1199.672,1543.51c-0.742,0.151-1.523,0.177-2.317,0.059
						c-11.473-1.727-22.956-4.182-34.124-7.297c-3.545-0.986-5.615-4.661-4.628-8.206c0.989-3.532,4.663-5.605,8.203-4.625
						c10.65,2.968,21.595,5.307,32.534,6.956c3.636,0.549,6.143,3.943,5.593,7.579
						C1204.505,1540.817,1202.337,1542.969,1199.672,1543.51z M1422.528,1480.669c-2.311,0.469-4.801-0.306-6.423-2.234
						c-2.374-2.816-2.012-7.018,0.799-9.387c8.454-7.118,16.559-14.829,24.09-22.927c2.508-2.699,6.723-2.844,9.415-0.338
						c2.692,2.506,2.845,6.723,0.338,9.415c-7.901,8.486-16.397,16.574-25.259,24.041
						C1424.605,1479.983,1423.583,1480.455,1422.528,1480.669z M1468.874,1430.907c-1.769,0.359-3.673,0.002-5.245-1.139
						c-2.975-2.164-3.634-6.33-1.47-9.304c6.516-8.962,12.547-18.395,17.921-28.034c1.793-3.218,5.853-4.367,9.061-2.576
						c3.214,1.79,4.364,5.844,2.574,9.054c-5.634,10.109-11.953,19.999-18.781,29.389
						C1471.914,1429.698,1470.448,1430.587,1468.874,1430.907z M1501.967,1371.469c-1.243,0.252-2.57,0.156-3.833-0.363
						c-3.407-1.386-5.043-5.275-3.654-8.682c4.188-10.254,7.776-20.858,10.668-31.513c0.967-3.541,4.625-5.644,8.173-4.678
						c3.55,0.965,5.646,4.621,4.682,8.175c-3.036,11.169-6.798,22.292-11.185,33.051
						C1505.941,1369.6,1504.077,1371.04,1501.967,1371.469z"/>
					<path style="fill:#7D97F4;" d="M1133.839,1525.141c-1.259,0.255-2.604,0.15-3.88-0.381c-5.263-2.191-10.483-4.549-15.521-7.004
						c-3.304-1.613-4.681-5.601-3.069-8.908c1.618-3.295,5.599-4.673,8.908-3.068c4.803,2.344,9.785,4.591,14.806,6.685
						c3.396,1.414,5.001,5.316,3.586,8.709C1137.784,1523.292,1135.933,1524.716,1133.839,1525.141z"/>
				</g>
				<g>
					<path style="fill:#7D97F4;" d="M1122.153,1439.719c1.113,0.911,2.682,1.017,3.906,0.261l34.937-21.546
						c17.209,8.442,35.889,14.201,55.448,16.774l17.15,37.263c0.601,1.307,1.966,2.088,3.397,1.946l48.993-4.879
						c1.432-0.143,2.615-1.178,2.948-2.578l9.463-39.914c18.667-6.381,35.844-15.71,51.05-27.381l38.5,14.232
						c1.349,0.498,2.867,0.086,3.779-1.027l31.192-38.093c0.911-1.114,1.017-2.683,0.261-3.907l-21.546-34.937
						c8.443-17.209,14.201-35.89,16.774-55.448l37.263-17.149c1.307-0.602,2.088-1.966,1.946-3.397l-4.88-48.993
						c-0.142-1.432-1.178-2.616-2.578-2.947l-39.914-9.463c-6.38-18.667-15.71-35.844-27.381-51.049l14.232-38.502
						c0.498-1.349,0.086-2.866-1.026-3.777l-38.094-31.193c-1.113-0.912-2.682-1.016-3.906-0.261l-34.937,21.547
						c-17.209-8.443-35.889-14.201-55.448-16.775l-17.15-37.264c-0.602-1.306-1.965-2.089-3.397-1.946l-48.993,4.88
						c-1.432,0.142-2.615,1.178-2.947,2.578l-9.463,39.914c-18.667,6.38-35.844,15.71-51.051,27.381l-38.5-14.231
						c-1.35-0.5-2.868-0.087-3.779,1.026l-31.192,38.093c-0.911,1.113-1.017,2.682-0.261,3.907l21.545,34.937
						c-8.443,17.209-14.2,35.89-16.774,55.448l-37.264,17.149c-1.306,0.601-2.088,1.966-1.945,3.398l4.879,48.992
						c0.143,1.432,1.178,2.615,2.578,2.948l39.914,9.463c6.381,18.666,15.71,35.843,27.38,51.05l-14.231,38.501
						c-0.499,1.35-0.086,2.866,1.026,3.779L1122.153,1439.719z"/>
					<path style="fill:#91B3FA;" d="M1249.98,1306.267c-10.53,2.137-21.423,0.85-31.325-3.797
						c-12.181-5.718-21.406-15.839-25.975-28.496c-9.435-26.119,4.142-55.049,30.269-64.492
						c26.179-9.401,55.064,4.149,64.497,30.274c4.573,12.658,3.941,26.338-1.778,38.515c-5.716,12.184-15.837,21.411-28.498,25.979
						C1254.805,1305.102,1252.4,1305.776,1249.98,1306.267z M1232.713,1220.541c-1.756,0.356-3.505,0.845-5.241,1.469
						c-19.217,6.946-29.204,28.225-22.264,47.444c3.362,9.306,10.147,16.756,19.106,20.957c8.964,4.207,19.021,4.661,28.336,1.311
						l0,0c9.309-3.363,16.755-10.15,20.96-19.107c4.207-8.964,4.671-19.026,1.307-28.339
						C1268.605,1226.796,1250.417,1216.948,1232.713,1220.541z"/>
					<path style="fill:#91B3FA;" d="M1265.706,1378.946c-4.13,0.838-8.336,1.472-12.615,1.903
						c-8.499,0.849-17.092,0.834-25.564-0.048c-0.38-0.042-0.761-0.085-1.141-0.127c-2.941-0.332-5.216-2.532-5.778-5.285
						c-0.136-0.669-0.169-1.372-0.088-2.085c0.414-3.655,3.72-6.264,7.368-5.863c7.901,0.899,15.934,0.947,23.877,0.152l0.003-0.001
						c0.436-0.042,0.874-0.092,1.306-0.139c18.78-2.052,36.337-8.708,51.451-19.208c8.204-5.7,15.689-12.542,22.252-20.411
						c0.054-0.064,0.107-0.128,0.16-0.192c0.162-0.199,0.326-0.392,0.484-0.59c18.975-23.177,27.794-52.356,24.824-82.162
						c-0.381-3.858-0.958-7.664-1.719-11.412c-5.121-25.215-18.647-47.716-38.824-64.241
						c-23.177-18.976-52.355-27.788-82.159-24.819c-29.785,2.978-56.673,17.368-75.654,40.54
						c-18.976,23.177-27.794,52.356-24.825,82.162c0.375,3.793,0.946,7.553,1.699,11.263c3.268,16.088,10.017,31.277,19.82,44.459
						c0.603,0.813,0.996,1.716,1.182,2.647c0.497,2.448-0.412,5.081-2.552,6.67c-2.958,2.186-7.122,1.585-9.322-1.374
						c-10.967-14.75-18.521-31.747-22.18-49.74c-0.844-4.156-1.481-8.36-1.904-12.602c-3.321-33.352,6.543-65.995,27.777-91.927
						c21.232-25.925,51.268-42.055,84.635-45.355c33.348-3.324,65.991,6.537,91.92,27.775
						c22.575,18.481,37.706,43.656,43.434,71.867c0.85,4.188,1.496,8.45,1.926,12.763
						C1371.929,1308.131,1327.975,1366.309,1265.706,1378.946z"/>
				</g>
			</g>
		</g>
		<g>
			<path style="fill:#FFFFFF;" d="M1159.073,2387.027c0,0-1.206-5.337-3.1-15.225c-1.075-5.617,2.603-11.038,8.212-12.113
				c2.484-0.475,4.905-0.02,6.944,1.098c2.386-3.927,5.137-8.353,8.235-13.16c3.097-4.798,9.501-6.163,14.306-3.084
				c4.803,3.098,6.182,9.5,3.083,14.306c-8.729,13.53-14.403,23.615-17.129,28.452c-0.788,1.39-1.327,2.347-1.622,2.826
				l-13.291,21.789L1159.073,2387.027z M1147.392,2320.232c-2.455-16.953-4.642-34.37-6.5-51.773
				c-0.608-5.674,3.507-10.78,9.19-11.386c5.673-0.577,10.78,3.501,11.391,9.195c1.833,17.133,3.988,34.302,6.4,51.004
				c0.819,5.652-3.105,10.907-8.761,11.72c-0.982,0.141-1.952,0.141-2.893,0.01
				C1151.763,2328.391,1148.065,2324.904,1147.392,2320.232z M1211.713,2319.165c-4.494-3.524-5.277-10.037-1.746-14.53
				c11.141-14.19,22.802-27.612,34.652-39.876c3.966-4.117,10.517-4.238,14.633-0.265c4.11,3.971,4.225,10.526,0.254,14.631
				c-11.365,11.77-22.553,24.648-33.262,38.292c-2.356,3.001-6.034,4.343-9.558,3.859
				C1214.929,2321.035,1213.21,2320.34,1211.713,2319.165z M1282.132,2243.453c-3.587-4.451-2.885-10.965,1.567-14.555
				c14.314-11.529,29.083-21.699,43.896-30.241c4.943-2.86,11.279-1.163,14.135,3.798c2.854,4.953,1.154,11.277-3.797,14.126
				c-13.891,8.006-27.768,17.574-41.251,28.442c-2.311,1.856-5.177,2.563-7.9,2.189
				C1286.258,2246.865,1283.851,2245.597,1282.132,2243.453z M1136.277,2216.526c-1.238-17.46-2.155-34.99-2.724-52.082
				c-0.193-5.708,4.284-10.499,9.991-10.685c5.758-0.177,10.504,4.281,10.689,9.997c0.567,16.838,1.47,34.099,2.687,51.301
				c0.404,5.706-3.892,10.655-9.593,11.056c-0.732,0.052-1.447,0.023-2.147-0.071
				C1140.435,2225.391,1136.63,2221.49,1136.277,2216.526z M1369.913,2189.435c-1.862-5.406,1.002-11.296,6.403-13.156
				c12.246-4.234,24.742-7.504,37.145-9.727c4.905-0.878,9.641-1.819,14.229-2.819c5.565-1.194,11.095,2.33,12.312,7.913
				c1.216,5.584-2.325,11.096-7.909,12.317c-4.832,1.05-9.829,2.036-14.984,2.96c-11.345,2.03-22.8,5.036-34.034,8.909
				c-1.59,0.556-3.22,0.689-4.778,0.477C1374.553,2195.796,1371.23,2193.248,1369.913,2189.435z M1572.984,2198.651
				c0.098-4.199,2.684-7.76,6.315-9.291c4.659-8.225,11.533-15.634,21.097-22.918c4.54-3.457,11.031-2.585,14.502,1.951
				c3.461,4.547,2.582,11.044-1.962,14.501c-11.595,8.842-17.489,17.111-19.713,27.649l-20.471-2.415L1572.984,2198.651z
				 M1469.745,2162.903c-2.111-5.31,0.475-11.329,5.784-13.446c16.435-6.544,30.848-14.417,42.84-23.399
				c4.568-3.42,11.059-2.479,14.482,2.082c3.425,4.581,2.494,11.064-2.082,14.495c-13.446,10.067-29.458,18.832-47.581,26.052
				c-1.72,0.682-3.516,0.873-5.228,0.639C1474.387,2168.833,1471.175,2166.486,1469.745,2162.903z M1132.791,2112.277
				c0.084-17.462,0.539-35.016,1.333-52.165c0.268-5.706,5.109-10.122,10.82-9.857c5.745,0.249,10.12,5.115,9.858,10.821
				c-0.789,16.865-1.233,34.125-1.319,51.31c-0.025,5.71-4.682,10.323-10.395,10.294c-0.469-0.004-0.923-0.036-1.375-0.098
				C1136.653,2121.886,1132.764,2117.527,1132.791,2112.277z M1573.789,2146.904c0.159-19.972,0.107-37.33-0.162-51.596
				c-0.106-5.718,4.435-10.438,10.152-10.55c5.663-0.016,10.433,4.433,10.539,10.151c0.273,14.459,0.33,32.002,0.167,52.167
				c-0.046,5.716-4.718,10.307-10.434,10.265c-0.453-0.012-0.897-0.042-1.338-0.101
				C1577.637,2156.542,1573.745,2152.17,1573.789,2146.904z M1641.755,2152.845c-2.854-4.952-1.158-11.277,3.79-14.136
				c13.122-7.583,27.43-16.091,43.128-26.95c4.705-3.251,11.151-2.069,14.399,2.62c3.251,4.701,2.08,11.149-2.621,14.4
				c-16.306,11.286-31.051,20.052-44.557,27.856c-2.068,1.194-4.381,1.591-6.58,1.289
				C1646.262,2157.504,1643.42,2155.725,1641.755,2152.845z M1553.95,2105.363c-4.913-2.919-6.53-9.261-3.611-14.174
				c8.486-14.288,11.843-27.435,14.065-36.136c0.938-3.676,1.734-6.646,2.535-8.771c0.434-1.144,0.867-2.104,1.276-2.894
				c2.647-5.053,8.771-6.711,13.838-4.055c5.064,2.642,6.895,9.21,4.24,14.27c-0.595,1.582-1.132,3.824-1.836,6.573
				c-2.362,9.253-6.316,24.735-16.321,41.579c-2.191,3.688-6.312,5.518-10.312,4.969
				C1556.497,2106.541,1555.177,2106.094,1553.95,2105.363z M1137.746,2007.994c1.442-15.531,3.218-31.026,5.28-46.034l0.824-5.874
				c0.805-5.643,6.016-9.568,11.668-8.792l0.04,0.006c5.657,0.808,9.589,6.051,8.781,11.703l-0.809,5.774
				c-2.02,14.706-3.759,29.892-5.176,45.129c-0.527,5.693-5.568,9.875-11.259,9.348c-0.157-0.011-0.309-0.032-0.463-0.054
				C1141.18,2018.453,1137.23,2013.534,1137.746,2007.994z M1727.565,2095.365c-3.749-4.31-3.294-10.847,1.015-14.601
				c12.398-10.782,24.637-22.616,36.39-35.179c3.898-4.167,10.443-4.4,14.624-0.49c4.177,3.898,4.394,10.448,0.49,14.624
				c-12.231,13.079-24.989,25.412-37.919,36.662c-2.347,2.044-5.348,2.835-8.205,2.442
				C1731.567,2098.496,1729.279,2097.334,1727.565,2095.365z M1799.718,2021.501c-4.505-3.516-5.304-10.021-1.787-14.525
				c2.227-2.846,4.46-5.743,6.695-8.709c7.976-10.543,15.359-21.545,21.94-32.708c2.91-4.914,9.28-6.579,14.17-3.644
				c4.921,2.901,6.558,9.246,3.654,14.172c-6.982,11.833-14.806,23.498-23.252,34.66c-2.306,3.049-4.603,6.036-6.894,8.976
				c-2.357,3.012-6.042,4.362-9.575,3.877C1802.921,2023.36,1801.211,2022.666,1799.718,2021.501z M1160.799,1916.716
				c-5.603-1.126-9.233-6.583-8.108-12.181c3.483-17.361,7.479-34.522,11.865-51.014c1.469-5.531,7.231-8.932,12.658-7.34
				c5.526,1.464,8.813,7.137,7.338,12.658c-4.274,16.081-8.172,32.823-11.571,49.77c-1.083,5.39-6.167,8.954-11.544,8.215
				C1161.228,1916.794,1161.013,1916.756,1160.799,1916.716z M1854.472,1934.06c-5.303-2.126-7.87-8.15-5.744-13.459
				c6.198-15.417,11.279-31.499,15.1-47.794c1.304-5.554,6.905-9.16,12.438-7.706c5.562,1.304,9.017,6.869,7.712,12.432
				c-4.062,17.313-9.459,34.392-16.042,50.788c-1.806,4.494-6.412,7.023-11.002,6.394
				C1856.108,1934.602,1855.281,1934.385,1854.472,1934.06z M1186.21,1816.459c-5.406-1.856-8.29-7.738-6.44-13.147
				c5.736-16.766,12.092-33.256,18.883-49.02c2.268-5.247,8.346-7.656,13.601-5.404c5.249,2.262,7.671,8.358,5.408,13.607
				c-6.584,15.263-12.745,31.257-18.311,47.528c-1.628,4.754-6.385,7.557-11.189,6.897
				C1187.51,1816.832,1186.858,1816.68,1186.21,1816.459z M1871.671,1823.229c1.403-16.527,1.657-33.435,0.746-50.269
				c-0.307-5.703,4.07-10.58,9.773-10.887c5.735-0.303,10.581,4.065,10.895,9.769c0.962,17.79,0.693,35.666-0.795,53.138
				c-0.481,5.697-5.493,9.916-11.185,9.438c-0.182-0.013-0.362-0.038-0.543-0.064
				C1875.146,1833.61,1871.198,1828.742,1871.671,1823.229z M1225.739,1720.946c-5.037-2.702-6.917-8.978-4.211-14.012
				c8.403-15.605,17.522-30.796,27.111-45.156c3.174-4.767,9.62-6.022,14.352-2.863c4.751,3.172,6.031,9.6,2.859,14.346
				c-9.223,13.82-18.006,28.455-26.095,43.48c-2.108,3.914-6.367,5.919-10.521,5.348
				C1228.042,1721.925,1226.86,1721.548,1225.739,1720.946z M1866.28,1723.053c-4.829-24.798-10.861-41.143-12.801-44.999
				l-13.217-18.697c-3.295-4.667-2.19-11.124,2.477-14.421c4.655-3.297,11.117-2.185,14.424,2.482l12.909,18.258l-0.151,0.104
				c8.596,12.266,16.584,52.861,16.67,53.313c1.096,5.609-2.568,11.04-8.175,12.138c-1.154,0.227-2.293,0.245-3.39,0.094
				C1870.763,1730.737,1867.147,1727.508,1866.28,1723.053z M1281.5,1634.008c-4.404-3.644-5.018-10.165-1.373-14.57
				c11.267-13.599,23.313-26.653,35.81-38.8c4.102-3.976,10.661-3.869,14.634,0.216c3.981,4.097,3.886,10.652-0.212,14.641
				c-11.959,11.615-23.5,24.107-34.288,37.149c-2.371,2.858-5.963,4.118-9.392,3.647
				C1284.838,1636.037,1283.04,1635.281,1281.5,1634.008z M1353.957,1560.495c-3.505-4.511-2.693-11.021,1.823-14.52
				c13.763-10.707,28.362-20.818,43.388-30.077c4.861-3.004,11.241-1.474,14.238,3.384c2.996,4.869,1.48,11.251-3.389,14.243
				c-14.386,8.857-28.365,18.545-41.537,28.782c-2.292,1.784-5.096,2.449-7.759,2.085
				C1358.138,1564.037,1355.688,1562.711,1353.957,1560.495z M1810.385,1617.121l-29.871-42.244
				c-3.297-4.665-2.189-11.123,2.478-14.43c4.655-3.297,11.112-2.186,14.424,2.472l29.872,42.243
				c3.297,4.667,2.19,11.124-2.478,14.431c-2.233,1.58-4.87,2.145-7.382,1.8C1814.691,1621.017,1812.112,1619.552,1810.385,1617.121
				z M1440.629,1504.468c-2.475-5.155-0.305-11.333,4.844-13.808c15.475-7.432,31.805-14.319,48.523-20.446
				c5.383-1.985,11.32,0.77,13.282,6.149c1.968,5.361-0.783,11.307-6.147,13.272c-16.102,5.908-31.815,12.531-46.693,19.677
				c-1.9,0.911-3.939,1.193-5.882,0.927C1445.234,1509.782,1442.19,1507.723,1440.629,1504.468z M1750.638,1532.632l-29.872-42.245
				c-3.295-4.665-2.189-11.121,2.477-14.429c4.661-3.297,11.113-2.187,14.426,2.472l29.871,42.244
				c3.298,4.666,2.19,11.122-2.477,14.429c-2.232,1.581-4.87,2.145-7.381,1.801
				C1754.942,1536.529,1752.365,1535.063,1750.638,1532.632z M1536.836,1467.043c-1.485-5.519,1.788-11.199,7.305-12.675
				c16.472-4.429,33.692-8.335,51.185-11.604c5.612-1.024,11.024,2.656,12.067,8.279c1.05,5.61-2.651,11.019-8.274,12.071
				c-16.959,3.168-33.651,6.944-49.601,11.23c-1.378,0.371-2.765,0.447-4.091,0.264
				C1541.427,1474.06,1537.949,1471.184,1536.836,1467.043z M1638.059,1446.494c-0.649-5.679,3.428-10.81,9.108-11.459
				c16.508-1.884,33.633-3.315,50.901-4.235l5.701-0.298l4.028,5.695c3.297,4.665,2.185,11.123-2.486,14.418
				c-3.041,2.153-6.827,2.438-10.028,1.07c-15.53,0.896-30.909,2.21-45.771,3.911c-0.881,0.103-1.746,0.087-2.586-0.03
				C1642.35,1454.938,1638.609,1451.284,1638.059,1446.494z"/>
			
				<linearGradient id="SVGID_00000140725043540108122210000009497123977364242095_" gradientUnits="userSpaceOnUse" x1="966.0616" y1="-7753.5059" x2="727.107" y2="-7149.4824" gradientTransform="matrix(0.0711 -0.9974 -0.9974 -0.0711 6346.1162 -1792.9541)">
				<stop  offset="0" style="stop-color:#FF928E"/>
				<stop  offset="1" style="stop-color:#FE7062"/>
			</linearGradient>
			<path style="fill:url(#SVGID_00000140725043540108122210000009497123977364242095_);" d="M1785.39,1585.737
				c0,0,63.339,220.357-93.407,284.301c-156.746,63.945-330.763,89.556-362.01,162.845c0,0-39.785-446.573,401.733-507.649
				L1785.39,1585.737z"/>
			
				<linearGradient id="SVGID_00000086679805804113697990000006663474205515408572_" gradientUnits="userSpaceOnUse" x1="2629.917" y1="1251.2393" x2="3301.9368" y2="599.1306">
				<stop  offset="0" style="stop-color:#4F52FF"/>
				<stop  offset="1" style="stop-color:#4042E2"/>
			</linearGradient>
			<path style="fill:url(#SVGID_00000086679805804113697990000006663474205515408572_);" d="M2255.993,1477.725
				c0,0,134.008,180.871,101.584,249.937c-30.838,65.695-430.346,382.143-469.258,412.869c-1.751,1.381-4.211,1.14-5.725-0.497l0,0
				c-12.526-13.536-17.842-32.175-14.302-50.275c17.1-87.417,70.386-347.994,111.769-421.616
				C2030.034,1579.235,2255.993,1477.725,2255.993,1477.725z"/>
			<path style="fill:#91B3FA;" d="M2010.884,2004.575c1.376,0.189,2.824-0.173,3.985-1.123
				c2.173-1.784,217.968-178.876,307.892-258.721c16.015-14.212,22.148-36.545,15.636-56.883
				c-10.272-32.075-32.342-94.238-64.742-150.143c-1.432-2.461-4.588-3.323-7.072-1.878c-2.472,1.434-3.315,4.604-1.884,7.075
				c31.915,55.06,53.698,116.421,63.838,148.099c5.269,16.443,0.306,34.49-12.65,45.991
				c-89.771,79.713-305.414,256.683-307.58,258.456c-2.212,1.809-2.532,5.07-0.72,7.288
				C2008.448,2003.781,2009.638,2004.404,2010.884,2004.575z"/>
			
				<linearGradient id="SVGID_00000101097882872004582670000002433760300416158103_" gradientUnits="userSpaceOnUse" x1="2121.3452" y1="727.1395" x2="2793.364" y2="75.0318">
				<stop  offset="0" style="stop-color:#4F52FF"/>
				<stop  offset="1" style="stop-color:#4042E2"/>
			</linearGradient>
			<path style="fill:url(#SVGID_00000101097882872004582670000002433760300416158103_);" d="M1900.795,1093.896
				c0,0-169.962-147.598-241.328-120.617c-67.884,25.665-414.293,399.491-447.937,435.91c-1.513,1.638-1.463,4.109,0.053,5.748l0,0
				c12.525,13.535,30.698,20.276,49.017,18.146c88.479-10.282,352.397-43.251,429.001-78.815
				C1782.107,1311.324,1900.795,1093.896,1900.795,1093.896z"/>
			<path style="fill:#91B3FA;" d="M1361.013,1302.331c1.587,0.217,3.248-0.298,4.444-1.542
				c1.943-2.028,195.061-203.332,281.484-286.667c12.47-12.026,30.849-15.57,46.832-9.058
				c30.802,12.566,90.307,39.041,142.716,75.11c2.339,1.647,5.575,1.031,7.195-1.327c1.618-2.348,1.026-5.57-1.333-7.192
				c-50.542-34.792-106.567-60.627-144.671-76.176c-19.774-8.06-42.506-3.677-57.921,11.188
				c-86.573,83.479-279.828,284.936-281.772,286.954c-1.977,2.064-1.907,5.339,0.152,7.314
				C1358.959,1301.721,1359.971,1302.187,1361.013,1302.331z"/>
			
				<linearGradient id="SVGID_00000033336653886447973200000006851994334840365712_" gradientUnits="userSpaceOnUse" x1="2925.5208" y1="369.1559" x2="2024.5153" y2="1399.5885">
				<stop  offset="0" style="stop-color:#4F52FF"/>
				<stop  offset="1" style="stop-color:#4042E2"/>
			</linearGradient>
			<path style="fill:url(#SVGID_00000033336653886447973200000006851994334840365712_);" d="M2808.925,962.077
				c-53.312,95.587-125.632,194.453-223.797,285.825c-304.772,283.683-577.848,439.478-656.676,481.7
				c-14.256,7.636-31.49,6.668-45.031-2.18c-106.707-69.729-191.44-159.964-254.33-270.584
				c-11.831-20.809-10.879-46.569,2.188-66.628c56.7-87.04,230.908-336.923,524.115-606.68
				c97.942-90.112,201.276-154.284,300.017-199.978C2637.904,695.839,2750.569,863.46,2808.925,962.077z"/>
			
				<linearGradient id="SVGID_00000150787867863951297990000008720778686418602671_" gradientUnits="userSpaceOnUse" x1="3538.1875" y1="-9677.6777" x2="3299.2334" y2="-9073.6563" gradientTransform="matrix(-0.6791 -0.734 -0.734 0.6791 4095.6631 -2897.4504)">
				<stop  offset="0" style="stop-color:#FF928E"/>
				<stop  offset="1" style="stop-color:#FE7062"/>
			</linearGradient>
			<path style="fill:url(#SVGID_00000150787867863951297990000008720778686418602671_);" d="M2455.412,583.551
				c218.11-100.928,413.79-111.628,479.348-112.091c12.813-0.093,22.883,10.787,21.801,23.556
				c-5.518,65.098-31.173,258.249-147.635,467.061C2750.569,863.46,2637.904,695.839,2455.412,583.551z"/>
			<g>
				
					<linearGradient id="SVGID_00000154384792743143527420000012482332839139870091_" gradientUnits="userSpaceOnUse" x1="10072.8252" y1="-16442.4258" x2="9833.8828" y2="-15838.4316" gradientTransform="matrix(-0.9907 -0.1361 -0.1361 0.9907 4349.4189 -4952.3848)">
					<stop  offset="0" style="stop-color:#FF928E"/>
					<stop  offset="1" style="stop-color:#FE7062"/>
				</linearGradient>
				<path style="fill:url(#SVGID_00000154384792743143527420000012482332839139870091_);" d="M2248.272,843.576
					c-79.154,73.251-79.591,201.502-0.971,286.458c78.617,84.955,206.518,94.442,285.672,21.191
					c79.154-73.25,79.59-201.501,0.972-286.456S2327.428,770.326,2248.272,843.576z"/>
				
					<linearGradient id="SVGID_00000160875994327867413460000001394674120900583097_" gradientUnits="userSpaceOnUse" x1="-1862.1836" y1="3891.2925" x2="-1528.1733" y2="3891.2925" gradientTransform="matrix(-0.6791 -0.734 -0.734 0.6791 4095.6631 -2897.4504)">
					<stop  offset="0" style="stop-color:#09005D"/>
					<stop  offset="1" style="stop-color:#1A0F91"/>
				</linearGradient>
				<path style="fill:url(#SVGID_00000160875994327867413460000001394674120900583097_);" d="M2277.224,866.817
					c-63.074,58.367-63.421,160.56-0.777,228.253c62.644,67.693,164.557,75.253,227.63,16.885
					c63.071-58.366,63.417-160.558,0.775-228.252C2442.208,816.01,2340.295,808.451,2277.224,866.817z"/>
				<path style="fill:#91B3FA;" d="M2491.33,1055.573c2.012,0.276,4.087-0.653,5.177-2.524
					c27.801-47.772,19.887-110.665-19.243-152.958c-9.86-10.647-21.207-19.57-33.726-26.524c-2.49-1.403-5.644-0.489-7.035,2.013
					c-1.386,2.492-0.49,5.645,2.008,7.028c11.563,6.423,22.047,14.678,31.154,24.519c36.075,38.975,43.433,96.844,17.897,140.717
					c-1.437,2.475-0.602,5.64,1.869,7.071C2490.034,1055.272,2490.679,1055.483,2491.33,1055.573z"/>
			</g>
			<g>
				
					<linearGradient id="SVGID_00000119107093251856659330000009674003619088826248_" gradientUnits="userSpaceOnUse" x1="10391.9434" y1="-16316.2012" x2="10153" y2="-15712.208" gradientTransform="matrix(-0.9907 -0.1361 -0.1361 0.9907 4349.4189 -4952.3848)">
					<stop  offset="0" style="stop-color:#FF928E"/>
					<stop  offset="1" style="stop-color:#FE7062"/>
				</linearGradient>
				<path style="fill:url(#SVGID_00000119107093251856659330000009674003619088826248_);" d="M2008.545,1162.33
					c-52.293,48.391-52.581,133.118-0.644,189.242c51.939,56.125,136.435,62.393,188.729,14
					c52.292-48.391,52.579-133.118,0.641-189.243C2145.333,1120.206,2060.838,1113.939,2008.545,1162.33z"/>
				
					<linearGradient id="SVGID_00000129923263426352288540000003852339417029561774_" gradientUnits="userSpaceOnUse" x1="-1807.5398" y1="4285.6064" x2="-1586.8821" y2="4285.6064" gradientTransform="matrix(-0.6791 -0.734 -0.734 0.6791 4095.6631 -2897.4504)">
					<stop  offset="0" style="stop-color:#09005D"/>
					<stop  offset="1" style="stop-color:#1A0F91"/>
				</linearGradient>
				<path style="fill:url(#SVGID_00000129923263426352288540000003852339417029561774_);" d="M2027.672,1177.684
					c-41.667,38.559-41.897,106.07-0.513,150.792c41.386,44.72,108.713,49.715,150.379,11.155
					c41.668-38.56,41.898-106.071,0.512-150.791C2136.666,1144.118,2069.339,1139.123,2027.672,1177.684z"/>
				<path style="fill:#91B3FA;" d="M2168.875,1304.12c2.013,0.277,4.089-0.653,5.176-2.522
					c18.755-32.217,13.438-74.627-12.938-103.12c-6.635-7.175-14.28-13.193-22.725-17.871c-2.48-1.402-5.64-0.491-7.034,2.012
					c-1.384,2.501-0.486,5.644,2.018,7.028c7.478,4.149,14.252,9.487,20.145,15.856c23.314,25.195,28.08,62.563,11.59,90.888
					c-1.438,2.476-0.602,5.64,1.868,7.069C2167.58,1303.82,2168.225,1304.031,2168.875,1304.12z"/>
			</g>
		</g>
		<g>
			<path style="fill:#7D97F4;" d="M2706.622,3143.235c32.51,2.81,88.932,7.375,133.414,9.333
				c26.739,1.177,42.132-1.441,50.998-4.991c-0.015,1-0.043,1.944-0.083,2.821c-0.21,4.68-4.014,8.425-8.741,8.689
				c-84.049,4.691-150.893,1.623-174.69,0.175c-4.92-0.3-7.853-5.647-5.337-9.842
				C2703.442,3147.323,2704.967,3145.267,2706.622,3143.235z"/>
			
				<linearGradient id="SVGID_00000133491403591999032940000008705451235804466077_" gradientUnits="userSpaceOnUse" x1="-649.7269" y1="3115.2214" x2="-465.3045" y2="3115.2214" gradientTransform="matrix(-1 0 0 1 2241.3179 0)">
				<stop  offset="0" style="stop-color:#09005D"/>
				<stop  offset="1" style="stop-color:#1A0F91"/>
			</linearGradient>
			<path style="fill:url(#SVGID_00000133491403591999032940000008705451235804466077_);" d="M2840.036,3152.568
				c-44.481-1.958-100.904-6.522-133.414-9.333c31.963-39.215,133.414-65.646,133.414-65.646h28.653
				c19.707,28.407,22.561,55.453,22.345,69.987C2882.168,3151.126,2866.775,3153.745,2840.036,3152.568z"/>
			
				<linearGradient id="SVGID_00000126316531120162409500000008349575871169414559_" gradientUnits="userSpaceOnUse" x1="-632.1957" y1="3063.2957" x2="-578.7415" y2="3063.2957" gradientTransform="matrix(-1 0 0 1 2241.3179 0)">
				<stop  offset="0" style="stop-color:#FEBBBA"/>
				<stop  offset="1" style="stop-color:#FF928E"/>
			</linearGradient>
			<path style="fill:url(#SVGID_00000126316531120162409500000008349575871169414559_);" d="M2873.514,3030.813l-2.681,53.06
				c-0.29,5.746-4.591,10.574-10.346,11.397c-5.725,0.819-13.393,0.923-21.524-1.783c-5.002-1.665-8.716-5.88-9.638-11.021
				l-9.265-51.653H2873.514z"/>
			<g>
				<path style="fill:#7D97F4;" d="M3206.068,3204.445c14.098-2.541,20.477-12.007,23.152-22.126
					c0.018,0.091,0.035,0.182,0.053,0.272c2.074,10.674-2.734,21.737-12.347,26.998c-11.619,6.359-24.323,7.443-34.187,6.917
					c-10.581-0.564-20.294-6.223-25.633-15.28l-0.08-0.136C3167.647,3207.883,3182.556,3208.683,3206.068,3204.445z"/>
				
					<linearGradient id="SVGID_00000037680193764657547940000010262909217367962789_" gradientUnits="userSpaceOnUse" x1="-987.9015" y1="3127.1028" x2="-881.1583" y2="3127.1028" gradientTransform="matrix(-1 0 0 1 2241.3179 0)">
					<stop  offset="0" style="stop-color:#09005D"/>
					<stop  offset="1" style="stop-color:#1A0F91"/>
				</linearGradient>
				<path style="fill:url(#SVGID_00000037680193764657547940000010262909217367962789_);" d="M3139.597,3047.161h23.629
					c35.992-0.95,58.595,97.163,65.993,135.158c-2.675,10.119-9.053,19.584-23.152,22.126c-23.511,4.238-38.421,3.438-49.042-3.354
					c-19.445-33.071-29.085-81.506-33.719-109.773C3118.035,3059.169,3139.597,3047.161,3139.597,3047.161z"/>
			</g>
			
				<linearGradient id="SVGID_00000003079176258393317720000018289723210975444664_" gradientUnits="userSpaceOnUse" x1="-932.418" y1="3035.4214" x2="-868.5346" y2="3035.4214" gradientTransform="matrix(-1 0 0 1 2241.3179 0)">
				<stop  offset="0" style="stop-color:#FEBBBA"/>
				<stop  offset="1" style="stop-color:#FF928E"/>
			</linearGradient>
			<path style="fill:url(#SVGID_00000003079176258393317720000018289723210975444664_);" d="M3160.189,2997.911l13.121,52.187
				c1.609,6.399-1.454,13.017-7.37,16.053c-7.34,3.767-17.675,7.725-27.172,6.579c-4.467-0.539-8.177-3.685-9.653-7.891
				l-19.263-54.906L3160.189,2997.911z"/>
			
				<linearGradient id="SVGID_00000004521879602716086920000007253092222144901764_" gradientUnits="userSpaceOnUse" x1="2903.4333" y1="2268.5667" x2="2953.2205" y2="2895.8784">
				<stop  offset="0" style="stop-color:#09005D"/>
				<stop  offset="1" style="stop-color:#1A0F91"/>
			</linearGradient>
			<path style="fill:url(#SVGID_00000004521879602716086920000007253092222144901764_);" d="M2698.618,2310.579
				c0,0,117.257,732.955,115.325,736.984c0,0,32.385,14.719,67.691,1.876c0,0-10.603-391.817-35.449-542.049
				c0,0,200.118,350.207,263.667,524.708c0,0,33.145-3.952,60.582-22.009c0,0-215.471-630.357-272.956-714.317L2698.618,2310.579z"
				/>
			
				<linearGradient id="SVGID_00000165912685999799316960000000243730678775563419_" gradientUnits="userSpaceOnUse" x1="2980.6301" y1="3117.373" x2="2914.2546" y2="2871.7837">
				<stop  offset="0" style="stop-color:#09005D"/>
				<stop  offset="1" style="stop-color:#1A0F91"/>
			</linearGradient>
			<path style="fill:url(#SVGID_00000165912685999799316960000000243730678775563419_);" d="M2841.504,2503.573
				c0.628,0,1.263-0.17,1.835-0.528c1.621-1.016,2.112-3.153,1.097-4.773l-43.818-69.99c-0.505-0.807-1.319-1.37-2.252-1.557
				l-32.248-6.489c-1.871-0.383-3.701,0.836-4.079,2.712c-0.377,1.874,0.837,3.701,2.712,4.077l30.787,6.196l43.027,68.726
				C2839.222,2502.997,2840.35,2503.573,2841.504,2503.573z"/>
			
				<linearGradient id="SVGID_00000147939737621702869470000007898121566106701207_" gradientUnits="userSpaceOnUse" x1="-53.7312" y1="1689.7856" x2="-306.7452" y2="2018.9498" gradientTransform="matrix(-1 0 0 1 2241.3179 0)">
				<stop  offset="0" style="stop-color:#FEBBBA"/>
				<stop  offset="1" style="stop-color:#FF928E"/>
			</linearGradient>
			<path style="fill:url(#SVGID_00000147939737621702869470000007898121566106701207_);" d="M2160.533,1592.856
				c0,0,79.123,17.451,127.248,39.671c9.558,4.413,17.182,12.129,21.524,21.64c14.393,31.528,57.455,110.59,140.967,148.32
				c-12.026,15.963-31.391,49.166-39.827,104.975c-50.158-37.332-93.46-99.678-114.25-201.927c0,0-15.831,8.606-35.579-0.985
				c-10.434-5.068-22.481-12.255-31.524-17.908c-9.01-5.632-15.721-14.388-18.328-24.614c-3.442-13.502-1.415-25.376-1.415-38.113
				l-40.671-12.6C2168.678,1611.314,2156.452,1606.699,2160.533,1592.856z"/>
			
				<linearGradient id="SVGID_00000177474076349875315540000004394531823726558885_" gradientUnits="userSpaceOnUse" x1="4005.5244" y1="-9477.209" x2="3766.5723" y2="-8873.1914" gradientTransform="matrix(-1 0 0 1 2241.3179 0)">
				<stop  offset="0" style="stop-color:#FF928E"/>
				<stop  offset="1" style="stop-color:#FE7062"/>
			</linearGradient>
			<path style="fill:url(#SVGID_00000177474076349875315540000004394531823726558885_);" d="M2410.444,1907.461
				c8.436-55.809,27.801-89.012,39.827-104.975c51.879,23.439,119.364,30.932,205.298,1.154c7.921-2.745,16.184-4.352,24.562-4.844
				c45.748-2.682,196.5-7.577,321.244,33.636c26.253,8.673,47.517,28.081,58.476,53.229
				c33.745,77.439,88.377,253.796-63.288,342.831c-11.652-28.929-25.102-52.183-36.602-69.268
				c24.424-41.197,31.658-97.466-11.684-170.739c-31.604,85.337-46.43,209.854-49.529,264.959
				c-1.02,18.143,2.163,36.251,9.281,53.002l0.777,1.827c1.523,3.584-0.573,7.703-4.405,8.564
				c-85.381,19.179-174.184,13.969-200.715,11.777c-4.736-0.391-8.671-3.78-9.758-8.358
				c-41.518-174.942-41.613-294.276-31.448-369.713C2623.642,1959.227,2504.879,1977.747,2410.444,1907.461z"/>
			
				<linearGradient id="SVGID_00000143616464207732677910000015548744471583916969_" gradientUnits="userSpaceOnUse" x1="3373.0439" y1="137.8753" x2="3134.0918" y2="741.8925">
				<stop  offset="0" style="stop-color:#FF928E"/>
				<stop  offset="1" style="stop-color:#FE7062"/>
			</linearGradient>
			<path style="fill:url(#SVGID_00000143616464207732677910000015548744471583916969_);" d="M2662.311,1955.248
				c1.711,0,3.198-1.266,3.429-3.009c9.75-73.656,29.606-105.802,29.805-106.118c1.02-1.616,0.538-3.755-1.076-4.776
				c-1.617-1.024-3.751-0.543-4.774,1.069c-0.847,1.333-20.841,33.522-30.822,108.916c-0.251,1.896,1.083,3.637,2.979,3.888
				C2662.006,1955.238,2662.16,1955.248,2662.311,1955.248z"/>
			
				<linearGradient id="SVGID_00000178202763291787004430000015974909869922557839_" gradientUnits="userSpaceOnUse" x1="-617.6934" y1="1902.5292" x2="-590.0133" y2="1757.2087" gradientTransform="matrix(-1 0 0 1 2241.3179 0)">
				<stop  offset="0" style="stop-color:#FEBBBA"/>
				<stop  offset="1" style="stop-color:#FF928E"/>
			</linearGradient>
			<path style="fill:url(#SVGID_00000178202763291787004430000015974909869922557839_);" d="M2873.019,1696.886
				c0,0,8.637,91.326,16.243,118.341c1.154,4.099-0.627,8.42-4.35,10.548c-12.907,7.375-43.865,19.405-86.211-1.348
				c-6.86-3.362-10.984-10.513-10.664-18.081l3.731-88.251L2873.019,1696.886z"/>
			<g>
				
					<linearGradient id="SVGID_00000019676956180820676120000007321449136114737826_" gradientUnits="userSpaceOnUse" x1="-542.7951" y1="1635.912" x2="-700.7271" y2="1756.754" gradientTransform="matrix(-1 0 0 1 2241.3179 0)">
					<stop  offset="0" style="stop-color:#FEBBBA"/>
					<stop  offset="1" style="stop-color:#FF928E"/>
				</linearGradient>
				<path style="fill:url(#SVGID_00000019676956180820676120000007321449136114737826_);" d="M2789.904,1580.051
					c0,0-27.626,63.463-29.482,96.772s-9.033,54.923,29.482,61.631s70.96-12.479,88.537-45.659c0,0,27.54-51.127,21.362-72.065
					C2893.625,1599.792,2789.904,1580.051,2789.904,1580.051z"/>
				
					<linearGradient id="SVGID_00000132064862100865100130000009197320899306229424_" gradientUnits="userSpaceOnUse" x1="-653.9722" y1="1540.2316" x2="-506.8835" y2="1729.608" gradientTransform="matrix(-1 0 0 1 2241.3179 0)">
					<stop  offset="0" style="stop-color:#09005D"/>
					<stop  offset="1" style="stop-color:#1A0F91"/>
				</linearGradient>
				<path style="fill:url(#SVGID_00000132064862100865100130000009197320899306229424_);" d="M2865.28,1668.939l-2.193-0.966
					c-2.791-1.231-3.985-4.553-2.583-7.262c5.431-10.494,16.019-34.54,2.341-40.15c-17.627-7.229-87.451-21.468-102.516-46.244
					c-14.479-23.812-1.65-54.548,17.63-63.291c1.29-0.585,2.811-0.121,3.473,1.132l1.607,3.04c1.1,2.081,4.174,1.766,4.828-0.495
					l0,0c0.628-2.171,3.515-2.592,4.713-0.675c4.631,7.412,17.133,19.429,50.565,25.599c47.514,8.769,78.928,27.997,79.71,60.83
					c0.05,2.086,2.269,3.246,4.05,2.16c3.508-2.138,9.123-3.141,16.626,3.168c13.049,10.972,7.709,39.435-20.897,62.847
					c-1.359,1.112-1.348,3.234,0.124,4.192c5.186,3.376,12.917,11.408-7.115,22.116c-20.719,11.076-36.191,10.167-42.149,9.184
					c-1.482-0.245-2.437-1.679-2.114-3.146l6.359-28.857c0.36-1.633-0.884-3.18-2.556-3.18H2865.28z"/>
				
					<linearGradient id="SVGID_00000145025149558410448770000006057651244354579868_" gradientUnits="userSpaceOnUse" x1="-562.3848" y1="1610.3098" x2="-720.3167" y2="1731.1517" gradientTransform="matrix(-1 0 0 1 2241.3179 0)">
					<stop  offset="0" style="stop-color:#FEBBBA"/>
					<stop  offset="1" style="stop-color:#FF928E"/>
				</linearGradient>
				<path style="fill:url(#SVGID_00000145025149558410448770000006057651244354579868_);" d="M2864.084,1675.029
					c0,0,10.54-40.539,28.715-29.173c18.176,11.366-9.432,45.422-24.044,46.939L2864.084,1675.029z"/>
			</g>
			<path style="fill:#F8A570;" d="M2275.092,1696.104c0.768,0,1.541-0.254,2.183-0.776c1.484-1.206,1.71-3.388,0.503-4.871
				c-2.994-3.683-29.544-36.146-39.773-41.926c-3.723-2.104-5.942-4.274-6.415-6.278c-0.226-0.958-0.074-2.035,0.464-3.259
				l31.199,6.253l17.675,15.169c1.452,1.245,3.638,1.078,4.884-0.373c1.245-1.451,1.078-3.638-0.373-4.884l-18.363-15.759
				c-0.451-0.386-0.993-0.65-1.575-0.767l-34.539-6.922c-1.372-0.273-2.772,0.301-3.553,1.46c-2.532,3.758-3.37,7.249-2.562,10.672
				c0.955,4.045,4.143,7.55,9.748,10.717c7.698,4.349,29.901,30.539,37.806,40.264
				C2273.087,1695.667,2274.085,1696.104,2275.092,1696.104z"/>
			
				<linearGradient id="SVGID_00000165923172080897323950000002871932864847757482_" gradientUnits="userSpaceOnUse" x1="-469.7892" y1="2005.7644" x2="-580.3296" y2="2171.5747" gradientTransform="matrix(-1 0 0 1 2241.3179 0)">
				<stop  offset="0" style="stop-color:#FEBBBA"/>
				<stop  offset="1" style="stop-color:#FF928E"/>
			</linearGradient>
			<path style="fill:url(#SVGID_00000165923172080897323950000002871932864847757482_);" d="M2865.425,2272.384l-122.115,1.511
				l42.738-40.229c10.623-9.999,26.837-11.619,39.099-3.666c7.18,4.657,14.966,10.979,21.712,19.348
				c0,0,76.175-27.838,113.102-90.123c11.5,17.085,24.949,40.339,36.602,69.268
				C2963.46,2247.927,2920.548,2263.208,2865.425,2272.384z"/>
			<g>
				
					<linearGradient id="SVGID_00000167357871942649697580000015913518360885954201_" gradientUnits="userSpaceOnUse" x1="-1827.2979" y1="2173.3" x2="-2077.0244" y2="2241.7434" gradientTransform="matrix(0.9988 -0.0494 0.0494 0.9988 4622.585 -55.0328)">
					<stop  offset="0" style="stop-color:#09005D"/>
					<stop  offset="1" style="stop-color:#1A0F91"/>
				</linearGradient>
				<path style="fill:url(#SVGID_00000167357871942649697580000015913518360885954201_);" d="M2852.268,2288.133
					c-0.237,0.012-0.474,0.018-0.713,0.016l-309.974-0.335c-7.663-0.006-13.868-6.159-13.86-13.741
					c0.008-7.584,6.249-13.85,13.891-13.714l309.974,0.334c7.663,0.006,13.868,6.159,13.86,13.741
					C2865.437,2281.781,2859.599,2287.775,2852.268,2288.133z"/>
				
					<linearGradient id="SVGID_00000165228923711246095760000010627536458112775352_" gradientUnits="userSpaceOnUse" x1="-2097.8655" y1="2046.5731" x2="-2274.0159" y2="2232.7532" gradientTransform="matrix(1 0 0 1 4664.0537 0)">
					<stop  offset="0" style="stop-color:#09005D"/>
					<stop  offset="1" style="stop-color:#1A0F91"/>
				</linearGradient>
				<path style="fill:url(#SVGID_00000165228923711246095760000010627536458112775352_);" d="M2262.928,2009.669h258.149
					c19.044,0,36.377,10.874,44.5,27.916l119.342,250.385h-320.81c-12.272,0-23.298-7.419-27.809-18.712l-92.544-231.694
					C2238.408,2024.177,2248.379,2009.669,2262.928,2009.669z"/>
				
					<ellipse transform="matrix(0.9497 -0.313 0.313 0.9497 -549.3136 867.007)" style="fill:#7D97F4;" cx="2425.436" cy="2144.214" rx="20.317" ry="32.744"/>
			</g>
		</g>
		<g>
			<g>
				
					<linearGradient id="SVGID_00000142857560933039778580000005551841058952656512_" gradientUnits="userSpaceOnUse" x1="-4292.1333" y1="1622.0865" x2="-4292.1333" y2="1937.3701" gradientTransform="matrix(-1.388 -0.0686 -0.0685 1.3855 -4690.1738 -570.6171)">
					<stop  offset="0" style="stop-color:#09005D"/>
					<stop  offset="1" style="stop-color:#1A0F91"/>
				</linearGradient>
				<path style="fill:url(#SVGID_00000142857560933039778580000005551841058952656512_);" d="M999.645,2651.062
					c0.188,0.009,0.376,0.014,0.565,0.013l245.869-0.245c6.078-0.005,11-4.928,10.993-10.995
					c-0.007-6.069-4.958-11.083-11.019-10.974l-245.869,0.246c-6.078,0.004-10.999,4.927-10.992,10.994
					C989.199,2645.978,993.83,2650.774,999.645,2651.062z"/>
			</g>
			<g>
				
					<linearGradient id="SVGID_00000130610887230159005220000012770792295615224726_" gradientUnits="userSpaceOnUse" x1="-7599.4468" y1="2550.5107" x2="-7599.4468" y2="2865.7939" gradientTransform="matrix(0.6475 -1.2297 -1.2274 -0.6463 8775.9707 -5472.2012)">
					<stop  offset="0" style="stop-color:#09005D"/>
					<stop  offset="1" style="stop-color:#1A0F91"/>
				</linearGradient>
				<path style="fill:url(#SVGID_00000130610887230159005220000012770792295615224726_);" d="M1341.296,2410.278
					c-0.087,0.166-0.171,0.335-0.25,0.507l-103.451,223.045c-2.559,5.513-0.17,12.051,5.334,14.604
					c5.506,2.553,12.14,0.178,14.597-5.364l103.451-223.046c2.559-5.513,0.17-12.051-5.334-14.604
					C1350.311,2402.95,1344.009,2405.127,1341.296,2410.278z"/>
			</g>
		</g>
		<g>
			<g>
				
					<rect x="1530.325" y="2875.081" transform="matrix(-1 -1.224647e-16 1.224647e-16 -1 3085.3374 6017.1372)" style="fill:#7D97F4;" width="24.687" height="266.976"/>
				<path style="fill:#7D97F4;" d="M1434.557,3147.204h216.223v-13.626c0-1.35-1.094-2.444-2.444-2.444h-211.335
					c-1.35,0-2.444,1.094-2.444,2.444V3147.204z"/>
				<path style="fill:#7D97F4;" d="M1402.467,2865.814c0,14.602,11.947,26.549,26.549,26.549h218.762
					c14.602,0,26.549-11.947,26.549-26.549v-24.005c0-14.602-11.947-26.549-26.549-26.549h-218.762
					c-14.602,0-26.549,11.947-26.549,26.549V2865.814z"/>
			</g>
			<g>
				
					<linearGradient id="SVGID_00000005253885240754150870000006393485241732931496_" gradientUnits="userSpaceOnUse" x1="2177.4585" y1="2751.9014" x2="1510.3829" y2="3000.8105">
					<stop  offset="0" style="stop-color:#FEBBBA"/>
					<stop  offset="1" style="stop-color:#FF928E"/>
				</linearGradient>
				<path style="fill:url(#SVGID_00000005253885240754150870000006393485241732931496_);" d="M1724.921,2697.068
					c0,0,36.684,5.687,77.929,33.258c6.491,4.339,10.051,11.903,9.073,19.65c-4.938,39.12-25.245,165.74-92.205,289.41
					c-3.531,6.521-4.545,14.113-2.988,21.362l11.633,54.138l21.573,20.229h-55.569l-36.999-100.125l15.821-5.003
					c12.266-3.879,20.683-15.162,20.905-28.025l1.857-107.407c-1.584-47.852,29.342-80.869,29.342-80.869l-88.745-4.317
					L1724.921,2697.068z"/>
				
					<linearGradient id="SVGID_00000084515205482330613130000004577459250953641863_" gradientUnits="userSpaceOnUse" x1="-272.3821" y1="3030.47" x2="-298.2004" y2="3426.3508" gradientTransform="matrix(-1 0 0 1 1432.299 0)">
					<stop  offset="0" style="stop-color:#4F52FF"/>
					<stop  offset="1" style="stop-color:#4042E2"/>
				</linearGradient>
				<path style="fill:url(#SVGID_00000084515205482330613130000004577459250953641863_);" d="M1771.636,3144.882
					c5.061,6.623-54.467,15.363-84.543,0.876c0,0-41.69-72.536-41.69-109.883c0,0,3.309-7.615,27.788-5.888
					c0,0,13.998,85.887,28.78,95.508c14.781,9.621,41.354,0.973,41.354,0.973S1764.169,3135.11,1771.636,3144.882z"/>
				
					<linearGradient id="SVGID_00000096028635507916208390000003437988102077868210_" gradientUnits="userSpaceOnUse" x1="2006.6879" y1="2830.6487" x2="2391.6665" y2="2588.3779">
					<stop  offset="0" style="stop-color:#FEBBBA"/>
					<stop  offset="1" style="stop-color:#FF928E"/>
				</linearGradient>
				<path style="fill:url(#SVGID_00000096028635507916208390000003437988102077868210_);" d="M1647.778,2815.26
					c0.472-0.817,95.547-11.432,95.547-11.432s-3.112,28.908,6.613,68.702c9.724,39.794,149.316,212.205,149.316,212.205
					l-14.636,46.399c45.254,15.764,89.77,18.284,133.573,8.035l-90.708-54.434c0,0-84.893-289.298-136.892-340.908l-95.302-32.971
					L1647.778,2815.26z"/>
				
					<linearGradient id="SVGID_00000161609213900050181810000011239160087010038941_" gradientUnits="userSpaceOnUse" x1="-228.3501" y1="3036.0522" x2="-161.8054" y2="2790.6687" gradientTransform="matrix(-1 0 0 1 1432.299 0)">
					<stop  offset="0" style="stop-color:#09005D"/>
					<stop  offset="1" style="stop-color:#1A0F91"/>
				</linearGradient>
				<path style="fill:url(#SVGID_00000161609213900050181810000011239160087010038941_);" d="M1434.557,2646.928
					c0,0-54.777,81.475-59.272,118.639c-4.495,37.165,15.005,52.266,72.48,54.757c57.475,2.49,210.912,2.45,210.912,2.45
					l130.956-111.918c0,0-95.435-34.054-120.247-43.683C1644.573,2657.544,1434.557,2646.928,1434.557,2646.928z"/>
				
					<linearGradient id="SVGID_00000075871976271708704650000008329203656629232547_" gradientUnits="userSpaceOnUse" x1="-521.5257" y1="3014.2214" x2="-547.3441" y2="3410.1025" gradientTransform="matrix(-1 0 0 1 1432.299 0)">
					<stop  offset="0" style="stop-color:#4F52FF"/>
					<stop  offset="1" style="stop-color:#4042E2"/>
				</linearGradient>
				<path style="fill:url(#SVGID_00000075871976271708704650000008329203656629232547_);" d="M1890.148,3115.508
					c0,0-15.758,15.263-5.113,32.244c0,0,124.829,22.126,158.721,12.087c0,0-7.037-16.063-45.2-34.345l2.816,2.161
					c3.563,2.736,1.474,8.434-3.012,8.178C1973.211,3134.401,1921.167,3129.793,1890.148,3115.508z"/>
			</g>
			<path style="fill:#7D97F4;" d="M1156.679,2680.663c-0.91,4.497-89.84,393.948-112.387,492.68
				c-2.599,11.379,6.815,21.942,18.981,21.323c8.483-0.432,15.597-6.324,17.251-14.289l111.242-502.373L1156.679,2680.663z"/>
			<g>
				<g>
					
						<linearGradient id="SVGID_00000174604276955437437720000008280591314987851696_" gradientUnits="userSpaceOnUse" x1="866.8295" y1="3191.2095" x2="1041.5791" y2="3191.2095">
						<stop  offset="0" style="stop-color:#09005D"/>
						<stop  offset="1" style="stop-color:#1A0F91"/>
					</linearGradient>
					<path style="fill:url(#SVGID_00000174604276955437437720000008280591314987851696_);" d="M937.099,3191.942
						c-42.84,0-61.795-3.675-70.27-7.027c1.647,7.035,7.913,12.589,15.831,12.589h151.555c5.103,0,8.325-4.885,7.105-9.309
						C1024.045,3189.585,987.353,3191.942,937.099,3191.942z"/>
					
						<linearGradient id="SVGID_00000183220538928102953890000016231422767950401689_" gradientUnits="userSpaceOnUse" x1="1001.4672" y1="2855.1851" x2="953.7208" y2="3185.0703">
						<stop  offset="0" style="stop-color:#4F52FF"/>
						<stop  offset="1" style="stop-color:#4042E2"/>
					</linearGradient>
					<path style="fill:url(#SVGID_00000183220538928102953890000016231422767950401689_);" d="M1041.321,3188.195
						c-0.246-0.892-0.607-1.77-1.241-2.579c-11.545-14.739-34.735-37.887-66.282-37.443c-46.214,0.651-62.327,5.665-98.24,0.282
						l-8.472,28.083c-0.862,2.862-0.878,5.721-0.257,8.377c8.475,3.352,27.43,7.027,70.27,7.027
						C987.353,3191.942,1024.045,3189.585,1041.321,3188.195z"/>
				</g>
				
					<linearGradient id="SVGID_00000179643774285156681390000009283840126991022464_" gradientUnits="userSpaceOnUse" x1="875.5589" y1="3138.5481" x2="922.8406" y2="3138.5481">
					<stop  offset="0" style="stop-color:#FEBBBA"/>
					<stop  offset="1" style="stop-color:#FF928E"/>
				</linearGradient>
				<path style="fill:url(#SVGID_00000179643774285156681390000009283840126991022464_);" d="M885.958,3118.193l-10.399,35.37
					c0,0,23.039,10.488,43.303,2.068l3.979-30.644L885.958,3118.193z"/>
				<g>
					
						<linearGradient id="SVGID_00000151518097968361247850000013291552517534655418_" gradientUnits="userSpaceOnUse" x1="1140.9148" y1="3156.5784" x2="1282.0049" y2="3156.5784">
						<stop  offset="0" style="stop-color:#09005D"/>
						<stop  offset="1" style="stop-color:#1A0F91"/>
					</linearGradient>
					<path style="fill:url(#SVGID_00000151518097968361247850000013291552517534655418_);" d="M1200.073,3169.667
						c-33.396,26.833-50.463,35.854-59.158,38.562c5.669,4.427,14.016,4.811,20.189-0.148l118.143-94.927
						c3.979-3.197,3.444-9.004-0.264-11.673C1266.382,3113.38,1239.248,3138.191,1200.073,3169.667z"/>
					
						<linearGradient id="SVGID_00000134251337076263609410000008909621841977463949_" gradientUnits="userSpaceOnUse" x1="1237.963" y1="2889.4153" x2="1190.2168" y2="3219.2996">
						<stop  offset="0" style="stop-color:#4F52FF"/>
						<stop  offset="1" style="stop-color:#4042E2"/>
					</linearGradient>
					<path style="fill:url(#SVGID_00000134251337076263609410000008909621841977463949_);" d="M1278.983,3101.481
						c-0.748-0.538-1.577-0.992-2.575-1.224c-18.188-4.204-50.695-7.637-75.011,12.466c-35.62,29.451-45.056,43.433-76.406,61.751
						l10.902,27.094c1.112,2.761,2.882,4.989,5.022,6.66c8.696-2.708,25.763-11.729,59.158-38.562
						C1239.248,3138.191,1266.382,3113.38,1278.983,3101.481z"/>
				</g>
				
					<linearGradient id="SVGID_00000093895055695268830550000010136275653955356551_" gradientUnits="userSpaceOnUse" x1="992.8489" y1="2727.7551" x2="750.5785" y2="2970.0256">
					<stop  offset="0" style="stop-color:#09005D"/>
					<stop  offset="1" style="stop-color:#1A0F91"/>
				</linearGradient>
				<path style="fill:url(#SVGID_00000093895055695268830550000010136275653955356551_);" d="M663.491,2715.218
					c0,0,256.484,20.942,309.099,45.711c52.615,24.769-42.938,371.917-42.938,371.917s-14.324,6.894-46.197-3.015
					c0,0,32.684-256.182,8.363-311.732l-277.706-45.422L663.491,2715.218z"/>
				
					<linearGradient id="SVGID_00000159464678811174466790000007638222517595512453_" gradientUnits="userSpaceOnUse" x1="1099.5076" y1="3142.5276" x2="1155.9557" y2="3142.5276">
					<stop  offset="0" style="stop-color:#FEBBBA"/>
					<stop  offset="1" style="stop-color:#FF928E"/>
				</linearGradient>
				<path style="fill:url(#SVGID_00000159464678811174466790000007638222517595512453_);" d="M1099.508,3125.711
					c2.382,2.17,25.484,48.764,25.484,48.764s25.72-5.564,30.965-21.841l-23.142-42.054L1099.508,3125.711z"/>
				
					<linearGradient id="SVGID_00000098908379379309174890000004808870450003852723_" gradientUnits="userSpaceOnUse" x1="1078.7771" y1="2541.645" x2="1017.9328" y2="2631.2522">
					<stop  offset="0" style="stop-color:#09005D"/>
					<stop  offset="1" style="stop-color:#1A0F91"/>
				</linearGradient>
				<path style="fill:url(#SVGID_00000098908379379309174890000004808870450003852723_);" d="M509.013,2713.074
					c0,0-8.358,20.111-8.017,46.838c0.472,36.961,30.187,66.954,67.105,68.797l303.206,13.827
					c6.403,0.292,11.821,4.724,13.425,10.929c7.125,27.56,41.952,112.191,212.191,281.067c4.529,4.493,11.585,5.258,16.979,1.85
					l24.234-15.308c2.544-1.607,3.356-4.942,1.835-7.539l-176.542-301.472c-9.273-15.302-24.178-26.357-41.513-30.788
					l-258.425-66.059L509.013,2713.074z"/>
				
					<linearGradient id="SVGID_00000138537122700367179510000016468359349019807649_" gradientUnits="userSpaceOnUse" x1="742.222" y1="2307.2522" x2="882.8992" y2="2307.2522">
					<stop  offset="0" style="stop-color:#FEBBBA"/>
					<stop  offset="1" style="stop-color:#FF928E"/>
				</linearGradient>
				<path style="fill:url(#SVGID_00000138537122700367179510000016468359349019807649_);" d="M860.761,2248.913
					c0,0-85.423,50.666-118.539,78.487l68.45,38.191c0,0,36.988-42.727,72.227-60.531L860.761,2248.913z"/>
				
					<linearGradient id="SVGID_00000013877966105561710410000017761870154498964104_" gradientUnits="userSpaceOnUse" x1="996.1124" y1="1722.2064" x2="909.8239" y2="2087.272">
					<stop  offset="0" style="stop-color:#FF928E"/>
					<stop  offset="1" style="stop-color:#FE7062"/>
				</linearGradient>
				<path style="fill:url(#SVGID_00000013877966105561710410000017761870154498964104_);" d="M503.505,2715.218
					c0,0,81.855,19.949,159.985,0c0,0,109.326-146.967,151.623-186.967c0,0,67.466,106.461,217.633,121.548l8.375-18.714
					c0,0-119.549-55.109-156.353-139.786c-36.803-84.677-51.585-120.792-85.068-142.885c-20.853-13.759-33.339-23.158-39.791-28.291
					c-3.533-2.81-8.408-3.128-12.263-0.779C712.113,2340.997,544.914,2455.511,503.505,2715.218z"/>
				
					<linearGradient id="SVGID_00000071523778894412533880000015303744891665008264_" gradientUnits="userSpaceOnUse" x1="920.0783" y1="2083.8357" x2="710.9955" y2="2730.9985">
					<stop  offset="0" style="stop-color:#E1473D"/>
					<stop  offset="1" style="stop-color:#E9605A"/>
				</linearGradient>
				<path style="fill:url(#SVGID_00000071523778894412533880000015303744891665008264_);" d="M810.68,2528.915
					c-2.397,0-4.767-1.077-6.339-3.127c-26.306-34.304-40.961-72.12-41.575-73.711c-1.578-4.115,0.479-8.731,4.594-10.312
					c4.088-1.567,8.731,0.474,10.314,4.589c0.14,0.369,14.489,37.312,39.335,69.718c2.682,3.498,2.025,8.51-1.476,11.192
					C814.084,2528.376,812.377,2528.915,810.68,2528.915z"/>
				
					<linearGradient id="SVGID_00000054987907907099139880000008965928380315670151_" gradientUnits="userSpaceOnUse" x1="1023.7174" y1="2620.0161" x2="1154.1053" y2="2620.0161">
					<stop  offset="0" style="stop-color:#FEBBBA"/>
					<stop  offset="1" style="stop-color:#FF928E"/>
				</linearGradient>
				<path style="fill:url(#SVGID_00000054987907907099139880000008965928380315670151_);" d="M1023.717,2621.31l16.903-4.505
					l51.32-11.884c6.178-1.431,12.672-0.336,18.039,3.041l44.126,27.763l-121.859-0.206L1023.717,2621.31z"/>
				<g>
					
						<linearGradient id="SVGID_00000035512837503003116520000010739193576848995217_" gradientUnits="userSpaceOnUse" x1="-212.4159" y1="3700.7195" x2="-348.2053" y2="3880.3577" gradientTransform="matrix(0.8231 -0.5679 0.5679 0.8231 -1038.8328 -962.2166)">
						<stop  offset="0" style="stop-color:#FEBBBA"/>
						<stop  offset="1" style="stop-color:#FF928E"/>
					</linearGradient>
					<path style="fill:url(#SVGID_00000035512837503003116520000010739193576848995217_);" d="M909.453,2188.697
						c1.017,1.474,31.373,115.879,31.373,115.879l-65.692,15.945l-44.881-104.158
						C830.253,2216.362,892.432,2164.028,909.453,2188.697z"/>
					
						<linearGradient id="SVGID_00000051383650148910312390000004395765590479315384_" gradientUnits="userSpaceOnUse" x1="-316.1206" y1="3744.0525" x2="-153.9187" y2="3744.0525" gradientTransform="matrix(0.8231 -0.5679 0.5679 0.8231 -1038.8328 -962.2166)">
						<stop  offset="0" style="stop-color:#09005D"/>
						<stop  offset="1" style="stop-color:#1A0F91"/>
					</linearGradient>
					<path style="fill:url(#SVGID_00000051383650148910312390000004395765590479315384_);" d="M854.754,2232.376l19.333,56.681
						c0.248,0.727,0.583,1.4,1.018,2.033c2.664,3.873,12.808,16.525,25.119,5.358c11.171-10.133,21.517-19.214,30.999-20.782
						c4.257-0.704,8.346,1.934,9.451,6.105c2.755,10.395,8.531,33.935,10.429,55.151c0.385,4.306-2.626,8.161-6.881,8.922
						c-12.822,2.293-39.999,6.374-62.631,4.535c-3.067-0.249-5.748-2.119-6.998-4.931c-6.096-13.706-24.778-55.294-31.777-66.077
						c-6.569-10.121-22.938-10.014-29.808-9.479c-2.252,0.176-4.457-0.573-6.141-2.08c-5.948-5.328-17.233-18.888-0.985-34.803
						c3.401-3.331,3.368-8.763-0.064-12.061c-6.834-6.565-14.094-18.156-2.44-32.311c11.846-14.388,27.254-11.913,36.672-8.362
						c3.808,1.436,7.996-0.135,10.111-3.613c1.204-1.979,3.284-3.465,6.86-3.118c4.818,0.466,8.916-3.515,8.88-8.355
						c-0.068-9.299,3.386-21.01,19.569-25.857c28.714-8.602,46.266,19.238,47.813,39.888c1.547,20.65-30.115,28.206-48.668,26.616
						c-14.107-1.209-24.738,12.673-29.024,19.396C854.234,2227.359,853.939,2229.985,854.754,2232.376z"/>
					
						<linearGradient id="SVGID_00000136414002842350320650000008592585284966727041_" gradientUnits="userSpaceOnUse" x1="-411.2934" y1="3842.9792" x2="-302.3797" y2="3731.2366" gradientTransform="matrix(0.8231 -0.5679 0.5679 0.8231 -1038.8328 -962.2166)">
						<stop  offset="0" style="stop-color:#FEBBBA"/>
						<stop  offset="1" style="stop-color:#FF928E"/>
					</linearGradient>
					<path style="fill:url(#SVGID_00000136414002842350320650000008592585284966727041_);" d="M850.062,2299.938
						c0,0-4.24-35.866-19.121-37.781c-14.881-1.914-29.514,10.176-14.915,30.438
						C834.184,2317.799,850.062,2299.938,850.062,2299.938z"/>
				</g>
			</g>
			<path style="fill:#7D97F4;" d="M1813.545,2679.968c0.91,4.497,89.84,393.948,112.387,492.68
				c2.599,11.379-6.815,21.942-18.981,21.323c-8.483-0.432-15.597-6.324-17.251-14.289l-111.242-502.373L1813.545,2679.968z"/>
			<g>
				
					<rect x="606.042" y="2892.363" transform="matrix(-1 -1.224647e-16 1.224647e-16 -1 1236.7708 6073.041)" style="fill:#7D97F4;" width="24.687" height="288.315"/>
				<path style="fill:#7D97F4;" d="M510.274,3185.825h216.223v-13.626c0-1.35-1.094-2.444-2.444-2.444H512.718
					c-1.35,0-2.444,1.094-2.444,2.444V3185.825z"/>
				<path style="fill:#7D97F4;" d="M478.183,2876.323c0,14.602,11.947,26.549,26.549,26.549h218.762
					c14.602,0,26.549-11.947,26.549-26.549v-24.005c0-14.602-11.947-26.549-26.549-26.549H504.732
					c-14.602,0-26.549,11.947-26.549,26.549V2876.323z"/>
			</g>
			<g>
				
					<linearGradient id="SVGID_00000064312928363879565740000005377845313441418652_" gradientUnits="userSpaceOnUse" x1="2010.326" y1="1856.637" x2="1857.6625" y2="2075.6763">
					<stop  offset="0" style="stop-color:#FF928E"/>
					<stop  offset="1" style="stop-color:#FE7062"/>
				</linearGradient>
				<path style="fill:url(#SVGID_00000064312928363879565740000005377845313441418652_);" d="M1582.696,2636.143
					c0,0,63.788-60.74,95.188-100.97c16.973-21.747,22.303-50.375,14.453-76.821c-14.336-48.297-39.812-98.319-42.135-106.104
					c-3.561-11.934-75.085-11.437-75.085-11.437s-140.744,91.344-196.042,246.074l62.104,19.334c0,0,36.748-61.652,73.058-100.849
					c0,0-62.829,82.998-65.041,116.976L1582.696,2636.143z"/>
				
					<linearGradient id="SVGID_00000147182848147589692050000015821086870079821718_" gradientUnits="userSpaceOnUse" x1="-169.8398" y1="2419.7017" x2="-188.3672" y2="2300.8181" gradientTransform="matrix(-1 0 0 1 1432.299 0)">
					<stop  offset="0" style="stop-color:#FEBBBA"/>
					<stop  offset="1" style="stop-color:#FF928E"/>
				</linearGradient>
				<path style="fill:url(#SVGID_00000147182848147589692050000015821086870079821718_);" d="M1658.852,2285.554
					c-0.747,2.481-19.415,64.367-20.875,65.652c-1.46,1.284-40.94,3.408-59.523-9.293l31.526-65.997L1658.852,2285.554z"/>
				
					<linearGradient id="SVGID_00000066486150446311935330000008603667252093990577_" gradientUnits="userSpaceOnUse" x1="-111.4643" y1="2288.1423" x2="52.1989" y2="2399.3096" gradientTransform="matrix(-0.9953 0.0965 0.0965 0.9953 1361.9113 -69.9133)">
					<stop  offset="0" style="stop-color:#FEBBBA"/>
					<stop  offset="1" style="stop-color:#FF928E"/>
				</linearGradient>
				<path style="fill:url(#SVGID_00000066486150446311935330000008603667252093990577_);" d="M1636.012,2162.033
					c0,0,34.917,10.913,62.423,57.175c27.506,46.261,12.643,70.293-8.454,75.439c-21.097,5.146-53.137,7.78-90.015-20.252
					C1563.089,2246.362,1590.779,2149.47,1636.012,2162.033z"/>
				
					<linearGradient id="SVGID_00000031193641783658880490000010262054952463952786_" gradientUnits="userSpaceOnUse" x1="174.1579" y1="2079.3044" x2="-100.3434" y2="2364.8965" gradientTransform="matrix(-0.9953 0.0965 0.0965 0.9953 1361.9113 -69.9133)">
					<stop  offset="0" style="stop-color:#09005D"/>
					<stop  offset="1" style="stop-color:#1A0F91"/>
				</linearGradient>
				<path style="fill:url(#SVGID_00000031193641783658880490000010262054952463952786_);" d="M1620.208,2246.311
					c0,0-32.181-68.464,30.612-75.396l15.797,8.906c0,0,19.258-41.555-20.425-56.653c-39.683-15.099-94.562,7.089-105.731,59.663
					c-11.169,52.574,1.456,84.6,30.629,106.408c29.173,21.808,37.539-6.937,37.539-6.937s-16.811-21.412-12.052-34.202
					c4.759-12.789,19.895,0.622,19.895,0.622L1620.208,2246.311z"/>
				
					<linearGradient id="SVGID_00000106119331071719757680000002555917644332164281_" gradientUnits="userSpaceOnUse" x1="-101.6541" y1="2273.6987" x2="62.0089" y2="2384.866" gradientTransform="matrix(-0.9953 0.0965 0.0965 0.9953 1361.9113 -69.9133)">
					<stop  offset="0" style="stop-color:#FEBBBA"/>
					<stop  offset="1" style="stop-color:#FF928E"/>
				</linearGradient>
				<path style="fill:url(#SVGID_00000106119331071719757680000002555917644332164281_);" d="M1613.923,2254.893
					c0,0-16.336-35.291-31.996-19.088c-15.66,16.203,17.144,32.4,29.86,37.443L1613.923,2254.893z"/>
				
					<linearGradient id="SVGID_00000063595705140062338820000017991298412428553140_" gradientUnits="userSpaceOnUse" x1="-63.4752" y1="2625.5481" x2="284.4826" y2="2625.5481" gradientTransform="matrix(-1 0 0 1 1432.299 0)">
					<stop  offset="0" style="stop-color:#FEBBBA"/>
					<stop  offset="1" style="stop-color:#FF928E"/>
				</linearGradient>
				<path style="fill:url(#SVGID_00000063595705140062338820000017991298412428553140_);" d="M1712.648,2640.653l-46.866-45.173
					l-64.833,27.389c0,0-64.535,9.999-101.471,0c-36.935-9.999-36.935-9.999-36.935-9.999l-83.467-25.985l-13.109,37.048
					c-3.328,9.406,0.016,19.848,8.15,25.628c7.221,5.131,15.685,10.771,21.08,13.131c10.992,4.808,270.96-3.327,270.96-3.327
					L1712.648,2640.653z"/>
				
					<linearGradient id="SVGID_00000150782463993340985820000010956356399692994441_" gradientUnits="userSpaceOnUse" x1="296.167" y1="2196.5713" x2="21.6677" y2="2482.1614" gradientTransform="matrix(-0.9953 0.0965 0.0965 0.9953 1361.9113 -69.9133)">
					<stop  offset="0" style="stop-color:#09005D"/>
					<stop  offset="1" style="stop-color:#1A0F91"/>
				</linearGradient>
				<path style="fill:url(#SVGID_00000150782463993340985820000010956356399692994441_);" d="M1546.166,2190.347
					c7.284-9.042,0.678-22.484-10.913-23.157c-37.417-2.177-93.045,9.136-109.002,90.327
					c-17.975,91.458-30.976,137.572-47.984,147.093c-11.169,6.252-10.348,22.517,1.779,26.61c8.968,3.026,21.401,3.202,38.634-2.379
					C1551.608,2385.793,1503.443,2243.383,1546.166,2190.347z"/>
			</g>
			<g>
				
					<linearGradient id="SVGID_00000020367031936423865860000002341640520398192274_" gradientUnits="userSpaceOnUse" x1="-146.0237" y1="2640.7029" x2="-365.0658" y2="2700.7366" gradientTransform="matrix(-0.9988 -0.0494 -0.0494 0.9988 1473.7679 -55.0328)">
					<stop  offset="0" style="stop-color:#09005D"/>
					<stop  offset="1" style="stop-color:#1A0F91"/>
				</linearGradient>
				<path style="fill:url(#SVGID_00000020367031936423865860000002341640520398192274_);" d="M1535.29,2661.948
					c0.207,0.01,0.416,0.016,0.625,0.014l271.864-0.297c6.721-0.005,12.162-5.459,12.156-12.18
					c-0.007-6.723-5.48-12.277-12.183-12.156l-271.864,0.297c-6.721,0.005-12.162,5.459-12.156,12.18
					C1523.74,2656.318,1528.861,2661.631,1535.29,2661.948z"/>
				
					<linearGradient id="SVGID_00000034798366634218341210000010785717944379731119_" gradientUnits="userSpaceOnUse" x1="-353.3298" y1="2448.2117" x2="-508.7501" y2="2612.4812" gradientTransform="matrix(-1 0 0 1 1432.299 0)">
					<stop  offset="0" style="stop-color:#09005D"/>
					<stop  offset="1" style="stop-color:#1A0F91"/>
				</linearGradient>
				<path style="fill:url(#SVGID_00000034798366634218341210000010785717944379731119_);" d="M2052.173,2415.113h-226.41
					c-16.702,0-31.905,9.639-39.029,24.746l-104.669,221.945h281.368c10.763,0,20.434-6.577,24.39-16.587l81.166-205.377
					C2073.678,2427.973,2064.933,2415.113,2052.173,2415.113z"/>
				<path style="fill:#7D97F4;" d="M1892.665,2528.911c-4.906,15.243-1.282,30.047,8.096,33.065
					c9.377,3.019,20.957-6.892,25.863-22.135c4.906-15.243,1.281-30.047-8.096-33.066
					C1909.151,2503.757,1897.571,2513.667,1892.665,2528.911z"/>
			</g>
			<path style="fill:#7D97F4;" d="M1092.555,2672.696c-1.138,4.711-109.762,412.106-137.303,515.388
				c-3.174,11.904,5.69,23.591,17.872,23.591c8.494,0,15.898-5.853,17.955-14.194l136.652-525.708L1092.555,2672.696z"/>
			<path style="fill:#7D97F4;" d="M1883.2,2683.303c1.138,4.711,109.762,412.107,137.303,515.388
				c3.174,11.903-5.69,23.591-17.872,23.591c-8.494,0-15.898-5.853-17.956-14.193l-132.263-524.786H1883.2z"/>
			<path style="fill:#7D97F4;" d="M953.157,2646.325h1092.371c15.266,0,28.6,3.615,32.415,8.789l15.251,20.681
				c5.489,7.443-10.644,14.689-32.607,14.644L939.7,2688.184c-21.726-0.044-37.578-7.206-32.271-14.579l13.265-18.426
				C924.441,2649.973,937.817,2646.325,953.157,2646.325z"/>
		</g>
	</g>
</g>
</svg>
