<?xml version="1.0" encoding="utf-8"?>
<!-- Generator: Adobe Illustrator 27.5.0, SVG Export Plug-In . SVG Version: 6.00 Build 0)  -->
<svg version="1.1" id="Слой_1" xmlns="http://www.w3.org/2000/svg" xmlns:xlink="http://www.w3.org/1999/xlink" x="0px" y="0px"
	 viewBox="0 0 500 500" style="enable-background:new 0 0 500 500;" xml:space="preserve">
<rect style="fill:#FAFAFA;" width="500" height="500"/>
<g>
	<g>
		<g>
			<path style="fill:#4DA8F2;" d="M244.615,363.003h-34.964v-141.73h34.964V363.003z M210.126,362.529h34.016V221.747h-34.016
				V362.529z"/>
		</g>
	</g>
	<g>
		<g>
			<path style="fill:#C2BEBC;" d="M383.151,288.012l-0.425-0.213c0.098-0.195,0.389-0.527,0.916-1.133
				c0.339-0.389,0.76-0.872,1.248-1.456l0.364,0.305c-0.491,0.587-0.915,1.072-1.256,1.463
				C383.565,287.477,383.222,287.87,383.151,288.012z M387.322,282.898l-0.38-0.283c0.651-0.874,1.292-1.784,1.902-2.703
				l0.395,0.262C388.624,281.102,387.978,282.018,387.322,282.898z M102.468,279.451l-0.087-0.095l0.349-0.321l0.085,0.093
				L102.468,279.451z M391.007,277.352l-0.408-0.241c0.555-0.939,1.096-1.911,1.607-2.889l0.421,0.219
				C392.11,275.427,391.565,276.405,391.007,277.352z M100.29,276.742c-0.613-0.872-1.212-1.823-1.782-2.826l0.412-0.233
				c0.563,0.99,1.154,1.928,1.758,2.786L100.29,276.742z M394.098,271.455l-0.43-0.199c0.458-0.99,0.901-2.01,1.317-3.033
				l0.438,0.18C395.006,269.431,394.56,270.458,394.098,271.455z M96.979,270.951c-0.463-0.991-0.901-2.024-1.302-3.071l0.442-0.169
				c0.396,1.035,0.83,2.058,1.289,3.04L96.979,270.951z M396.607,265.291l-0.446-0.158c0.365-1.027,0.713-2.083,1.037-3.14
				l0.453,0.139C397.326,263.194,396.975,264.257,396.607,265.291z M94.593,264.727c-0.324-1.06-0.616-2.143-0.868-3.219
				l0.462-0.108c0.249,1.067,0.538,2.139,0.859,3.189L94.593,264.727z M398.557,258.931l-0.458-0.119
				c0.274-1.055,0.533-2.137,0.769-3.217l0.463,0.101C399.094,256.781,398.834,257.87,398.557,258.931z M93.08,258.237
				c-0.178-1.103-0.316-2.217-0.412-3.31l0.472-0.042c0.095,1.082,0.232,2.184,0.408,3.275L93.08,258.237z M399.973,252.434
				l-0.467-0.083c0.19-1.073,0.363-2.173,0.516-3.268l0.469,0.065C400.339,250.249,400.164,251.354,399.973,252.434z
				 M92.502,251.594c-0.001-0.148-0.002-0.296-0.002-0.444c0-0.97,0.034-1.943,0.103-2.892l0.473,0.034
				c-0.067,0.938-0.101,1.899-0.101,2.858c0,0.146,0.001,0.293,0.003,0.439L92.502,251.594z M400.888,245.847l-0.472-0.048
				c0.11-1.084,0.205-2.193,0.278-3.296l0.474,0.032C401.093,243.643,400.998,244.758,400.888,245.847z M93.454,245.017
				l-0.468-0.075c0.178-1.106,0.408-2.206,0.683-3.268l0.459,0.119C93.856,242.841,93.629,243.926,93.454,245.017z M401.336,239.214
				l-0.474-0.016c0.038-1.09,0.058-2.204,0.061-3.309l0.475,0.001C401.394,237.001,401.373,238.119,401.336,239.214z M95.109,238.65
				l-0.445-0.164c0.385-1.046,0.828-2.079,1.314-3.07l0.425,0.208C95.924,236.602,95.489,237.62,95.109,238.65z M98.006,232.753
				l-0.401-0.252c0.589-0.936,1.236-1.854,1.924-2.728l0.373,0.293C99.224,230.927,98.586,231.831,98.006,232.753z M400.882,232.579
				c-0.029-1.09-0.076-2.203-0.139-3.308l0.473-0.027c0.063,1.109,0.11,2.227,0.14,3.322L400.882,232.579z M102.063,227.587
				l-0.341-0.329c0.761-0.789,1.579-1.558,2.431-2.285l0.308,0.36C103.62,226.051,102.813,226.809,102.063,227.587z
				 M400.511,225.968c-0.092-1.087-0.2-2.195-0.321-3.296l0.471-0.052c0.122,1.105,0.23,2.218,0.322,3.309L400.511,225.968z
				 M107.057,223.31l-0.274-0.386c0.887-0.631,1.827-1.243,2.793-1.817l0.243,0.407C108.862,222.081,107.934,222.686,107.057,223.31
				z M112.711,219.935l-0.212-0.424c0.971-0.485,1.989-0.952,3.027-1.387l0.184,0.437
				C114.682,218.992,113.673,219.454,112.711,219.935z M399.783,219.385c-0.147-1.081-0.311-2.183-0.486-3.276l0.468-0.076
				c0.176,1.097,0.341,2.203,0.488,3.288L399.783,219.385z M118.79,217.376l-0.157-0.447c1.023-0.359,2.089-0.702,3.167-1.018
				l0.133,0.455C120.863,216.679,119.806,217.019,118.79,217.376z M125.126,215.513l-0.112-0.46
				c1.054-0.255,2.147-0.495,3.248-0.712l0.092,0.465C127.259,215.021,126.173,215.259,125.126,215.513z M131.61,214.227
				l-0.074-0.468c1.071-0.169,2.179-0.324,3.292-0.46l0.058,0.47C133.778,213.905,132.676,214.059,131.61,214.227z M138.175,213.419
				l-0.043-0.472l0.05-0.005c1.079-0.097,2.17-0.212,3.243-0.34l0.057,0.47c-1.077,0.129-2.173,0.245-3.257,0.342L138.175,213.419z
				 M398.732,212.845c-0.07-0.382-0.143-0.766-0.217-1.151c-0.135-0.699-0.278-1.404-0.427-2.097l0.464-0.099
				c0.149,0.696,0.293,1.404,0.429,2.106c0.074,0.387,0.146,0.771,0.217,1.155L398.732,212.845z M144.774,212.627l-0.07-0.469
				c1.085-0.164,2.183-0.346,3.263-0.543l0.085,0.467C146.967,212.279,145.864,212.462,144.774,212.627z M151.311,211.439
				l-0.099-0.464c1.072-0.228,2.157-0.477,3.225-0.737l0.112,0.46C153.477,210.96,152.387,211.209,151.311,211.439z
				 M157.765,209.861l-0.126-0.456c1.054-0.29,2.122-0.602,3.176-0.925l0.139,0.453C159.896,209.257,158.823,209.57,157.765,209.861
				z M164.116,207.914l-0.152-0.449c1.034-0.349,2.084-0.72,3.121-1.102l0.163,0.445
				C166.208,207.191,165.154,207.564,164.116,207.914z M397.344,206.374c-0.267-1.07-0.554-2.145-0.852-3.197l0.456-0.13
				c0.301,1.057,0.589,2.138,0.855,3.213L397.344,206.374z M170.351,205.62l-0.175-0.44c1.012-0.403,2.042-0.828,3.06-1.263
				l0.187,0.436C172.4,204.79,171.367,205.216,170.351,205.62z M176.461,203.012l-0.197-0.432c0.99-0.451,1.999-0.924,2.997-1.407
				l0.206,0.427C178.466,202.084,177.454,202.559,176.461,203.012z M182.434,200.128l-0.215-0.422
				c0.965-0.491,1.951-1.006,2.929-1.528l0.223,0.418C184.391,199.12,183.402,199.636,182.434,200.128z M395.531,200.011
				c-0.338-1.049-0.697-2.102-1.069-3.131l0.445-0.161c0.374,1.034,0.735,2.092,1.075,3.146L395.531,200.011z M188.281,197.007
				l-0.231-0.413c0.945-0.527,1.912-1.078,2.875-1.636l0.238,0.41C190.198,195.927,189.229,196.479,188.281,197.007z
				 M393.281,193.79c-0.41-1.021-0.846-2.046-1.291-3.046l0.433-0.193c0.448,1.004,0.886,2.034,1.299,3.061L393.281,193.79z
				 M194.019,193.681l-0.244-0.406c0.926-0.556,1.877-1.136,2.827-1.724l0.25,0.403
				C195.899,192.542,194.947,193.124,194.019,193.681z M199.661,190.189l-0.254-0.4c0.904-0.575,1.841-1.179,2.785-1.794
				l0.258,0.397C201.505,189.008,200.566,189.612,199.661,190.189z M390.587,187.749c-0.485-0.988-0.995-1.977-1.516-2.94
				l0.417-0.225c0.522,0.968,1.035,1.962,1.523,2.956L390.587,187.749z M205.221,186.568l-0.262-0.395
				c0.883-0.587,1.809-1.208,2.753-1.845l0.265,0.393C207.032,185.36,206.105,185.981,205.221,186.568z M210.72,182.857
				l-0.268-0.391c0.913-0.624,1.823-1.25,2.731-1.878l0.27,0.39C212.544,181.606,211.633,182.232,210.72,182.857z M387.444,181.93
				c-0.56-0.947-1.145-1.893-1.738-2.814l0.398-0.257c0.598,0.925,1.186,1.877,1.748,2.829L387.444,181.93z M216.178,179.09
				l-0.27-0.389c0.908-0.631,1.814-1.262,2.72-1.893l0.271,0.389C217.993,177.828,217.086,178.459,216.178,179.09z M383.857,176.374
				c-0.634-0.902-1.293-1.801-1.961-2.673l0.376-0.288c0.672,0.877,1.335,1.782,1.974,2.689L383.857,176.374z M221.618,175.303
				l-0.271-0.389c0.907-0.631,1.814-1.262,2.722-1.891l0.27,0.39C223.432,174.041,222.525,174.671,221.618,175.303z M227.064,171.53
				l-0.269-0.391c0.911-0.626,1.822-1.25,2.735-1.871l0.267,0.392C228.885,170.281,227.974,170.904,227.064,171.53z M379.83,171.111
				c-0.704-0.845-1.434-1.688-2.17-2.502l0.351-0.317c0.741,0.819,1.476,1.666,2.183,2.517L379.83,171.111z M232.54,167.808
				l-0.264-0.394c0.942-0.631,1.871-1.248,2.76-1.833l0.261,0.396C234.408,166.561,233.48,167.178,232.54,167.808z M375.391,166.199
				c-0.768-0.784-1.564-1.562-2.365-2.313l0.324-0.346c0.806,0.755,1.605,1.538,2.379,2.327L375.391,166.199z M238.07,164.173
				l-0.256-0.399c0.947-0.609,1.888-1.206,2.797-1.776l0.251,0.402C239.955,162.968,239.016,163.564,238.07,164.173z
				 M370.568,161.674c-0.828-0.716-1.685-1.425-2.543-2.108l0.294-0.371c0.865,0.686,1.726,1.4,2.56,2.121L370.568,161.674z
				 M243.678,160.663l-0.246-0.405c0.957-0.581,1.915-1.153,2.846-1.699l0.24,0.409
				C245.588,159.513,244.633,160.083,243.678,160.663z M365.397,157.565c-0.883-0.645-1.794-1.282-2.704-1.892l0.264-0.394
				c0.916,0.613,1.832,1.253,2.721,1.903L365.397,157.565z M249.385,157.32l-0.232-0.413c0.973-0.548,1.951-1.087,2.905-1.6
				l0.225,0.417C251.331,156.236,250.356,156.773,249.385,157.32z M255.211,154.187l-0.216-0.422
				c0.994-0.508,1.994-1.006,2.973-1.478l0.205,0.427C257.198,153.184,256.202,153.68,255.211,154.187z M359.916,153.894
				c-0.935-0.572-1.893-1.135-2.854-1.671l0.232-0.414c0.965,0.54,1.931,1.105,2.87,1.681L359.916,153.894z M261.171,151.309
				l-0.196-0.432c1.015-0.46,2.039-0.909,3.045-1.333l0.184,0.437C263.202,150.404,262.182,150.851,261.171,151.309z
				 M354.144,150.667c-0.975-0.496-1.978-0.98-2.977-1.441l0.198-0.43c1.006,0.462,2.012,0.95,2.994,1.449L354.144,150.667z
				 M267.272,148.734l-0.172-0.441c1.038-0.405,2.087-0.797,3.119-1.165l0.159,0.447
				C269.352,147.94,268.307,148.331,267.272,148.734z M348.136,147.901c-1.01-0.419-2.046-0.826-3.079-1.208l0.166-0.444
				c1.038,0.385,2.079,0.794,3.096,1.215L348.136,147.901z M273.521,146.506l-0.146-0.451c1.057-0.34,2.126-0.667,3.178-0.97
				l0.132,0.455C275.636,145.842,274.572,146.167,273.521,146.506z M341.935,145.601c-1.039-0.342-2.102-0.671-3.161-0.977
				l0.132-0.456c1.064,0.308,2.133,0.639,3.178,0.982L341.935,145.601z M279.877,144.677l-0.116-0.459
				c0.496-0.126,1-0.249,1.497-0.367c0.577-0.136,1.161-0.271,1.737-0.399l0.104,0.462c-0.575,0.128-1.157,0.262-1.731,0.398
				C280.872,144.43,280.371,144.552,279.877,144.677z M335.581,143.761c-1.061-0.267-2.146-0.518-3.223-0.75l0.099-0.463
				c1.084,0.232,2.174,0.486,3.239,0.753L335.581,143.761z M286.338,143.231l-0.092-0.465c1.085-0.216,2.185-0.42,3.266-0.607
				l0.081,0.467C288.515,142.813,287.42,143.016,286.338,143.231z M329.111,142.373c-1.076-0.193-2.176-0.371-3.267-0.529
				l0.068-0.469c1.097,0.159,2.2,0.337,3.282,0.531L329.111,142.373z M292.861,142.101l-0.069-0.469
				c1.096-0.162,2.204-0.311,3.293-0.443l0.058,0.47C295.057,141.79,293.953,141.939,292.861,142.101z M322.563,141.424
				c-1.086-0.122-2.194-0.227-3.294-0.315l0.038-0.472c1.104,0.088,2.217,0.194,3.309,0.316L322.563,141.424z M299.434,141.303
				l-0.045-0.472c1.103-0.104,2.218-0.195,3.313-0.269l0.031,0.473C301.643,141.108,300.532,141.198,299.434,141.303z
				 M315.966,140.897c-1.093-0.053-2.205-0.09-3.309-0.111l0.009-0.474c1.107,0.021,2.226,0.058,3.323,0.111L315.966,140.897z
				 M306.039,140.857l-0.02-0.474c1.108-0.044,2.226-0.072,3.323-0.084l0.005,0.474
				C308.255,140.786,307.142,140.814,306.039,140.857z"/>
		</g>
	</g>
	<g>
		<g>
			<g>
				<g>
					<path style="fill:#78C2FF;" d="M345.007,124.74c-0.543-2.104-1.377-4.091-2.454-5.918l2.499-3.758l-3.467-3.467l-3.467-3.466
						l-3.758,2.499c-1.827-1.077-3.815-1.911-5.918-2.455l-0.891-4.42h-4.902h-4.902l-0.891,4.42
						c-2.104,0.544-4.091,1.378-5.917,2.455l-3.758-2.499l-3.467,3.466l-3.467,3.467l2.499,3.758
						c-1.078,1.827-1.912,3.814-2.455,5.918l-4.421,0.89v4.903v4.902l4.421,0.89c0.543,2.104,1.377,4.091,2.455,5.917l-2.499,3.758
						l3.467,3.467l3.467,3.467l3.758-2.499c1.826,1.077,3.813,1.911,5.917,2.454l0.891,4.421h4.902h4.902l0.891-4.421
						c2.103-0.543,4.091-1.377,5.918-2.454l3.758,2.499l3.467-3.467l3.467-3.467l-2.499-3.758c1.077-1.827,1.911-3.814,2.454-5.917
						l4.421-0.89v-4.902v-4.903L345.007,124.74z M322.649,147.711c-9.488,0-17.18-7.691-17.18-17.179
						c0-9.488,7.691-17.179,17.18-17.179c9.487,0,17.179,7.691,17.179,17.179C339.828,140.02,332.137,147.711,322.649,147.711z"/>
				</g>
			</g>
		</g>
	</g>
	<g>
		<g>
			<g>
				<g>
					<path style="fill:#4DA8F2;" d="M129.927,252.159c0.128,0.114,0.26,0.22,0.4,0.317l-0.318,0.399l-8.499,10.682l-0.399-0.318
						l8.498-10.681L129.927,252.159z"/>
				</g>
			</g>
			<g>
				<g>
					<path style="fill:#4DA8F2;" d="M169.513,241.97c0.02,0.167,0.052,0.335,0.095,0.503l-0.503,0.094l-32.06,6.065l-0.504,0.096
						c-0.02-0.167-0.052-0.335-0.095-0.502l0.503-0.095l32.06-6.065L169.513,241.97z"/>
				</g>
			</g>
			<g>
				<g>
					<path style="fill:#4DA8F2;" d="M192.576,209.29l-0.258,0.442l-16.381,28.017l-0.258,0.441
						c-0.142-0.095-0.289-0.181-0.441-0.257l0.259-0.442l16.38-28.017l0.259-0.442C192.276,209.128,192.423,209.215,192.576,209.29z
						"/>
				</g>
			</g>
			<g>
				<g>
					<path style="fill:#4DA8F2;" d="M229.177,194.765c0.026,0.082,0.055,0.162,0.085,0.241l-31.045,9.785
						c-0.02-0.083-0.043-0.164-0.069-0.246c-0.026-0.082-0.054-0.162-0.085-0.241l31.045-9.785
						C229.128,194.601,229.151,194.683,229.177,194.765z"/>
				</g>
			</g>
			<g>
				<g>
					<path style="fill:#4DA8F2;" d="M248.144,161.681l-13.05,27.941l-0.217,0.464c-0.149-0.083-0.304-0.155-0.462-0.216l0.217-0.464
						l13.05-27.941L248.144,161.681z"/>
				</g>
			</g>
		</g>
		<g>
			<g>
				<g>
					<path style="fill:#4DA8F2;" d="M131.248,244.936c-2.358,0.743-3.673,3.268-2.93,5.627c0.251,0.799,0.706,1.476,1.29,1.995
						c0.128,0.114,0.261,0.221,0.401,0.317c1.105,0.78,2.549,1.055,3.936,0.617c2.104-0.663,3.378-2.744,3.1-4.86
						c-0.021-0.167-0.053-0.335-0.096-0.501c-0.021-0.088-0.046-0.177-0.074-0.265C136.132,245.508,133.607,244.193,131.248,244.936
						z M136.541,248.729c0.232,1.865-0.894,3.692-2.749,4.277c-1.219,0.384-2.487,0.148-3.464-0.529
						c-0.14-0.098-0.273-0.203-0.4-0.317c-0.506-0.458-0.902-1.053-1.122-1.749c-0.659-2.09,0.506-4.327,2.596-4.986
						c2.09-0.659,4.327,0.506,4.986,2.596c0.021,0.068,0.041,0.137,0.059,0.207C136.489,248.393,136.521,248.561,136.541,248.729z"
						/>
				</g>
			</g>
		</g>
		<g>
			<g>
				<g>
					<path style="fill:#4DA8F2;" d="M175.936,237.749c-0.142-0.095-0.289-0.18-0.44-0.258c-1.013-0.517-2.221-0.653-3.388-0.285
						c-2.104,0.663-3.377,2.743-3.099,4.859c0.022,0.168,0.053,0.335,0.096,0.501c0.021,0.088,0.046,0.177,0.074,0.266
						c0.743,2.358,3.267,3.672,5.626,2.929c2.36-0.744,3.674-3.268,2.931-5.626C177.415,239.12,176.763,238.296,175.936,237.749z
						 M174.651,245.275c-2.09,0.658-4.326-0.506-4.985-2.596c-0.021-0.068-0.041-0.137-0.059-0.207
						c-0.043-0.167-0.076-0.335-0.095-0.503c-0.231-1.865,0.895-3.691,2.749-4.276c1.024-0.323,2.084-0.208,2.975,0.239
						c0.153,0.076,0.3,0.163,0.441,0.257c0.721,0.485,1.289,1.208,1.569,2.1C177.906,242.38,176.742,244.616,174.651,245.275z"/>
				</g>
			</g>
		</g>
		<g>
			<g>
				<g>
					<path style="fill:#4DA8F2;" d="M198.55,204.149c-0.834-2.206-3.265-3.406-5.542-2.688c-2.359,0.743-3.673,3.268-2.93,5.627
						c0.321,1.018,0.972,1.839,1.798,2.387c0.143,0.094,0.289,0.18,0.441,0.257c1.013,0.517,2.22,0.653,3.387,0.285
						c2.277-0.717,3.581-3.095,2.999-5.38c-0.02-0.082-0.043-0.165-0.069-0.247C198.609,204.309,198.581,204.227,198.55,204.149z
						 M195.551,209.53c-1.023,0.323-2.083,0.207-2.975-0.24c-0.152-0.075-0.299-0.162-0.441-0.257
						c-0.721-0.484-1.289-1.208-1.569-2.099c-0.659-2.09,0.505-4.327,2.596-4.986c2.008-0.633,4.152,0.417,4.901,2.355
						c0.03,0.08,0.059,0.159,0.085,0.241c0.026,0.082,0.049,0.164,0.069,0.246C198.714,206.808,197.56,208.897,195.551,209.53z"/>
				</g>
			</g>
		</g>
		<g>
			<g>
				<g>
					<path style="fill:#4DA8F2;" d="M235.094,189.622c-0.149-0.081-0.304-0.153-0.463-0.216c-0.929-0.372-1.984-0.438-3.011-0.114
						c-2.277,0.717-3.581,3.096-2.999,5.381c0.019,0.082,0.043,0.164,0.069,0.246c0.026,0.082,0.054,0.163,0.084,0.241
						c0.834,2.206,3.266,3.406,5.543,2.689c2.359-0.744,3.673-3.269,2.93-5.627C236.881,191.063,236.087,190.157,235.094,189.622z
						 M234.163,197.361c-2.008,0.633-4.152-0.417-4.901-2.355c-0.03-0.079-0.059-0.159-0.085-0.241
						c-0.025-0.082-0.048-0.163-0.069-0.246c-0.497-2.017,0.657-4.107,2.666-4.74c0.898-0.283,1.825-0.23,2.641,0.091
						c0.159,0.062,0.313,0.134,0.462,0.216c0.869,0.476,1.562,1.273,1.882,2.289C237.418,194.466,236.253,196.702,234.163,197.361z"
						/>
				</g>
			</g>
		</g>
	</g>
	<g>
		<g>
			<path style="fill:#4DA8F2;" d="M273.203,372.684h-16.168V197.079h16.168V372.684z M258.141,371.577h13.957V198.185h-13.957
				V371.577z"/>
		</g>
	</g>
	<g>
		<g>
			
				<rect x="256.606" y="367.461" transform="matrix(0.8846 -0.4663 0.4663 0.8846 -141.0916 166.1129)" style="fill:#4DA8F2;" width="17.026" height="1.4"/>
		</g>
		<g>
			
				<rect x="256.606" y="340.624" transform="matrix(0.8846 -0.4663 0.4663 0.8846 -128.5769 163.0163)" style="fill:#4DA8F2;" width="17.026" height="1.4"/>
		</g>
		<g>
			
				<rect x="256.606" y="313.787" transform="matrix(0.8846 -0.4663 0.4663 0.8846 -116.0622 159.9196)" style="fill:#4DA8F2;" width="17.026" height="1.401"/>
		</g>
		<g>
			
				<rect x="256.606" y="286.95" transform="matrix(0.8845 -0.4666 0.4666 0.8845 -103.5912 156.9459)" style="fill:#4DA8F2;" width="17.026" height="1.401"/>
		</g>
		<g>
			
				<rect x="256.606" y="260.113" transform="matrix(0.8845 -0.4666 0.4666 0.8845 -91.0693 153.8474)" style="fill:#4DA8F2;" width="17.026" height="1.401"/>
		</g>
		<g>
			
				<rect x="256.606" y="233.277" transform="matrix(0.8845 -0.4665 0.4665 0.8845 -78.532 150.687)" style="fill:#4DA8F2;" width="17.026" height="1.401"/>
		</g>
		<g>
			
				<rect x="256.606" y="206.44" transform="matrix(0.8845 -0.4665 0.4665 0.8845 -66.0134 147.5883)" style="fill:#4DA8F2;" width="17.026" height="1.401"/>
		</g>
	</g>
	<g>
		<g>
			<path style="fill:#4DA8F2;" d="M342.073,372.684h-16.167V197.079h16.167V372.684z M327.012,371.577h13.956V198.185h-13.956
				V371.577z"/>
		</g>
	</g>
	<g>
		<g>
			
				<rect x="325.476" y="367.461" transform="matrix(0.8846 -0.4664 0.4664 0.8846 -133.1556 198.2585)" style="fill:#4DA8F2;" width="17.027" height="1.401"/>
		</g>
		<g>
			
				<rect x="325.476" y="340.624" transform="matrix(0.8846 -0.4664 0.4664 0.8846 -120.6394 195.1611)" style="fill:#4DA8F2;" width="17.027" height="1.401"/>
		</g>
		<g>
			
				<rect x="325.476" y="313.787" transform="matrix(0.8846 -0.4664 0.4664 0.8846 -108.1231 192.0637)" style="fill:#4DA8F2;" width="17.027" height="1.401"/>
		</g>
		<g>
			
				<rect x="325.476" y="286.95" transform="matrix(0.8844 -0.4667 0.4667 0.8844 -95.64 189.1094)" style="fill:#4DA8F2;" width="17.027" height="1.401"/>
		</g>
		<g>
			
				<rect x="325.476" y="260.113" transform="matrix(0.8844 -0.4667 0.4667 0.8844 -83.1163 186.0106)" style="fill:#4DA8F2;" width="17.027" height="1.401"/>
		</g>
		<g>
			
				<rect x="325.476" y="233.277" transform="matrix(0.8845 -0.4665 0.4665 0.8845 -70.5831 182.8389)" style="fill:#4DA8F2;" width="17.027" height="1.401"/>
		</g>
		<g>
			
				<rect x="325.476" y="206.44" transform="matrix(0.8845 -0.4665 0.4665 0.8845 -58.063 179.7394)" style="fill:#4DA8F2;" width="17.027" height="1.401"/>
		</g>
	</g>
	<g>
		<g>
			<g>
				<polygon style="fill:#D6D6D6;" points="112.229,286.186 97.352,279.381 102.217,278.661 				"/>
			</g>
		</g>
		<g>
			<g>
				<polygon style="fill:#E8E8E8;" points="112.229,286.186 107.278,279.498 103.596,279.697 				"/>
			</g>
		</g>
		<g>
			<g>
				<polygon style="fill:#C2C2C2;" points="100.773,280.945 100.633,282.762 112.229,286.186 				"/>
			</g>
		</g>
	</g>
	<g>
		<g>
			<polygon style="fill:#78C2FF;" points="357.96,288.272 379.677,288.272 379.677,304.015 379.677,307.33 376.361,304.015 
				357.96,304.015 			"/>
		</g>
	</g>
	<g>
		<g>
			<rect x="276.46" y="133.087" style="fill:#2878BD;" width="46.189" height="167.602"/>
		</g>
	</g>
	<g>
		<g>
			<rect x="217.207" y="232.046" style="fill:#2E8CDB;" width="34.49" height="141.255"/>
		</g>
	</g>
	<g>
		<g>
			<rect x="168.913" y="265.493" style="fill:#3197ED;" width="34.49" height="107.809"/>
		</g>
	</g>
	<g>
		<g>
			<path style="fill:#3197ED;" d="M197.846,367.128h-34.964V258.845h34.964V367.128z M163.356,366.654h34.016V259.318h-34.016
				V366.654z"/>
		</g>
	</g>
	<g>
		<g>
			<rect x="120.619" y="298.284" style="fill:#35A2FF;" width="34.49" height="75.018"/>
		</g>
	</g>
	<g>
		<g>
			<path style="fill:#35A2FF;" d="M148.816,368.384h-34.964v-75.493h34.964V368.384z M114.326,367.91h34.016v-74.545h-34.016V367.91
				z"/>
		</g>
	</g>
	<g>
		<g>
			<g>
				<g>
					<polygon style="fill:#1A598C;" points="189.447,410.478 188.923,410.458 191.562,344.193 145.91,344.193 143.27,410.478 
						142.745,410.458 145.406,343.669 192.108,343.669 					"/>
				</g>
			</g>
		</g>
	</g>
	<g>
		<g>
			<g>
				<g>
					<polygon style="fill:#1A598C;" points="193.723,410.478 191.083,344.193 145.43,344.193 148.07,410.458 147.545,410.478 
						144.884,343.669 191.587,343.669 194.247,410.458 					"/>
				</g>
			</g>
		</g>
	</g>
	<g>
		<g>
			<g>
				<polygon style="fill:#1A598C;" points="147.808,388.92 193.985,388.92 191.335,322.383 145.157,322.383 				"/>
			</g>
		</g>
	</g>
	<g>
		<g>
			<g>
				<polygon style="fill:#E3F2FF;" points="187.882,388.92 141.705,388.92 144.355,322.383 190.533,322.383 				"/>
			</g>
		</g>
	</g>
	<g>
		<g>
			<path style="fill:#78C2FF;" d="M164.066,332.694c-1.12-3.133-4.114-5.056-7.269-4.962c-0.764,0.023-1.537,0.165-2.296,0.437
				c-2.298,0.821-3.946,2.652-4.623,4.815c-0.469,1.498-0.472,3.156,0.097,4.75c0.057,0.158,0.118,0.314,0.185,0.466
				c0.3,0.689,0.693,1.314,1.16,1.863c1.958,2.301,5.207,3.273,8.221,2.196C163.432,340.868,165.458,336.586,164.066,332.694z
				 M158.91,340.497c-2.26,0.808-4.695,0.078-6.164-1.647c-0.35-0.411-0.645-0.88-0.869-1.397c-0.05-0.114-0.096-0.23-0.139-0.351
				c-0.427-1.193-0.424-2.438-0.073-3.561c0.507-1.622,1.743-2.994,3.466-3.61c0.569-0.203,1.149-0.309,1.722-0.326
				c2.365-0.071,4.61,1.371,5.45,3.719C163.347,336.242,161.828,339.453,158.91,340.497z"/>
		</g>
	</g>
	<g>
		<g>
			<path style="fill:#78C2FF;" d="M299.555,88.496c-20.329,20.329-23.095,44.591-23.095,44.591h23.095h23.095
				C322.649,133.087,319.884,108.825,299.555,88.496z"/>
		</g>
	</g>
	<g>
		<g>
			<g>
				<path style="fill:#78C2FF;" d="M179.313,329.102c-0.303-0.354-0.621-0.701-0.947-1.035c-0.326,0.334-0.644,0.682-0.947,1.035
					l-0.36-0.308c0.363-0.425,0.746-0.838,1.139-1.232l0.168-0.167l0.168,0.167c0.393,0.395,0.776,0.808,1.139,1.232
					L179.313,329.102z"/>
			</g>
		</g>
		<g>
			<g>
				<path style="fill:#78C2FF;" d="M172.554,378.48h-0.474v-3.174h0.474V378.48z M172.554,372.134h-0.474v-3.173h0.474V372.134z
					 M172.554,365.787h-0.474v-3.173h0.474V365.787z M172.554,359.441h-0.474v-3.173h0.474V359.441z M172.554,353.096h-0.474v-3.173
					h0.474V353.096z M172.554,346.749h-0.474v-3.173h0.474V346.749z M172.554,340.403h-0.474v-0.994h0.017
					c-0.014-0.53,0.45-2.176,0.455-2.194l0.456,0.129c-0.335,1.184-0.441,1.973-0.455,2.079V340.403z M174.081,334.396l-0.433-0.193
					c0.437-0.977,0.944-1.929,1.51-2.826l0.401,0.252C175.006,332.507,174.509,333.439,174.081,334.396z"/>
			</g>
		</g>
		<g>
			<g>
				<polygon style="fill:#78C2FF;" points="173.976,383.545 172.08,383.545 172.08,381.648 172.554,381.648 172.554,383.07 
					173.976,383.07 				"/>
			</g>
		</g>
		<g>
			<g>
				<rect x="176.903" y="383.07" style="fill:#78C2FF;" width="2.926" height="0.475"/>
			</g>
		</g>
		<g>
			<g>
				<polygon style="fill:#78C2FF;" points="184.652,383.545 182.756,383.545 182.756,383.07 184.178,383.07 184.178,381.648 
					184.652,381.648 				"/>
			</g>
		</g>
		<g>
			<g>
				<path style="fill:#78C2FF;" d="M184.652,378.527h-0.474v-3.121h0.474V378.527z M184.652,372.284h-0.474v-3.122h0.474V372.284z
					 M184.652,366.041h-0.474v-3.122h0.474V366.041z M184.652,359.798h-0.474v-3.122h0.474V359.798z M184.652,353.555h-0.474v-3.122
					h0.474V353.555z M184.652,347.311h-0.474v-3.122h0.474V347.311z"/>
			</g>
		</g>
		<g>
			<g>
				<path style="fill:#78C2FF;" d="M184.652,341.068h-0.474v-1.645c-0.012-0.092-0.09-0.679-0.32-1.58l0.459-0.118
					c0.259,1.015,0.331,1.632,0.334,1.657l0.001,0.027V341.068z"/>
			</g>
		</g>
		<g>
			<g>
				<path style="fill:#78C2FF;" d="M182.789,334.712c-0.435-1.017-0.948-2.005-1.525-2.938l0.403-0.249
					c0.589,0.952,1.113,1.962,1.558,2.999L182.789,334.712z"/>
			</g>
		</g>
	</g>
	<g>
		<g>
			<path style="fill:#F5F5F5;" d="M328.093,352.368c-1.923,0-3.762,0.283-5.457,0.801c-2.233-5.42-7.784-9.259-14.28-9.259
				c-7.22,0-13.274,4.743-14.9,11.131c-1.248-0.472-2.607-0.731-4.031-0.731c-6.01,0-10.883,4.631-10.883,10.344h15.923h5.843
				h12.454h9.487h21.176C343.424,357.869,336.56,352.368,328.093,352.368z"/>
		</g>
	</g>
	<g>
		<g>
			<path style="fill:#EBEBEB;" d="M277.26,143.727c-1.364,0-2.67,0.223-3.872,0.631c-1.586-4.269-5.523-7.291-10.133-7.291
				c-5.123,0-9.419,3.735-10.572,8.765c-0.885-0.371-1.849-0.576-2.86-0.576c-4.265,0-7.722,3.646-7.722,8.145h11.296h4.146h8.837
				h6.731h15.025C288.138,148.058,283.268,143.727,277.26,143.727z"/>
		</g>
	</g>
	<g>
		<g>
			<path style="fill:#EBEBEB;" d="M325.739,132.148c-0.85,0-1.663,0.139-2.413,0.393c-0.988-2.661-3.443-4.545-6.316-4.545
				c-3.194,0-5.872,2.329-6.591,5.464c-0.552-0.232-1.153-0.359-1.783-0.359c-2.658,0-4.813,2.273-4.813,5.078h7.042h2.585h5.509
				h4.197h9.366C332.522,134.848,329.485,132.148,325.739,132.148z"/>
		</g>
	</g>
	<g>
		<g>
			<path style="fill:#DEDEDE;" d="M350.138,168.696c-1.424,0-2.787,0.247-4.042,0.699c-1.655-4.726-5.767-8.073-10.578-8.073
				c-5.349,0-9.833,4.136-11.037,9.705c-0.924-0.411-1.931-0.638-2.986-0.638c-4.451,0-8.061,4.038-8.061,9.018h11.794h4.328h9.225
				h7.028h15.686C361.494,173.492,356.409,168.696,350.138,168.696z"/>
		</g>
	</g>
	<g>
		<g>
			<rect x="162.852" y="347.939" style="fill:#78C2FF;" width="4.396" height="35.776"/>
		</g>
	</g>
	<g>
		<g>
			<rect x="156.696" y="356.409" style="fill:#78C2FF;" width="4.396" height="27.306"/>
		</g>
	</g>
	<g>
		<g>
			<rect x="150.541" y="364.715" style="fill:#78C2FF;" width="4.396" height="19"/>
		</g>
	</g>
	<g>
		<g>
			<g>
				<g>
					<polygon style="fill:#292C47;" points="145.655,327.452 155.945,333.109 166.278,316.848 153.78,312.506 					"/>
				</g>
			</g>
		</g>
		<g>
			<g>
				<g>
					<polygon style="fill:#E3F2FF;" points="146.307,326.964 155.93,332.253 165.594,317.047 153.906,312.986 					"/>
				</g>
			</g>
		</g>
		<g>
			<g>
				<g>
					<path style="fill:#EEA886;" d="M142.783,324.12c0,0,1.791-0.856,2.577-1.305c0.786-0.447,2.808-1.063,2.972-1.208
						c0.163-0.146,5.994-0.506,6.348-0.81c0.354-0.305,0.697,0.715-0.814,1.046c-1.511,0.331-3.614,1.141-3.729,1.731
						c-0.115,0.591,1.552,0.73,1.721,1.217c0.169,0.486-0.047,0.378-0.286,0.482c-0.239,0.105-1.983-0.861-2.75-0.587
						c-0.767,0.275-1.939-0.105-2.527,0.096c-0.588,0.201-3.446,1.163-3.446,1.163L142.783,324.12z"/>
				</g>
			</g>
		</g>
		<g>
			<g>
				<g>
					<path style="fill:#EAD8CF;" d="M146.015,325.385l0.922-0.341c0,0-1.15-2.7-1.652-2.635c-0.579,0.076-1.3,0.267-1.3,0.267
						L146.015,325.385z"/>
				</g>
			</g>
		</g>
		<g>
			<g>
				<g>
					<path style="fill:#DA9B5B;" d="M146.226,325.852c-0.118-0.088-1.961-3.624-1.961-3.624l-3.938,0.534l2.128,4.189
						L146.226,325.852z"/>
				</g>
			</g>
		</g>
		<g>
			<g>
				<g>
					<path style="fill:#EEA886;" d="M156.446,331.068c0,0,1.504-1.354,2.232-1.921c0.728-0.566,2.095-2.232,2.296-2.329
						c0.201-0.098,2.811-5.453,3.236-5.667c0.425-0.215-0.403-0.937-1.303,0.359s-2.482,2.962-3.083,2.841
						c-0.602-0.122-0.084-1.748-0.477-2.096c-0.393-0.35-0.374-0.104-0.566,0.081c-0.191,0.186,0.04,2.205-0.518,2.821
						c-0.557,0.615-0.656,1.869-1.074,2.344c-0.418,0.475-2.438,2.796-2.438,2.796L156.446,331.068z"/>
				</g>
			</g>
		</g>
		<g>
			<g>
				<g>
					<path style="fill:#424773;" d="M124.043,403.449c0,0-0.325,2.26-0.366,2.599c-0.041,0.339-3.621-0.2-3.621-0.2l-0.29-2.689
						C119.766,403.158,123.595,403.131,124.043,403.449z"/>
				</g>
			</g>
		</g>
		<g>
			<g>
				<g>
					<path style="fill:#292C47;" d="M123.715,405.761c0,0,1.134,1.361,2.231,1.954c1.097,0.594,2.821,0.829,3.47,1.442
						c0.468,0.444,1.706,2.353-2.851,2.314c-4.556-0.038-6.753,0.27-7.241-0.461c-0.488-0.732,0.706-5.402,0.706-5.402
						S121.109,405.996,123.715,405.761z"/>
				</g>
			</g>
		</g>
		<g>
			<g>
				<g>
					<path style="fill:#424773;" d="M149.693,403.449c0,0-0.325,2.26-0.366,2.599c-0.04,0.339-3.621-0.2-3.621-0.2l-0.289-2.689
						C145.417,403.158,149.246,403.131,149.693,403.449z"/>
				</g>
			</g>
		</g>
		<g>
			<g>
				<g>
					<path style="fill:#292C47;" d="M149.365,405.761c0,0,1.134,1.361,2.231,1.954c1.097,0.594,5.134,1.081,5.783,1.695
						c0.468,0.443,1.247,2.229-5.164,2.061c-4.555-0.118-6.753,0.27-7.241-0.461c-0.488-0.732,0.706-5.402,0.706-5.402
						S146.697,406.022,149.365,405.761z"/>
				</g>
			</g>
		</g>
		<g>
			<g>
				<g>
					<path style="fill:#292C47;" d="M127.007,345.4c0,0-3.364,5.344-3.113,10.176c0.25,4.83-1.22,10.104-1.725,15.151
						c-0.563,5.626-2.869,18.945-2.953,21.954c-0.083,3.01,0.358,12.62,0.358,12.62l4.615,0.105c0,0,3.876-23.284,4.88-25.66
						c1.004-2.376,5.982-19.314,6.149-21.215C135.386,356.631,127.007,345.4,127.007,345.4z"/>
				</g>
			</g>
		</g>
		<g>
			<g>
				<g>
					<path style="fill:#292C47;" d="M144.715,346.124c0,0,2.535,13.241,2.87,16.198c0.334,2.956,0.558,14.309,0.725,16.156
						c0.167,1.849,1.115,24.183,2.007,26.928h-5.9c0,0-4.529-16.236-4.529-23.918c0-7.682-3.499-16.701-5.757-21.77
						c-2.258-5.068-7.428-5.188-8.816-14.592C125.314,345.127,142.835,343.142,144.715,346.124z"/>
				</g>
			</g>
		</g>
		<g>
			<g>
				<g>
					<path style="fill:#EEA886;" d="M132.62,300.468c0,0,4.515-1.686,6.597,1.751c2.081,3.436,1.881,10.316-0.395,11.163
						c-2.275,0.846-5.694,0.403-6.859-1.747c-1.165-2.15-2.217-5.259-2.167-7.337C129.847,302.22,131.435,301.067,132.62,300.468z"
						/>
				</g>
			</g>
		</g>
		<g>
			<g>
				<g>
					<path style="fill:#EEA886;" d="M138.333,313.539c0,0-0.188,1.219,0.123,1.82c0.311,0.6-5.85,0.615-5.85,0.615
						s-0.5-3.266-1.448-6.026C130.21,307.19,138.333,313.539,138.333,313.539z"/>
				</g>
			</g>
		</g>
		<g>
			<g>
				<g>
					<path style="fill:#3A3F47;" d="M131.158,309.948c0,0,0.425,0.702,2.161,0.43c1.735-0.271,3.852-2.581,4.577-2.834
						c0.725-0.254,0.732-0.68,0.732-0.68l0.454,0.663l0.77,0.049c0,0-0.702-2.065,0.357-2.908c1.059-0.842-1.099-6.686-6.665-4.74
						c0,0-4.275,1.179-4.12,3.609C129.579,305.969,130.201,308.738,131.158,309.948z"/>
				</g>
			</g>
		</g>
		<g>
			<g>
				<g>
					<path style="fill:#E2D2CA;" d="M138.821,315.286c0,0-0.02-1.147-0.54-1.258c-0.52-0.109-5.741-0.611-6.379-0.36v1.337
						C131.902,315.005,133.132,315.762,138.821,315.286z"/>
				</g>
			</g>
		</g>
		<g>
			<g>
				<g>
					<path style="fill:#EEA886;" d="M138.512,305.98c-0.097-0.408-1.134-1.573-1.531-0.325c-0.397,1.247,0.6,2.926,1.156,2.781
						C138.693,308.294,138.759,307.015,138.512,305.98z"/>
				</g>
			</g>
		</g>
		<g>
			<g>
				<g>
					<path style="fill:#323657;" d="M159.539,328.843c-0.002-0.001-0.005-0.002-0.009-0.001
						C159.566,328.857,159.571,328.859,159.539,328.843z"/>
				</g>
			</g>
		</g>
		<g>
			<g>
				<g>
					<path style="fill:#323657;" d="M123.212,358.132c0,0,2.769,0.815,7.491,1.336c4.722,0.521,16.519-0.188,16.593-0.745
						c0.075-0.559-2.538-20.772-2.389-21.813c0.148-1.041,0.228-4.75,0.228-4.75c0.059,1.017,1.094,5.168,2.344,7.431
						c0.451,0.817,1.966,3.38,2.696,2.797c3.535-2.821,9.007-13.455,9.355-13.545c-0.292-0.127-2.594-1.186-2.917-1.294
						c-0.283-0.095-2.832,2.604-4.378,4.278c-0.689,0.746-1.178,1.288-1.178,1.288c-0.446-1.004-2.071-7.327-2.576-9.516
						c-1.139-4.936-0.964-5.141-0.964-5.141c-3.454-1.045-8.697-3.172-8.697-3.172l-6.919-0.281c0,0-6.35,1.397-8.85,2.526
						c-0.237,0.107-0.238,5.665-0.889,7.122l2.073,4.374c0,0,1.197,8.664,1.446,12.518
						C125.796,343.314,123.212,358.132,123.212,358.132z"/>
				</g>
			</g>
		</g>
		<g>
			<g>
				<g>
					<path style="fill:#323657;" d="M121.876,331.869c0.181,0.583,1.001,1.075,1.534,1.291c0.341,0.138,0.723,0.183,1.108,0.111
						l0.271-0.05v-0.001l4.741-0.88c0,0,1.037-11.947-6.477-14.809C122.854,317.597,120.216,326.52,121.876,331.869z"/>
				</g>
			</g>
		</g>
		<g>
			<g>
				<g>
					<path style="fill:#252840;" d="M123.409,333.16L123.409,333.16c0.341,0.138,0.723,0.183,1.108,0.111l0.271-0.05v-0.001
						l-0.468-6.105L123.409,333.16z"/>
				</g>
			</g>
		</g>
		<g>
			<g>
				<g>
					<path style="fill:#252840;" d="M151.058,333.114l0.579,2.454c0,0,0.629-2.463,0.599-3.742
						C151.547,332.572,151.058,333.114,151.058,333.114z"/>
				</g>
			</g>
		</g>
		<g>
			<g>
				<g>
					<path style="fill:#3A3F47;" d="M131.335,300.873c0,0-5.681,0.576-0.101,9.201L131.335,300.873z"/>
				</g>
			</g>
		</g>
		<g>
			<g>
				<g>
					<polygon style="fill:#292C47;" points="161.521,315.975 162.123,314.941 157.385,313.307 156.784,314.335 					"/>
				</g>
			</g>
		</g>
	</g>
	<g>
		<g>
			<path style="fill:#78C2FF;" d="M310.722,168.547c0,6.167-5,11.167-11.167,11.167c-6.168,0-11.167-5-11.167-11.167
				c0-6.167,4.999-11.167,11.167-11.167C305.722,157.38,310.722,162.38,310.722,168.547z"/>
		</g>
	</g>
	<g>
		<g>
			<circle style="fill:#78C2FF;" cx="299.555" cy="202.073" r="11.167"/>
		</g>
	</g>
	<g>
		<g>
			<path style="fill:#F5F5F5;" d="M307.876,202.073c0,4.596-3.726,8.321-8.321,8.321c-4.596,0-8.321-3.726-8.321-8.321
				c0-4.595,3.726-8.321,8.321-8.321C304.15,193.752,307.876,197.478,307.876,202.073z"/>
		</g>
	</g>
	<g>
		<g>
			<path style="fill:#F5F5F5;" d="M307.876,168.547c0,4.595-3.726,8.321-8.321,8.321c-4.596,0-8.321-3.726-8.321-8.321
				c0-4.596,3.726-8.321,8.321-8.321C304.15,160.226,307.876,163.952,307.876,168.547z"/>
		</g>
	</g>
	<g>
		<g>
			<g>
				<g>
					<path style="fill:#EEA886;" d="M186.516,196.889c0,0,0.787-1.378-0.461-5.07c-1.208-3.571-5.387-3.247-6.716-0.959
						c-1.328,2.288-0.879,3.709,1.076,6.292C182.371,199.734,185.704,198.07,186.516,196.889z"/>
				</g>
			</g>
		</g>
		<g>
			<g>
				<g>
					<path style="fill:#EEA886;" d="M176.808,260.412c0,0-0.207,1.516-0.233,1.744c-0.026,0.228-2.301-0.135-2.301-0.135
						l-0.184-1.805C174.09,260.217,176.523,260.198,176.808,260.412z"/>
				</g>
			</g>
		</g>
		<g>
			<g>
				<g>
					<path style="fill:#5377B3;" d="M176.599,261.964c0,0,0.721,0.913,1.418,1.312c0.697,0.398,1.792,0.556,2.205,0.968
						c0.298,0.298,1.084,1.579-1.811,1.554c-2.895-0.026-4.291,0.18-4.602-0.311c-0.31-0.491,0.449-3.625,0.449-3.625
						S174.966,262.061,176.599,261.964z"/>
				</g>
			</g>
		</g>
		<g>
			<g>
				<g>
					<path style="fill:#EEA886;" d="M192.559,260.412c0,0-0.207,1.516-0.232,1.744c-0.026,0.228-2.301-0.135-2.301-0.135
						l-0.184-1.805C189.842,260.217,192.275,260.198,192.559,260.412z"/>
				</g>
			</g>
		</g>
		<g>
			<g>
				<g>
					<path style="fill:#5B83C2;" d="M192.351,261.964c0,0,0.721,0.913,1.418,1.312c0.697,0.398,3.263,0.726,3.675,1.138
						c0.298,0.298,0.792,1.495-3.281,1.384c-2.895-0.08-4.291,0.18-4.602-0.311c-0.311-0.491,0.449-3.625,0.449-3.625
						S190.909,262.021,192.351,261.964z"/>
				</g>
			</g>
		</g>
		<g>
			<g>
				<g>
					<path style="fill:#2F4563;" d="M177.574,222.657c0,0-1.167,3.625-1.013,6.748c0.154,3.124-0.603,6.542-0.912,9.805
						c-0.345,3.638-1.756,12.249-1.808,14.195c-0.051,1.946,0.219,8.159,0.219,8.159l2.825,0.068c0,0,2.373-15.055,2.987-16.592
						c0.615-1.536,3.662-12.488,3.765-13.717C183.739,230.095,177.574,222.657,177.574,222.657z"/>
				</g>
			</g>
		</g>
		<g>
			<g>
				<g>
					<path style="fill:#354C70;" d="M189.287,222.279c0,0,1.715,9.584,1.92,11.496c0.205,1.912,0.341,9.252,0.443,10.447
						c0.102,1.195,0.683,15.636,1.229,17.411h-3.15c0,0-3.234-10.498-3.234-15.465c0-4.967-2.142-10.799-3.525-14.076
						c-1.382-3.277-4.547-3.355-5.397-9.436C177.574,222.657,188.136,220.351,189.287,222.279z"/>
				</g>
			</g>
		</g>
		<g>
			<g>
				<g>
					<path style="fill:#EEA886;" d="M185.373,197.864c0,0-0.355,1.035,0,1.772c0.355,0.738-4.54,0.295-4.54,0.295
						s0.222-1.525-0.418-2.78C179.775,195.897,185.373,197.864,185.373,197.864z"/>
				</g>
			</g>
		</g>
		<g>
			<g>
				<g>
					<path style="fill:#2B3B57;" d="M177.346,223.446c0,0,1.761,1.809,12.098-0.282l-0.157-0.885l-11.752,0.442L177.346,223.446z"/>
				</g>
			</g>
		</g>
		<g>
			<g>
				<g>
					<path style="fill:#EEA886;" d="M186.114,199.876c0,0,1.808,0.184,2.325,0.283c0.517,0.099,3.994-0.622,4.707-0.696
						c0.713-0.074,3.755-2.158,3.854-2.404c0.098-0.246,1.851-4.683,1.949-5.642c0.098-0.959,1.707-0.464,1.568,0.197
						c-0.258,1.236-0.589,4.239-0.771,5.108c-0.196,0.94-0.722,3.068-1.017,3.329c-0.295,0.262-3.034,2.345-5.715,3.231
						c-2.681,0.885-4.7,2.189-4.7,2.189H175.1c0,0-5.14-7.347-5.25-8.454c-0.111-1.107,3.59-8.464,4.328-9.387
						c0.738-0.922,1.806,0.301,1.806,0.301s-2.211,6.488-2.507,7.41c-0.295,0.923,2.572,4.976,3.359,4.988
						c0.788,0.012,2.809-0.246,3.707-0.283c0.898-0.037,1.845-0.43,1.845-0.43L186.114,199.876z"/>
				</g>
			</g>
		</g>
		<g>
			<g>
				<g>
					<path style="fill:#FF7E55;" d="M191.809,204.784c0,0-1.617,1.075-1.765,2.92c-0.148,1.845-0.738,4.76-1.033,5.756
						c-0.295,0.996,0.258,8.229,0.332,8.745c0.074,0.517-10.226,1.744-11.807,0.517c0,0-0.443-6.753-0.628-8.671
						c-0.185-1.918-1.07-6.568-1.365-7.195c-0.295-0.628-3.874-5.648-4.022-6.31c0,0,1.852-2.952,3.18-2.989
						c0,0,2.11,2.473,2.797,2.583c0.688,0.111,4.904-0.662,4.905-0.668c0,0,0.46,0.627,2.907-0.111c0,0,2.913,0.329,3.387,0.39
						c0.574,0.073,4.564-0.501,4.564-0.501s1.6,2.703,1.32,4.067L191.809,204.784z"/>
				</g>
			</g>
		</g>
		<g>
			<g>
				<g>
					<path style="fill:#EEA886;" d="M198.856,191.994c0,0,0.361-1.71-0.074-2.201c-0.247-0.279-0.843-1.019-0.897-1.128
						c-0.055-0.109-0.693-0.476-0.693-0.652c0-0.177,0.625-0.395,1.169,0.108c0.544,0.503,0.883,0.612,1.101,0.558
						c0.217-0.055,0.53-1.862,0.557-2.311c0.027-0.448,0.2-1.631,0.481-1.549c0.28,0.081,0.267,0.598,0.267,0.598
						s0.326-0.897,0.544-0.721c0.217,0.177,0.19,0.612,0.19,0.612s0.408-0.503,0.517-0.136c0.109,0.367,0,0.693,0,0.693
						s0.421-0.231,0.449,0.34c0.027,0.571-0.122,2.243-0.421,2.841c-0.299,0.598-1.418,2.163-1.552,2.773
						C200.359,192.43,198.856,191.994,198.856,191.994z"/>
				</g>
			</g>
		</g>
		<g>
			<g>
				<g>
					<path style="fill:#EEA886;" d="M175.623,188.991c0,0,1.229-2.067,1.647-2.251c0.419-0.185,1.009-0.289,1.525-0.658
						c0.517-0.369,1.199-0.676,1.162-0.799c-0.037-0.123-0.646-0.074-1.297,0.209c-0.652,0.283-0.938,0.146-1-0.001
						c-0.061-0.148,0.348-1.189,0.544-1.436c0.197-0.246,1.599-1.656,1.365-1.865s-1.144,0.566-1.292,0.726
						c0,0,0.726-1.525,0.443-1.599c-0.283-0.074-0.812,0.468-0.812,0.468s0.062-1.304-1.341,0.811c0,0,0.296-0.701-0.135-0.467
						c-0.43,0.234-0.849,1.55-0.984,2.214c-0.135,0.664-0.749,2.78-1.273,3.29C173.654,188.142,175.623,188.991,175.623,188.991z"/>
				</g>
			</g>
		</g>
		<g>
			<g>
				<g>
					<path style="fill:#353A3D;" d="M180.415,197.151c0,0,0.648,0.058,2.025-0.418c1.378-0.476,1.48-2.885,1.778-2.6
						c0.608,0.582,1.182,0.181,1.412-0.164c0,0-0.673-0.886-0.361-1.312c0.312-0.427,0.819-0.738,0.819-0.738
						s-0.969-4.67-5.378-2.542C175.544,191.871,180.415,197.151,180.415,197.151z"/>
				</g>
			</g>
		</g>
		<g>
			<g>
				<g>
					<path style="fill:#FF7E55;" d="M185.373,199.636l-0.155-0.675c0,0-2.814-0.058-4.35,0.165l-0.162,0.807
						C180.706,199.934,182.672,200.825,185.373,199.636z"/>
				</g>
			</g>
		</g>
		<g>
			<g>
				<g>
					<path style="fill:#EEA886;" d="M184.679,193.544c-0.255-0.425-1.201-0.711-1.312,0.492c-0.086,0.933,1.689,1.952,1.706,1.083
						C185.089,194.249,184.849,193.826,184.679,193.544z"/>
				</g>
			</g>
		</g>
		<g>
			<g>
				<g>
					<path style="fill:#E55353;" d="M198.923,191.605c0,0,1.016,0.025,1.508,0.47c0,0,0.032,0.283-0.082,0.505
						c0,0-0.88-0.411-1.555-0.488C198.794,192.093,198.805,191.724,198.923,191.605z"/>
				</g>
			</g>
		</g>
		<g>
			<g>
				<g>
					<path style="fill:#353A3D;" d="M200.12,191.858c0.094,0.222-0.01,0.479-0.232,0.572c-0.222,0.094-0.479-0.01-0.572-0.232
						c-0.094-0.222,0.01-0.479,0.232-0.572C199.77,191.532,200.026,191.636,200.12,191.858z"/>
				</g>
			</g>
		</g>
	</g>
	<g>
		<g>
			<rect x="271.429" y="301.198" style="fill:#FFA88C;" width="10.061" height="42.712"/>
		</g>
	</g>
	<g>
		<g>
			<rect x="294.523" y="301.198" style="fill:#FFA88C;" width="10.063" height="42.712"/>
		</g>
	</g>
	<g>
		<g>
			<rect x="317.619" y="301.198" style="fill:#FFA88C;" width="10.062" height="42.712"/>
		</g>
	</g>
	<g>
		<g>
			<path style="fill:#2878BD;" d="M307.876,305.622h-16.642c0-4.596,3.726-8.321,8.319-8.321
				C304.15,297.301,307.876,301.026,307.876,305.622z"/>
		</g>
	</g>
	<g>
		<g>
			<path style="fill:#2878BD;" d="M330.97,305.622h-16.642c0-4.596,3.727-8.321,8.32-8.321
				C327.244,297.301,330.97,301.026,330.97,305.622z"/>
		</g>
	</g>
	<g>
		<g>
			<path style="fill:#EBEBEB;" d="M338.51,329.623c-2.817,0-5.514,0.462-7.997,1.305c-3.274-8.816-11.41-15.06-20.931-15.06
				c-10.58,0-19.454,7.716-21.836,18.104c-1.828-0.767-3.82-1.19-5.908-1.19c-8.808,0-15.949,7.532-15.949,16.824h23.334h8.564
				h18.252h13.904h31.035C360.978,338.57,350.919,329.623,338.51,329.623z"/>
		</g>
	</g>
	<g>
		<g>
			<path style="fill:#F5F5F5;" d="M321.763,344.835c-2.818,0-5.515,0.488-7.998,1.383c-3.274-9.351-11.409-15.973-20.93-15.973
				c-10.581,0-19.454,8.183-21.837,19.201c-1.828-0.813-3.819-1.262-5.907-1.262c-8.808,0-15.95,7.988-15.95,17.844h23.335h8.563
				h18.251h13.905h31.035C344.231,354.324,334.172,344.835,321.763,344.835z"/>
		</g>
	</g>
	<g>
		<g>
			<path style="fill:#DEDEDE;" d="M376.944,355.82c-3.167,0-6.197,0.467-8.988,1.32c-3.681-8.929-12.824-15.252-23.524-15.252
				c-11.893,0-21.865,7.813-24.544,18.335c-2.055-0.775-4.293-1.205-6.64-1.205c-9.899,0-17.926,7.629-17.926,17.039h26.227h9.625
				h20.515h15.628h34.882C402.198,364.882,390.891,355.82,376.944,355.82z"/>
		</g>
	</g>
	<g>
		<g>
			<path style="fill:#EBEBEB;" d="M295.831,360.391c-2.451,0-4.797,0.361-6.958,1.022c-2.85-6.912-9.928-11.808-18.211-11.808
				c-9.207,0-16.927,6.05-19.001,14.194c-1.59-0.601-3.323-0.933-5.14-0.933c-7.664,0-13.878,5.905-13.878,13.19h20.304h7.451
				h15.882h12.098h27.004C315.382,367.406,306.629,360.391,295.831,360.391z"/>
		</g>
	</g>
	<g>
		<g>
			<path style="fill:#EEA886;" d="M381.023,322.898c0,0-0.502-1.246-0.586-1.435c-0.082-0.188-0.566-0.495-1.153-0.798
				c-0.587-0.304-1.516-0.451-1.615-0.395c-0.101,0.056-0.227,0.064-0.354,0.327c-0.129,0.264-0.093,0.556-0.093,0.556
				s-0.311,0.25-0.239,0.607c0,0-0.28,0.248-0.134,0.641c0,0-0.268,0.25-0.136,0.526c0,0,0.485,0.308,0.631,0.474
				c0.147,0.166,1.2,0.737,2.295,1.13C379.639,324.531,380.798,324.553,381.023,322.898z"/>
		</g>
	</g>
	<g>
		<g>
			<path style="fill:#CF8C6C;" d="M379.239,322.219c0,0-0.012,0.675,0.08,0.866c0.093,0.191-1.369,0.616-1.369,0.616
				S378.419,322.225,379.239,322.219z"/>
		</g>
	</g>
	<g>
		<g>
			<polygon style="fill:#3B3F66;" points="406.512,388.223 405.874,386.234 403.174,386.671 403.577,388.464 			"/>
		</g>
	</g>
	<g>
		<g>
			<polygon style="fill:#555C94;" points="384.378,387.986 384.227,389.079 381.27,388.587 381.428,386.955 			"/>
		</g>
	</g>
	<g>
		<g>
			<g>
				<path style="fill:#E8734D;" d="M390.78,357.368c0,0,0.435,2.373,0.94,5.006c0.088,0.459,0.177,0.927,0.269,1.39
					c0.493,2.537,0.992,4.978,1.177,5.483c0.419,1.147,9.471,17.734,9.471,17.734s3.702-0.282,3.841-0.759
					c0,0-7.589-18.009-7.546-18.666c0.042-0.655-0.927-19.118-0.927-19.118S390.98,356.302,390.78,357.368z"/>
			</g>
		</g>
	</g>
	<g>
		<g>
			<g>
				<path style="fill:#E8734D;" d="M386.644,347.384c0,0-3.541,18.136-3.844,19.524s-1.645,19.967-1.645,19.967
					s0.796,1.642,3.735,1.023c0,0,4.009-19.961,4.347-20.63c1.311-2.596,7.747-15.172,8.37-16.967
					c0.624-1.795,0.441-3.89,0.441-3.89S393.267,343.727,386.644,347.384z"/>
			</g>
		</g>
	</g>
	<g>
		<g>
			<g>
				<path style="fill:#292C47;" d="M388.133,323.893c0,0-1.554,3.872-1.943,3.758c-0.392-0.114-4.855-5.356-4.855-5.356
					s-2.043,2.549-1.77,2.842c0.383,0.407,5.654,9.173,6.38,9.015c0.725-0.158,3.967-5.517,3.967-5.517
					S390.095,324.593,388.133,323.893z"/>
			</g>
		</g>
	</g>
	<g>
		<g>
			<g>
				<path style="fill:#323657;" d="M394.777,316.498c0,0-4.029,3.079-5.142,4.3c-1.111,1.221-4.18,6.286-3.959,7.809
					c0.849,5.842,1.252,10.819,1.277,14.804c0.022,3.472-1.084,4.357-0.395,4.409c0.79,0.059,10.927,3.732,12.428,4.18
					c0,0-0.983-12.225-1.481-13.635C397.008,336.953,399.1,322.173,394.777,316.498z"/>
			</g>
		</g>
	</g>
	<g>
		<g>
			<path style="fill:#D9D0C4;" d="M368.832,310.657l-0.904,4.554l-0.904,4.554c0,0,5.172-1.618,11.042-0.453l0.399-2.009l0.4-2.021
				C372.996,314.117,368.832,310.657,368.832,310.657z"/>
		</g>
	</g>
	<g>
		<g>
			<path style="fill:#2878BD;" d="M384.227,389.079c0,0-2.232-0.432-2.31-0.499c-0.078-0.068-0.557-0.949-0.902-0.796
				c-0.345,0.154-0.35,1.227-0.686,1.408c-0.337,0.182-3,1.98-3.327,2.309c-0.328,0.327-2.345,0.135-2.576,0.704
				c-0.231,0.569-0.251,1.914,2.759,1.597c3.009-0.316,6.444,0.174,7.093-0.183C384.924,393.265,384.434,389.945,384.227,389.079z"
				/>
		</g>
	</g>
	<g>
		<g>
			<path style="fill:#2878BD;" d="M406.548,388.173c0,0-2.272-0.069-2.359-0.124c-0.088-0.055-0.702-0.847-1.019-0.64
				c-0.315,0.206-0.147,1.267-0.452,1.499c-0.304,0.233-2.645,2.436-2.915,2.811c-0.271,0.375-2.293,0.508-2.43,1.107
				c-0.138,0.599,0.059,1.929,2.979,1.136c2.92-0.794,6.389-0.861,6.972-1.315C407.906,392.192,406.891,388.995,406.548,388.173z"/>
		</g>
	</g>
	<g>
		<g>
			<g>
				<path style="fill:#EEA987;" d="M388.905,348.224c0,0-0.272,1.104-0.708,1.344c-0.437,0.239,2.033,2.601,2.033,2.601
					s1.001-2.19,0.974-2.41C391.177,349.537,388.905,348.224,388.905,348.224z"/>
			</g>
		</g>
	</g>
	<g>
		<g>
			<g>
				<path style="fill:#494F80;" d="M396.565,321.272c0,0,2.892,13.752,3.128,15.16c0.225,1.333-8.476,14.057-8.476,14.057
					l-2.894-1.717c0,0,7.021-12.766,7.011-13.348c-0.011-0.582-3.37-11.669-3.37-11.669s-1.404-2.413,1.087-3.587
					C395.543,318.997,396.565,321.272,396.565,321.272z"/>
			</g>
		</g>
	</g>
	<g>
		<g>
			<path style="fill:#E8734D;" d="M387.209,349.173c0,0-0.94,4.676-0.883,6.108c0.059,1.433,5.397-2.254,5.127-3.679
				L387.209,349.173z"/>
		</g>
	</g>
	<g>
		<g>
			<g>
				<g>
					<path style="fill:#EEA886;" d="M394.776,316.497c0,0-7.337,8.015-6.886,7.126c1.611-3.167,2.736-3.702,2.713-4.293
						c-0.018-0.452-0.193-1.771-0.224-2.212c-0.057-0.84-0.119-1.521-0.119-1.521s3.643-5.117,3.482-3.374
						C393.582,313.966,394.776,316.497,394.776,316.497z"/>
				</g>
			</g>
		</g>
	</g>
	<g>
		<g>
			<g>
				<g>
					<path style="fill:#EEA886;" d="M387.789,307.064c0,0-1.009,2.367-1.023,2.922c-0.015,0.554,0.126,0.979,0.04,1.617
						c-0.089,0.661-0.644,2.05-0.575,2.433c0.082,0.464,1.06,0.223,1.193,0.987c0.135,0.764,0.845,2.199,1.198,2.229
						c0.908,0.074,4.388-1.345,4.608-2.071c0.222-0.728,1.482-4.786,1.874-5.558c0.393-0.772-6.128-5.001-6.723-3.78
						C387.789,307.064,387.789,307.064,387.789,307.064z"/>
				</g>
			</g>
		</g>
	</g>
	<g>
		<g>
			<path style="fill:#FCCCA2;" d="M396.655,308.819c0.46-2.009-1.849-2.256-1.849-2.256s-1.505-1.751-5.104-1.544
				c-3.599,0.208-3.049,4.904-3.049,4.904s2.489-0.372,3.572-0.098c0,0,0.132,2.006,0.015,2.502l1.357-0.12
				c0,0-0.151-1.78,0.5-1.864c0.652-0.084,0.87,3.768,2.084,4.617c0,0,0.012-0.271,0.164-0.538l0,0l0,0
				c0.242-0.425,0.618-1.136,0.943-1.966C395.819,311.293,396.419,309.849,396.655,308.819z"/>
		</g>
	</g>
	<g>
		<g>
			<g>
				<g>
					<path style="fill:#EEA886;" d="M391.194,310.774c0,0,0.504-1.359,1.698-0.478c0.868,0.642-0.024,2.935-0.87,2.924
						C391.178,313.21,390.835,311.961,391.194,310.774z"/>
				</g>
			</g>
		</g>
	</g>
	<g>
		<g>
			<path style="fill:#C48A6F;" d="M393.427,314.544c0,0-0.178,0.722-0.372,0.891c-0.194,0.168-1.107,0.909-2.694,1.407l0.142,1.423
				C390.502,318.265,393.585,317.075,393.427,314.544z"/>
		</g>
	</g>
	<g>
		<g>
			<path style="fill:#285173;" d="M377.247,324.293l-0.519-0.247l2.348-4.98l1.316,0.62l-1.99,4.222
				C378.182,324.377,377.717,324.514,377.247,324.293z"/>
		</g>
	</g>
	<g>
		<g>
			<path style="fill:#DB9C7C;" d="M377.825,320.344c0,0,1.469,0.806,1.368,1.059c-0.1,0.253-0.291,0.284-0.291,0.284l0.455,0.607
				c0,0,0.074,0.571-0.569,0.484c0,0,0.124,0.526-0.487,0.37c0,0-0.072,0.383-0.369,0.36c-0.296-0.022-1.219-0.58-1.219-0.58
				s-0.143-0.205,0.136-0.526c0,0-0.163-0.367,0.134-0.641c0,0-0.085-0.315,0.239-0.607c0,0-0.135-0.717,0.447-0.883
				C377.669,320.271,377.764,320.31,377.825,320.344z"/>
		</g>
	</g>
	<g>
		<g>
			<polygon style="fill:#E8734D;" points="382.124,320.15 376.947,319.185 377.79,314.94 382.927,316.11 			"/>
		</g>
	</g>
	<g>
		<g>
			<path style="fill:#EEA886;" d="M380.395,321.434c0,0-1.148-0.032-1.784,0.226c-0.144,0.059-0.273,0.142-0.273,0.297
				c0,0.154,0.225,0.353,0.723,0.392c0.496,0.039,1.121,0.318,1.121,0.318S380.705,322.557,380.395,321.434z"/>
		</g>
	</g>
	<g>
		<g>
			<path style="fill:#B0573A;" d="M391.721,362.374c0.088,0.459,0.177,0.927,0.269,1.39l2.939-7.782
				C394.54,356.767,391.721,362.374,391.721,362.374z"/>
		</g>
	</g>
	<g>
		<g>
			<path style="fill:#2878BD;" d="M284.78,305.622h-16.642c0-4.596,3.726-8.321,8.32-8.321
				C281.055,297.301,284.78,301.026,284.78,305.622z"/>
		</g>
	</g>
</g>
</svg>
