<?xml version="1.0" encoding="utf-8"?>
<!-- Generator: Adobe Illustrator 27.5.0, SVG Export Plug-In . SVG Version: 6.00 Build 0)  -->
<svg version="1.1" xmlns="http://www.w3.org/2000/svg" xmlns:xlink="http://www.w3.org/1999/xlink" x="0px" y="0px"
	 viewBox="0 0 750 500" style="enable-background:new 0 0 750 500;" xml:space="preserve">
<g id="BACKGROUND">
	<rect x="3" y="0" style="fill:#FFFFFF;" width="750" height="500"/>
</g>
<g id="OBJECTS">
	<path style="opacity:0.8;fill:#EBF3FF;" d="M700.707,180.217v-8.941c0-12.933-7.045-24.147-17.363-29.742
		c9.158-5.505,15.318-15.79,15.318-27.578v-8.493c0-17.59-13.715-31.849-30.629-31.849h-52.33c3.313-3.643,5.359-8.547,5.359-13.958
		c0-11.227-8.75-20.327-19.549-20.327H295.51c-10.797,0-19.551,9.101-19.551,20.327c0,3.254-0.864,9.044,2.066,9.044
		c16.994,0,39.108,0,39.108,0c8.274,0,14.984,5.419,14.984,12.102c0,6.683-6.71,12.102-14.984,12.102H82.63
		c-0.076,0-0.149-0.009-0.225-0.01c-1.595,3.856-2.482,8.105-2.482,12.569v8.493c0,9.462,3.974,17.958,10.274,23.789H81.54
		c-17.809,0-32.248,15.013-32.248,33.531v8.941c0,16.981,12.144,31.005,27.892,33.217h131.752c9.272,0,16.789,7.816,16.789,17.456
		c0,9.642-7.517,17.458-16.789,17.458H81.54v134.614c0,17.943,13.991,32.494,31.248,32.494h46.275
		c-3.524,4.74-5.626,10.684-5.626,17.141c0,15.506,12.088,28.074,26.999,28.074h422.612c14.916,0,27-12.568,27-28.074
		c0-6.457-2.102-12.4-5.623-17.141l-180.027-0.432c-9.274,0-16.792-7.82-16.792-17.459c0-9.643,7.518-17.459,16.792-17.459h256.309
		V242.168c0-14.124-8.67-26.136-20.769-30.615C692.078,206.742,700.707,194.531,700.707,180.217z"/>
	<g>
		<path style="fill:#B8D0FF;" d="M668.469,89.1h-2.49c-1.585,0-3-1.019-3.508-2.538c-0.396-1.156-0.862-2.278-1.371-3.369
			c-0.704-1.451-0.412-3.183,0.709-4.326l1.758-1.789c1.313-1.331,1.313-3.5,0-4.823l-5.653-5.754c-1.315-1.334-3.44-1.334-4.743,0
			l-1.766,1.791c-1.117,1.141-2.828,1.433-4.254,0.733c-1.072-0.528-2.176-1.002-3.318-1.402c-1.49-0.525-2.485-1.958-2.485-3.569
			v-2.529c0-1.89-1.506-3.412-3.358-3.412h-7.999c-1.857,0-3.362,1.522-3.362,3.412v2.529c0,1.61-0.996,3.044-2.49,3.569
			c-1.141,0.4-2.246,0.875-3.316,1.402c-1.421,0.7-3.124,0.408-4.252-0.733l-1.758-1.791c-1.311-1.334-3.438-1.334-4.746,0
			l-5.658,5.754c-1.313,1.323-1.313,3.492,0,4.823l1.757,1.789c1.124,1.143,1.421,2.875,0.723,4.326
			c-0.519,1.09-0.984,2.212-1.372,3.369c-0.52,1.52-1.933,2.538-3.52,2.538h-2.48c-1.857,0-3.359,1.529-3.359,3.416v8.127
			c0,1.888,1.503,3.414,3.359,3.414h2.48c1.587,0,3,1.012,3.52,2.534c0.388,1.156,0.853,2.281,1.372,3.367
			c0.698,1.462,0.401,3.194-0.723,4.327l-1.757,1.784c-1.313,1.342-1.313,3.495,0,4.825l5.658,5.755
			c1.308,1.329,3.435,1.329,4.746,0l1.758-1.782c1.128-1.138,2.831-1.44,4.252-0.734c1.07,0.532,2.176,0.991,3.316,1.397
			c1.494,0.521,2.49,1.961,2.49,3.568v2.53c0,1.888,1.506,3.411,3.362,3.411h7.999c1.853,0,3.358-1.523,3.358-3.411v-2.53
			c0-1.608,0.995-3.047,2.485-3.568c1.143-0.407,2.246-0.866,3.318-1.397c1.426-0.706,3.137-0.403,4.254,0.734l1.766,1.782
			c1.304,1.329,3.428,1.329,4.743,0l5.653-5.755c1.313-1.33,1.313-3.483,0-4.825l-1.758-1.784c-1.121-1.132-1.413-2.865-0.709-4.327
			c0.509-1.085,0.975-2.21,1.371-3.367c0.508-1.522,1.923-2.534,3.508-2.534h2.49c1.853,0,3.355-1.525,3.355-3.414v-8.127
			C671.824,90.629,670.322,89.1,668.469,89.1z"/>
		<path style="fill:none;stroke:#FFFFFF;stroke-width:0.5;stroke-miterlimit:10;" d="M654.204,96.573
			c0,11.169-9.049,20.222-20.215,20.222c-11.164,0-20.214-9.053-20.214-20.222c0-11.16,9.05-20.215,20.214-20.215
			C645.155,76.358,654.204,85.413,654.204,96.573z"/>
		<path style="fill:none;stroke:#FFFFFF;stroke-width:0.5;stroke-miterlimit:10;stroke-dasharray:2,2;" d="M645.45,96.573
			c0,6.334-5.128,11.466-11.461,11.466c-6.329,0-11.461-5.132-11.461-11.466c0-6.326,5.132-11.457,11.461-11.457
			C640.322,85.116,645.45,90.247,645.45,96.573z"/>
	</g>
	<path style="fill:#B8D0FF;" d="M182.833,110.747l-1.871-12.397c-0.435-2.873-3.199-4.838-6.18-4.39l-4.001,0.602
		c-2.543,0.384-5.05-0.82-6.214-3.02c-0.91-1.661-1.907-3.269-2.983-4.798c-1.456-2.043-1.39-4.762,0.144-6.767l2.413-3.162
		c1.811-2.341,1.31-5.65-1.11-7.349l-10.405-7.399c-2.418-1.719-5.83-1.203-7.624,1.15l-2.425,3.158
		c-1.529,2.006-4.208,2.871-6.664,2.148c-1.838-0.542-3.726-0.995-5.65-1.33c-2.511-0.437-4.449-2.386-4.819-4.84l-0.583-3.854
		c-0.434-2.875-3.196-4.835-6.177-4.386l-12.845,1.938c-2.984,0.45-5.048,3.141-4.617,6.011l0.583,3.859
		c0.373,2.455-0.903,4.882-3.185,6.045c-1.736,0.891-3.402,1.883-5,2.946c-2.129,1.411-4.934,1.374-7-0.096l-3.242-2.292
		c-2.413-1.721-5.827-1.208-7.623,1.15l-7.768,10.139c-1.802,2.338-1.301,5.646,1.111,7.356l3.232,2.301
		c2.073,1.465,2.946,4.043,2.158,6.423c-0.585,1.785-1.069,3.61-1.431,5.469c-0.482,2.444-2.519,4.332-5.062,4.718l-3.992,0.602
		c-2.981,0.452-5.044,3.144-4.612,6.02l1.87,12.397c0.437,2.879,3.201,4.834,6.184,4.377l3.993-0.598
		c2.541-0.38,5.047,0.82,6.227,3.016c0.894,1.665,1.896,3.264,2.981,4.802c1.457,2.051,1.383,4.764-0.165,6.77l-2.412,3.138
		c-1.799,2.363-1.302,5.654,1.113,7.368l10.413,7.387c2.41,1.722,5.824,1.201,7.623-1.145l2.419-3.149
		c1.545-2.003,4.21-2.88,6.662-2.148c1.844,0.552,3.722,0.995,5.646,1.334c2.522,0.431,4.461,2.382,4.831,4.83l0.581,3.858
		c0.434,2.874,3.2,4.837,6.182,4.392l12.848-1.938c2.979-0.451,5.044-3.148,4.607-6.026l-0.583-3.85
		c-0.367-2.458,0.905-4.886,3.176-6.044c1.739-0.896,3.41-1.869,5.005-2.945c2.136-1.419,4.95-1.371,7.006,0.091l3.246,2.286
		c2.406,1.72,5.815,1.206,7.623-1.149l7.76-10.135c1.806-2.349,1.309-5.641-1.113-7.361l-3.234-2.289
		c-2.06-1.462-2.925-4.034-2.138-6.423c0.576-1.787,1.057-3.611,1.432-5.465c0.466-2.446,2.501-4.335,5.053-4.72l3.998-0.604
		C181.201,116.307,183.269,113.624,182.833,110.747z M127.734,141.504c-17.834,4.094-34.936-8.058-36.147-25.667
		c-0.953-13.857,8.877-26.695,22.903-29.904c17.819-4.096,34.935,8.048,36.144,25.669
		C151.577,125.447,141.749,138.279,127.734,141.504z"/>
	<path style="fill:#9EC0FF;" d="M135.714,208.479l-1.121-7.422c-0.261-1.72-1.915-2.896-3.7-2.628l-2.396,0.36
		c-1.523,0.229-3.024-0.491-3.721-1.808c-0.545-0.995-1.142-1.958-1.786-2.873c-0.873-1.223-0.832-2.851,0.086-4.052l1.444-1.893
		c1.084-1.401,0.784-3.383-0.665-4.399l-6.23-4.43c-1.448-1.029-3.491-0.72-4.564,0.689l-1.453,1.891
		c-0.915,1.2-2.519,1.719-3.989,1.285c-1.101-0.324-2.231-0.596-3.383-0.796c-1.503-0.261-2.664-1.428-2.885-2.898l-0.349-2.307
		c-0.26-1.722-1.914-2.896-3.699-2.626l-7.69,1.16c-1.787,0.27-3.022,1.881-2.765,3.6l0.349,2.31c0.224,1.47-0.54,2.923-1.907,3.62
		c-1.039,0.534-2.037,1.127-2.994,1.764c-1.275,0.845-2.954,0.823-4.191-0.057l-1.941-1.373c-1.444-1.03-3.488-0.723-4.563,0.689
		l-4.651,6.07c-1.079,1.4-0.779,3.381,0.665,4.404l1.936,1.378c1.241,0.877,1.764,2.42,1.291,3.846
		c-0.35,1.069-0.64,2.161-0.856,3.274c-0.289,1.463-1.508,2.594-3.03,2.825l-2.39,0.359c-1.785,0.271-3.02,1.883-2.761,3.605
		l1.12,7.422c0.261,1.723,1.916,2.894,3.702,2.621l2.391-0.358c1.521-0.229,3.022,0.49,3.729,1.805
		c0.535,0.997,1.135,1.955,1.785,2.876c0.873,1.227,0.828,2.852-0.099,4.053l-1.444,1.878c-1.077,1.415-0.779,3.385,0.666,4.411
		l6.234,4.423c1.443,1.03,3.488,0.719,4.565-0.686l1.448-1.886c0.925-1.199,2.521-1.725,3.989-1.287
		c1.104,0.331,2.229,0.596,3.38,0.8c1.51,0.258,2.67,1.426,2.892,2.891l0.348,2.309c0.26,1.723,1.916,2.897,3.702,2.631l7.693-1.16
		c1.783-0.27,3.019-1.887,2.758-3.608l-0.35-2.306c-0.219-1.472,0.542-2.925,1.902-3.619c1.041-0.535,2.042-1.118,2.997-1.762
		c1.278-0.851,2.964-0.821,4.194,0.054l1.944,1.369c1.44,1.029,3.481,0.722,4.564-0.689l4.646-6.067
		c1.082-1.407,0.783-3.378-0.666-4.408l-1.937-1.372c-1.233-0.875-1.751-2.415-1.28-3.845c0.345-1.07,0.633-2.163,0.857-3.272
		c0.28-1.465,1.498-2.595,3.026-2.827l2.394-0.361C134.736,211.809,135.975,210.202,135.714,208.479z M102.725,226.895
		c-10.678,2.451-20.917-4.825-21.642-15.368c-0.571-8.296,5.315-15.982,13.712-17.904c10.669-2.452,20.917,4.819,21.641,15.369
		C116.999,217.281,111.116,224.963,102.725,226.895z"/>
	<line style="fill:#2E6ADB;" x1="353.552" y1="197.54" x2="313.336" y2="239.299"/>
	<g>
		<g>
			<g>
				<path style="fill:#2D4C7F;" d="M337.904,364.842v57.826h23.275V400.85c0-7.637,6.188-13.822,13.82-13.822
					c7.632,0,13.821,6.186,13.821,13.822v21.818h23.276v-57.826H337.904z"/>
				<rect x="261.893" y="419.029" style="fill:#4E73A8;" width="226.214" height="15.277"/>
			</g>
			<g>
				<rect x="109.629" y="77.547" style="fill:#4E73A8;" width="530.74" height="297.04"/>
				<g>
					<rect x="126.319" y="87.979" style="fill:#EBF3FF;" width="497.36" height="256.533"/>
					<path style="opacity:0.8;fill:#EBF3FF;" d="M587.625,343.006c-19.701-4.756-38.506-12.422-56.857-20.926
						c-18.41-8.531-36.902-17.094-55.033-26.211c-97.255-48.882-183.702-121.723-250.612-207.89h-98.804v256.533h468.028
						C592.102,344.037,589.855,343.545,587.625,343.006z"/>
				</g>
				<rect x="125.991" y="344.512" style="fill:#2D4C7F;" width="498.015" height="4.693"/>
			</g>
		</g>
		<g>
			<path style="fill:#5D81EC;" d="M544.492,138.265c-17.266-17.925-40.216-27.798-64.631-27.798
				c-24.413,0-47.368,9.872-64.632,27.798l-40.199,41.741l-40.201-41.741c-17.262-17.925-40.215-27.798-64.629-27.798
				c-24.415,0-47.366,9.872-64.631,27.798c-35.638,37.004-35.638,97.215,0,134.221c17.819,18.502,41.225,27.752,64.631,27.752
				c23.405,0,46.811-9.25,64.629-27.752l40.201-41.743l40.199,41.743c17.819,18.502,41.227,27.752,64.632,27.752
				c23.405,0,46.812-9.252,64.631-27.752c17.264-17.926,26.77-41.761,26.77-67.111C571.262,180.024,561.756,156.191,544.492,138.265
				z M310.416,247.134c-10.741,11.153-25.024,17.295-40.214,17.295c-15.193,0-29.476-6.143-40.217-17.297
				c-10.743-11.153-16.657-25.983-16.657-41.757c0-15.774,5.914-30.604,16.657-41.758c10.741-11.154,25.023-17.297,40.216-17.297
				c15.191,0,29.474,6.143,40.215,17.297l40.216,41.758L310.416,247.134z M350.632,205.375l-40.216,41.759 M520.076,247.134
				c-22.174,23.026-58.257,23.026-80.432,0l-40.216-41.759l40.216-41.758c10.744-11.154,25.024-17.297,40.217-17.297
				c15.189,0,29.474,6.143,40.215,17.297c10.744,11.154,16.658,25.984,16.658,41.758C536.734,221.15,530.82,235.979,520.076,247.134
				z"/>
			<polygon style="fill:#2E6ADB;" points="429.791,237.189 348.18,152.395 321.085,174.839 404.492,260.857 			"/>
			<path style="fill:#9EC0FF;" d="M546.396,140.309c-9.381,7.271-18.352,15.091-25.387,24.326
				c10.143,11.032,15.725,25.437,15.725,40.741c0,15.775-5.914,30.604-16.658,41.759c-8.963,9.307-20.199,14.848-31.869,16.631
				c8.065,9.529,16.091,19.871,22.553,30.908c12.322-4.574,23.883-11.961,33.732-22.188c17.264-17.926,26.77-41.761,26.77-67.111
				C571.262,180.974,562.451,157.983,546.396,140.309z"/>
			<path style="fill:#9EC0FF;" d="M203.604,140.553c9.382,7.271,18.353,15.091,25.387,24.326
				c-10.143,11.032-15.725,25.437-15.725,40.741c0,15.775,5.916,30.605,16.658,41.76c8.963,9.306,20.199,14.847,31.869,16.63
				c-8.065,9.529-16.09,19.871-22.552,30.908c-12.321-4.574-23.882-11.961-33.731-22.188c-17.264-17.926-26.77-41.76-26.77-67.111
				C178.739,181.219,187.55,158.228,203.604,140.553z"/>
			<polygon style="fill:#77A3E8;" points="305.906,251.635 387.843,167.085 414.611,189.284 332.022,275.791 			"/>
		</g>
	</g>
	<g>
		<rect x="248.857" y="95.085" style="fill:#FFBF00;" width="60.622" height="60.617"/>
		<path style="fill:#FFA607;" d="M275.036,132.076c-9.616-9.963-12.077-23.521-12.366-36.992h-13.813v60.617h60.622v-11.837
			C296.913,144.546,283.997,141.361,275.036,132.076z"/>
		<path style="fill:#FFFFFF;" d="M275.263,145.114l-16.48-15.165c-1.346-1.237-1.433-3.332-0.196-4.676
			c1.235-1.345,3.328-1.431,4.675-0.197l11.596,10.674l22.135-24.176c1.238-1.348,3.328-1.44,4.676-0.21
			c1.348,1.234,1.437,3.33,0.205,4.677L275.263,145.114z"/>
	</g>
	<g>
		<rect x="450.539" y="95.906" style="fill:#9EC0FF;" width="61.13" height="57.625"/>
		<g>
			<path style="fill:#FFFFFF;" d="M464.086,123.8c3.338,0,3.808-1.833,3.808-3.479c0-1.316-0.188-2.633-0.376-3.949
				c-0.188-1.316-0.376-2.586-0.376-3.902c0-4.325,2.821-6.159,6.817-6.159h0.987v2.586H474.1c-2.774,0-3.714,1.504-3.714,4.043
				c0,1.081,0.141,2.209,0.329,3.338c0.188,1.175,0.329,2.304,0.329,3.573c0.047,3.009-1.269,4.513-3.385,5.078v0.094
				c2.116,0.517,3.432,2.116,3.385,5.124c0,1.27-0.141,2.445-0.329,3.573c-0.188,1.175-0.329,2.257-0.329,3.385
				c0,2.632,1.081,4.09,3.714,4.09h0.846v2.585h-0.987c-3.902,0-6.817-1.692-6.817-6.44c0-1.27,0.188-2.586,0.376-3.855
				c0.188-1.27,0.376-2.539,0.376-3.808c0-1.458-0.47-3.479-3.808-3.479V123.8z"/>
			<path style="fill:#FFFFFF;" d="M498.121,126.197c-3.338,0-3.808,2.021-3.808,3.479c0,1.27,0.188,2.538,0.376,3.808
				c0.189,1.269,0.376,2.585,0.376,3.855c0,4.748-2.962,6.44-6.817,6.44h-0.987v-2.585h0.799c2.633-0.047,3.761-1.458,3.761-4.09
				c0-1.128-0.188-2.21-0.329-3.385c-0.188-1.128-0.376-2.303-0.376-3.573c0-3.009,1.316-4.607,3.385-5.124v-0.094
				c-2.068-0.564-3.385-2.069-3.385-5.078c0-1.269,0.188-2.397,0.376-3.573c0.141-1.128,0.329-2.257,0.329-3.338
				c0-2.539-0.987-3.996-3.714-4.043h-0.846v-2.586h0.941c3.996,0,6.864,1.834,6.864,6.159c0,1.316-0.188,2.586-0.376,3.902
				c-0.188,1.316-0.376,2.632-0.376,3.949c0,1.646,0.47,3.479,3.808,3.479V126.197z"/>
		</g>
	</g>
	<g>
		<ellipse style="fill:#B8D0FF;" cx="609.028" cy="453" rx="70" ry="11.5"/>
		<g>
			<path style="fill:#2E6ADB;" d="M553.472,238.341l0.025,212.893c0,1.467,1.169,2.648,2.612,2.643
				c1.439-0.008,2.606-1.203,2.608-2.67l-0.001-15.832l34.953-0.168l0.003,15.834c0.002,1.467,1.173,2.649,2.611,2.645
				c1.44-0.01,2.606-1.205,2.607-2.672l-0.026-212.889c0.002-1.472-1.166-2.652-2.607-2.647c-1.441,0.005-2.61,1.204-2.607,2.671
				v19.798l-34.959,0.166v-19.798c-0.002-1.467-1.171-2.649-2.61-2.644C554.64,235.68,553.473,236.874,553.472,238.341z
				 M558.711,413.789l34.957-0.166l0.004,16.994l-34.956,0.168L558.711,413.789z M558.711,392.209l34.952-0.168l0.003,16.988
				l-34.954,0.17L558.711,392.209z M558.704,370.625l34.962-0.17v16.994l-34.961,0.168L558.704,370.625z M558.705,349.043
				l34.954-0.17l0.003,16.99l-34.957,0.17V349.043z M558.701,327.461l34.959-0.17l0.003,16.992l-34.96,0.168L558.701,327.461z
				 M558.7,305.879l34.957-0.17l0.003,16.99l-34.961,0.168L558.7,305.879z M558.695,284.295l34.961-0.17l-0.002,16.992
				l-34.954,0.166L558.695,284.295z M558.698,262.709l34.955-0.164v16.986l-34.958,0.17L558.698,262.709z"/>
			<g>
				<g>
					<g>
						<g>
							<path style="fill:#141D30;" d="M663.877,421.697c1.463-2.684,0.979-4.551,0.459-7.215c2.725-0.49,5.44-1.305,7.663-2.496
								l3.175,3.855c0.221,0.272,0.427,0.697,0.561,1.031c0.326,0.799,0.104,1.586-0.336,2.467c-0.45,0.898-1.151,1.627-1.936,2.289
								c-0.272,0.219-0.551,0.451-0.828,0.684c-0.712,0.41-1.315,1.025-1.88,1.662c-0.388,0.377-0.753,0.766-1.083,1.178
								c-1.799,1.957-3.76,3.773-5.864,5.414c-1.398,1.09-3.282,2.16-4.65,1.432C658.563,431.691,661.468,426.115,663.877,421.697z"
								/>
						</g>
						<path style="fill:#5D81EC;" d="M645.338,251.884c7.78,10.452,11.236,23.774,12.048,37.237
							c2.387,39.551,0.396,48.867,2.877,61.541c4.776,24.424,11.332,42.518,14.479,62.482c-6.879,2.848-4.217,2.1-13.53,5.424
							c-10.322-36.078-17.729-46.605-24.807-71.344c-7.269-25.395-9.513-60.615-7.444-87.766c0.062-0.856,0.168-1.787,0.79-2.438
							c0.497-0.52,1.219-0.742,1.897-0.938C636.563,254.673,641.477,253.262,645.338,251.884"/>
						<path style="fill:none;stroke:#26395E;stroke-width:0.5;stroke-miterlimit:10;" d="M651.88,289.102
							c0.263,9.092,0.528,18.186,0.788,27.277c0.404,13.926,0.809,27.924,3.504,41.385c1.906,9.52,4.933,18.682,7.958,27.814
							c2.922,8.838,4.966,19.881,7.89,28.719"/>
						<path style="opacity:0.3;fill:#5D81EC;" d="M640.996,303.109c8.052,1.215,6.779,11.271,6.163,17.043
							c-0.94,8.824,0.798,19.025,2.898,27.643c1.13,4.639,2.652,9.186,4.102,13.732c4.053,12.707,8.431,25.457,11.082,38.551
							c0.759,3.75,2.777,11.648,1.044,16.643c3.505-1.326,3.296-1.439,8.456-3.576c-3.147-19.965-9.702-38.059-14.479-62.482
							c-2.481-12.674-0.49-21.99-2.877-61.541c-0.811-13.463-4.268-26.785-12.048-37.237c-3.861,1.378-8.774,2.789-13.69,4.2
							c-0.679,0.195-1.4,0.418-1.897,0.938c-0.622,0.65-0.728,1.582-0.79,2.438c-1.182,15.5-0.954,33.627,0.809,51.057
							C632.536,306.471,636.392,302.416,640.996,303.109z"/>
					</g>
					<g>
						<path style="fill:#141D30;" d="M582.085,379.902c-7.224,6.033-19.781,7.82-15.055,9.621c4.726,1.801,4.782,1.205,12.97,0.584
							c8.191-0.619,8.39,0.732,8.59-2.127c0.2-2.855-0.456-8.613-0.456-8.613S589.309,373.865,582.085,379.902"/>
						<g>
							<path style="fill:#5D81EC;" d="M643.547,251.862l-42.623,34.787c-2.561,2.088-5.162,4.225-7.129,7.012
								c-3.285,4.664-4.423,10.6-5.371,16.281c-3.907,23.414-6.368,46.959-8.829,70.486c3.239,0.977,6.477,1.957,9.711,2.936
								c8.271-20.494,14.307-41.949,17.908-63.686c0.556-3.363,1.093-6.844,2.758-9.813c2.837-5.064,8.116-7.662,13.1-9.652
								c29.823-11.889,34.037-11.346,41.168-19.252c9.835-10.908,7.283-19.631,5.758-26.914
								C662.204,250.872,652.736,251.364,643.547,251.862"/>
							<path style="opacity:0.3;fill:#5D81EC;" d="M669.997,254.047c-1.826-0.744-3.746-1.28-5.73-1.67
								c1.354,1.889,2.375,4.119,3.014,6.316c2.156,7.416,1.901,15.924-4.149,21.578c-8.528,7.971-20.867,10.309-31.916,12.412
								c-11.211,2.131-23.011,4.699-29.26,15.266c-8.027,13.574-7.503,30.541-9.626,45.76c-0.81,5.807-2.124,22.598-8.779,27.916
								c1.919,0.578,3.839,1.158,5.756,1.738c8.271-20.494,14.307-41.949,17.908-63.686c0.556-3.363,1.093-6.844,2.758-9.813
								c2.837-5.064,8.116-7.662,13.1-9.652c29.823-11.889,34.037-11.346,41.168-19.252
								C674.074,270.053,671.522,261.33,669.997,254.047z"/>
						</g>
					</g>
					<g>
						<path style="fill:#B8D0FF;" d="M638.618,191.27c-5.377,0.387-10.494,20.975-11.061,26.453
							c-0.734,7.1-4.404,25.788-4.887,38.809c-0.033,0.935-0.04,1.953,0.539,2.674c0.573,0.711,1.541,0.904,2.428,1.041
							c16.631,2.602,33.701,2.154,50.178-1.303c-5.902-17.443-4.56-36.471-6.944-54.767c-0.485-3.747-1.28-7.76-3.993-10.316
							c-2.771-2.615-6.847-3.042-10.608-3.141C648.084,190.55,641.892,191.032,638.618,191.27"/>
						<path style="fill:none;stroke:#26395E;stroke-width:0.5;stroke-miterlimit:10;" d="M633.697,208.438
							c-0.677,4.357-1.491,7.382-0.516,11.881c0.797,3.644,1.884,7.164,3.485,10.501"/>
						<path style="fill:none;stroke:#26395E;stroke-width:0.5;stroke-miterlimit:10;" d="M638.805,205.521
							c0.333,3.934,0.305,7.241,1.339,11.22"/>
						<path style="opacity:0.3;fill:#9EC0FF;" d="M668.871,204.177c-0.485-3.747-1.28-7.76-3.993-10.316
							c-2.429-2.292-5.857-2.902-9.2-3.085c-1.417,1.46-2.659,2.997-3.741,4.606c-1.843,3.772-3.851,7.505-4.922,11.522
							c-0.725,2.71-1.06,5.521-1.885,8.207c-1.05,5.985-3.257,12.736-9.12,15.63c-3.177,1.569-7.641,1.843-10.315-0.273
							c-1.269,8.211-2.731,18.175-3.023,26.064c-0.033,0.935-0.04,1.953,0.539,2.674c0.573,0.711,1.541,0.904,2.428,1.041
							c16.631,2.602,33.701,2.154,50.178-1.303C669.913,241.501,671.256,222.472,668.871,204.177z"/>
					</g>
					<g>
						<path style="fill:#FA6E61;" d="M642.308,183.459c0.05,3.093-0.61,6.198-1.919,9.028c2.067,1.497,4.912,1.393,7.476,1.042
							c1.267-0.175,2.54-0.396,3.705-0.91c0.131-0.058,0.267-0.125,0.345-0.24c0.081-0.121,0.085-0.273,0.09-0.418
							c0.102-5.556,0.121-11.114,0.06-16.67c-2.517,0.852-5.326,0.449-7.882,1.191c-0.245,0.071-0.499,0.158-0.685,0.331
							c-0.228,0.211-0.326,0.519-0.408,0.815C642.504,179.714,642.284,181.862,642.308,183.459"/>
						<path style="fill:#D75246;" d="M649.287,184.203c1.832-2.662,1.685-5.982,2.773-8.911c-2.517,0.851-5.323,0.447-7.877,1.189
							c-0.249,0.072-0.501,0.158-0.687,0.331c-0.228,0.211-0.325,0.52-0.408,0.815c-0.585,2.087-0.805,4.235-0.781,5.832
							c0.028,1.713-0.171,3.427-0.568,5.099C644.755,188.221,647.582,186.679,649.287,184.203"/>
						<path style="fill:#FA6E61;" d="M638.94,169.364c-0.569,1.888-0.602,3.885-1.087,5.79c-0.665,2.605-2.167,5.32-1.147,7.805
							c0.828,2.015,3.21,3.155,5.452,3.038c2.239-0.119,4.308-1.288,5.948-2.777c3.153-2.863,5-7.026,4.97-11.199
							c-0.012-1.379-0.123-2.584-1.686-3.726c-1.774-1.295-3.446-1.834-5.627-2.264C642.669,165.425,639.508,167.477,638.94,169.364
							"/>
						<g>
							<path style="fill:#141D30;" d="M643.19,163.763c-2.498,0.583-4.462,2.886-4.575,5.367c-0.011,0.18-0.004,0.376,0.115,0.513
								c0.22,0.255,0.648,0.142,0.935-0.045c0.283-0.186,0.573-0.438,0.916-0.402c0.558,0.059,0.691,0.763,0.959,1.239
								c0.489,0.875,1.671,1.106,2.701,1.108c1.022,0.001,2.087-0.141,2.949-0.685c0.584-0.368,1.046-0.905,1.656-1.23
								c0.612-0.327,1.49-0.364,1.897,0.181c0.511,0.679-0.058,1.721,0.367,2.455c0.288,0.496,0.951,0.677,1.538,0.619
								c1.079-0.112,2.019-0.899,2.44-1.871c0.423-0.971,0.375-2.091,0.039-3.088c-0.353-1.053-1.023-2.003-1.907-2.704
								c-2.095-1.665-5.041-1.774-7.759-1.808C644.39,163.401,643.197,163.431,643.19,163.763"/>
							<path style="fill:#141D30;" d="M645.839,163.481c-2.601-0.28-5.2-0.56-7.803-0.841c-0.714-0.075-1.452-0.152-2.154,0.014
								c-0.983,0.234-1.792,0.919-2.364,1.709c-1.297,1.799-1.463,4.248-0.416,6.146c0.719,1.298,2.234,2.39,3.77,2.024
								c1.599-0.386,2.391-2.082,3.751-2.976c0.289-0.191,0.658-0.35,0.984-0.232c0.19,0.07,0.329,0.222,0.489,0.342
								c0.511,0.385,1.259,0.428,1.883,0.208c0.626-0.221,1.135-0.671,1.524-1.18C646.661,167.178,646.788,165.041,645.839,163.481"
								/>
							<path style="fill:#141D30;" d="M649.81,168.581c0.549,1.554,0.704,3.243,0.446,4.871c-0.037,0.218-0.078,0.44-0.056,0.661
								c0.026,0.252,0.136,0.486,0.245,0.715c0.497,1.051,0.995,2.104,1.493,3.155c1.859-1.28,3.167-3.797,3.432-8.045
								c0.044-0.751-0.102-0.838-0.543-1.448c-0.72-0.993-2.17-1.062-3.401-0.953c-0.405,0.035-0.825,0.085-1.16,0.311
								C649.932,168.073,649.723,168.531,649.81,168.581"/>
						</g>
						<path style="fill:#FA6E61;" d="M650.294,174.396c0.494-0.946,1.593-1.547,2.664-1.455c1.896,0.162,0.636,3.83-2.401,4.748
							c-0.426,0.129-0.962,0.164-1.235-0.18c-0.219-0.272-0.172-0.665-0.09-1.004C649.461,175.57,649.875,174.676,650.294,174.396"
							/>
					</g>
				</g>
				<g>
					<g>
						<path style="fill:#FFBF00;" d="M571.668,151.249c-21.371,6.408-34.279,25.224-27.836,46.722
							c4.121,13.752,12.187,19.67,27.46,28.714c3.625,2.147,5.299,12.162,5.46,14.761c5.271-2.971,13.076-0.555,20.499-2.811
							c6.197-1.89,7.673-2.105,12.987-2.747c-1.982-3.496-3.847-16.383-0.684-19.226c13.195-11.859,16.323-26.314,11.659-41.883
							C614.768,153.279,593.036,144.848,571.668,151.249z"/>
						<path style="fill:#FFFFFF;" d="M596.885,238.611l-1.023,0.226c-0.112-0.496-0.517-1.783-0.948-3.144
							c-0.402-1.253-0.826-2.591-1.077-3.502c-1.094-3.943-4.772-18.167-7.204-30.509c-0.949,0.2-1.901,0.29-2.837,0.264
							c-0.25-0.009-0.502-0.021-0.754-0.042c0.32,1.692,0.614,3.396,0.904,5.082c0.468,2.724,0.912,5.292,1.456,7.72
							c0.282,1.261,0.594,2.622,0.918,4.059c1.451,6.342,3.249,14.232,4.646,22.083l-1.026,0.185
							c-1.395-7.832-3.188-15.708-4.633-22.035c-0.329-1.439-0.643-2.8-0.925-4.062c-0.548-2.455-0.994-5.038-1.464-7.771
							c-0.31-1.788-0.62-3.594-0.965-5.379c-6.421-0.92-14.003-5.556-15.89-11.729c-1.69-5.533,0.69-7.16,1.845-7.619
							c3.401-1.36,8.903,1.647,11.113,6.066c1.818,3.65,2.935,7.927,3.811,12.335c0.335,0.032,0.665,0.051,0.99,0.062
							c0.861,0.023,1.735-0.06,2.609-0.245c-1.487-7.712-2.441-14.541-1.898-17.436c0.845-4.489,3.421-6.962,6.906-6.614
							c3.947,0.398,8.123,4.55,8.045,10.102c-0.053,3.768-1.894,7.668-5.05,10.698c-2.031,1.942-4.381,3.327-6.785,4.023
							c2.228,11.333,5.551,24.565,7.191,30.479c0.252,0.905,0.671,2.225,1.066,3.469
							C596.363,236.821,596.76,238.064,596.885,238.611z M587.451,200.398c2.202-0.657,4.377-1.943,6.259-3.748
							c2.957-2.839,4.68-6.465,4.73-9.957c0.069-4.903-3.689-8.702-7.107-9.047c-2.925-0.292-5.025,1.809-5.772,5.77
							C585.054,186.111,585.977,192.748,587.451,200.398z M568.271,183.419c-1.803,0.739-2.232,2.984-1.209,6.333
							c1.736,5.677,8.671,9.974,14.678,10.947c-0.855-4.211-1.935-8.279-3.654-11.727c-2.123-4.254-7.16-6.614-9.791-5.564
							C568.285,183.413,568.277,183.415,568.271,183.419z"/>
						<path style="opacity:0.4;fill:#FFA607;" d="M621.214,174.781c-2.115-7.06-5.888-12.701-10.746-16.88
							c0.935,1.587,1.768,3.255,2.477,5.013c6.454,16.019,2.488,38.024-11.105,49.376c-15.79,13.186-33.699-2.33-41.213-16.588
							c-6.175-11.717-9.774-24.521-5.383-35.778c-10.872,9.082-15.953,22.895-11.411,38.047c4.121,13.752,12.187,19.67,27.46,28.714
							c3.625,2.147,5.299,12.162,5.46,14.761c5.271-2.971,13.076-0.555,20.499-2.811c6.197-1.89,7.673-2.105,12.987-2.747
							c-1.982-3.496-3.847-16.383-0.684-19.226C622.75,204.805,625.878,190.35,621.214,174.781z"/>
					</g>
					<g>
						<path style="fill:#5D81EC;" d="M586.257,258.352c2.471,4.438,8.039,6.799,13.636,5.4c5.595-1.404,9.397-6.105,9.487-11.183
							L586.257,258.352z"/>
						<path style="fill:#9EC0FF;" d="M576.444,240.534l3.169,12.094c1.166,4.451,5.823,7.087,10.397,5.884l16.305-4.268
							c4.578-1.193,7.344-5.78,6.177-10.229l-3.169-12.088L576.444,240.534z"/>
					</g>
				</g>
				<g>
					<path style="fill:#FA6E61;" d="M607.585,242.001c-2.823-0.243-4.111-0.445-6.005-1.54c-1.27-0.734-3.724-1.783-5.19-1.7
						c-0.381,0.018-0.857,0.271-0.764,0.641c0.065,0.26,0.369,0.363,0.626,0.445c1.002,0.325,4.611,2.384,3.704,2.039
						c-2.088,0.341-5.442,0.268-7.553,0.105c-0.49-0.038-0.995-0.088-1.466,0.056c-0.47,0.143-1.182,0.608-0.926,1.028
						c0.323,0.526,4.943,0.644,7.414,0.969c-2.089,0.053-4.177,0.107-6.268,0.158c-0.509,0.014-1.259,0.305-1.051,0.771
						c0.281,0.625,5.189,0.645,7.785,0.965l-5.938,0.358c-0.793,0.05-2.253,0.491-1.601,0.948c1.189,0.838,5.201,0.469,8.037,0.559
						c-1.245,0.18-2.488,0.361-3.731,0.541c-0.411,0.063-0.958,0.353-0.773,0.726c0.096,0.195,0.344,0.245,0.559,0.27
						c4.741,0.585,8.925-0.076,14.268-0.004C608.268,246.885,608.74,244.355,607.585,242.001"/>
					<path style="fill:#B8D0FF;" d="M669.181,203.176c-0.475-3.104-1.225-6.327-3.408-8.701c-2.182-2.366-6.213-3.499-6.143-2.708
						c-7.041,3.337-10.159,11.152-11.65,18.424c-1.492,7.268-2.115,15.025-6.515,21.171c-1.194,1.668-2.685,3.204-4.589,4.123
						c-1.931,0.931-4.144,1.163-6.298,1.379l-25.747,2.607c-0.076,0.724-0.166,1.442-0.227,2.168
						c-0.316,3.686-0.413,7.35-0.25,11.028l6.854,1.419c9.06,1.877,18.454,3.759,27.533,1.947
						c11.494-2.304,21.073-10.526,26.14-20.486C669.945,225.587,670.849,214.093,669.181,203.176"/>
				</g>
			</g>
		</g>
	</g>
	<g>
		<ellipse style="fill:#B8D0FF;" cx="423" cy="453" rx="47" ry="11.5"/>
		<g>
			<g>
				<path style="fill:#FA6E61;" d="M402.646,447.424c2.599,4.09,8.396,4.705,11.692,8.219c0.234,0.25,0.465,0.523,0.554,0.857
					c0.192,0.727-0.383,1.477-1.072,1.728c-0.69,0.252-1.448,0.133-2.169,0.016c-4.078-0.676-8.159-1.35-12.24-2.025
					c-0.442-0.074-0.897-0.152-1.28-0.391c-0.827-0.518-1.085-1.609-1.27-2.586c-0.556-2.941-0.279-5.41-0.834-8.353
					C398.75,445.31,400.033,446.256,402.646,447.424"/>
				<path style="fill:#132444;" d="M414.893,456.5c-0.089-0.334-0.319-0.607-0.554-0.857c-1.314-1.4-3.026-2.338-4.773-3.221
					c-0.759,1.076-2.24,1.478-3.65,1.412c-0.961-0.047-1.915-0.178-2.872-0.281c-0.961-0.104-1.913-0.273-2.822-0.615
					c-1.388-0.523-2.676-1.342-3.691-2.426c0.062,0.883,0.151,1.781,0.331,2.73c0.185,0.977,0.444,2.068,1.27,2.586
					c0.383,0.238,0.838,0.316,1.28,0.391c4.081,0.676,8.162,1.35,12.24,2.025c0.721,0.117,1.479,0.236,2.168-0.016
					C414.509,457.977,415.085,457.227,414.893,456.5"/>
				<path style="fill:#FA6E61;" d="M414.938,291.375c-10.084,22.465-14.963,47.236-14.154,71.838
					c0.125,3.813,0.383,7.658-0.296,11.41c-0.646,3.563-2.114,6.914-3.305,10.33c-7.008,20.115-4.367,42.197-0.586,63.154
					c3.039-0.107,3.005-0.215,6.044-0.32c0.459-24.807,12.171-48.639,16.952-72.988c1.623-8.279,2.804-16.639,3.984-24.994
					c2.5-17.713,5.002-35.428,7.503-53.143C425.616,295.44,420.154,294.219,414.938,291.375"/>
				<path style="fill:#D75246;" d="M399.896,387.863c2.457-1.365,5.108-2.44,7.835-3.127c1.243-0.314,2.471-0.543,3.756-0.494
					c1.128,0.045,2.26,0.203,3.358,0.455c0.76,0.176,1.524,0.412,2.27,0.709c0.934-3.527,1.779-7.063,2.476-10.608
					c1.623-8.279,2.804-16.639,3.984-24.994c2.5-17.713,5.002-35.428,7.503-53.143c-5.462-1.223-10.924-2.443-16.14-5.287
					c-10.084,22.465-14.963,47.236-14.154,71.838c0.125,3.813,0.383,7.658-0.296,11.41c-0.646,3.559-2.114,6.914-3.305,10.33
					c-0.761,2.184-1.401,4.395-1.945,6.621C396.606,390.111,398.156,388.834,399.896,387.863"/>
			</g>
			<g>
				<path style="fill:#FA6E61;" d="M445.333,440.629c2.506,4.041,8.093,4.656,11.272,8.133c0.226,0.246,0.446,0.516,0.533,0.848
					c0.186,0.719-0.37,1.461-1.035,1.711c-0.664,0.246-1.393,0.131-2.089,0.014c-3.931-0.67-7.864-1.338-11.796-2.004
					c-0.427-0.072-0.865-0.15-1.232-0.389c-0.798-0.508-1.046-1.59-1.225-2.557c-0.537-2.914-0.272-5.353-0.806-8.266
					C441.581,438.533,442.816,439.473,445.333,440.629"/>
				<path style="fill:#132444;" d="M457.138,449.609c-0.086-0.332-0.307-0.602-0.533-0.85c-1.269-1.385-2.917-2.314-4.601-3.188
					c-0.731,1.064-2.161,1.463-3.519,1.398c-0.926-0.045-1.844-0.176-2.766-0.277c-0.929-0.104-1.844-0.271-2.721-0.611
					c-1.338-0.516-2.581-1.326-3.557-2.398c0.06,0.873,0.146,1.762,0.319,2.701c0.179,0.967,0.427,2.049,1.225,2.557
					c0.367,0.238,0.805,0.316,1.232,0.389c3.932,0.666,7.865,1.334,11.796,2.004c0.696,0.117,1.426,0.232,2.089-0.014
					C456.768,451.07,457.324,450.328,457.138,449.609"/>
				<path style="fill:#FA6E61;" d="M424.094,299.773c-3.825,22.025-1.547,45.074,6.519,65.93c1.125,2.91,2.371,5.818,2.776,8.908
					c0.355,2.69,0.059,5.418-0.145,8.123c-0.987,13.08,0.622,25.434,2.29,38.445c0.933,7.275,2.83,11.826,3.882,20.041
					c2.009-0.309,6.678-0.143,6.37,0.059c0.992-7.756,7.261-56.514,3.447-87.445c-2.196-17.805-5.531-35.424-9.761-52.859
					c-0.163-0.67-0.357-1.395-0.9-1.822c-0.621-0.492-1.497-0.445-2.287-0.377C431.729,299.174,427.17,299.578,424.094,299.773"/>
				<path style="fill:#D75246;" d="M433.389,374.611c0.355,2.69,0.059,5.418-0.145,8.123c-0.041,0.553-0.073,1.105-0.105,1.658
					c0.472-0.361,0.955-0.715,1.46-1.029c0.639-0.402,1.304-0.762,1.979-1.098c1.823-0.965,3.755-1.717,5.812-2.162
					c2.65-0.568,5.378-0.66,8.05-0.313c0.076-9.16-0.241-18.129-1.207-25.957c-2.196-17.805-5.531-35.424-9.761-52.859
					c-0.163-0.67-0.357-1.395-0.9-1.822c-0.621-0.492-1.497-0.445-2.287-0.377c-4.557,0.398-9.116,0.803-12.192,0.998
					c-3.825,22.025-1.547,45.074,6.519,65.93C431.737,368.613,432.984,371.522,433.389,374.611"/>
			</g>
			<g>
				<path style="fill:#5D81EC;" d="M409.921,287.734c-15.305,24.531-19.228,54.664-22.77,83.676
					c-0.093,0.758-0.17,1.588,0.221,2.227c0.317,0.525,0.885,0.813,1.425,1.065c21.312,10.039,46.17,6.395,68.871,0.31
					c0.75-0.203,1.608-0.51,1.855-1.273c0.115-0.352,0.069-0.734,0.023-1.1c-0.976-7.879-1.954-15.756-2.931-23.633
					c-0.951-7.664-1.902-15.33-3.168-22.945c-1.893-11.391-4.488-22.652-7.762-33.691c-0.264-0.885-0.556-1.814-1.202-2.449
					c-1.247-1.225-3.223-0.898-4.908-0.566C429.57,291.316,419.104,290.619,409.921,287.734"/>
				<path style="opacity:0.3;fill:#5D81EC;" d="M408.729,359.836c-1.377-4.596-2.347-9.336-2.638-14.129
					c-0.142-2.332-0.138-4.672,0.023-7c0.147-2.139,0.552-4.279,2.381-5.648c1.048-0.787,2.093-0.73,3.327-0.451
					c0.656,0.15,1.308,0.184,1.923,0.457c0.495,0.219,0.996,0.424,1.503,0.613c2.221,0.826,4.555,1.416,6.911,1.703
					c4.729,0.574,9.526,0.111,14.121-1.096c6.273-1.652,11.977-4.633,17.135-8.418c-1.891-11.326-4.472-22.523-7.728-33.498
					c-0.264-0.885-0.556-1.814-1.202-2.449c-1.247-1.225-3.223-0.898-4.908-0.566c-10.007,1.963-20.473,1.266-29.656-1.619
					c-15.305,24.533-19.228,54.664-22.77,83.676c-0.093,0.758-0.17,1.588,0.221,2.227c0.317,0.525,0.885,0.813,1.425,1.066
					c9.749,4.592,20.241,6.315,30.929,6.256C414.768,374.693,411.026,367.492,408.729,359.836"/>
				<path style="fill:none;stroke:#132444;stroke-width:0.5;stroke-miterlimit:10;" d="M426.504,361.23
					c9.784-2.498,18.663-8.365,24.787-16.373"/>
				<path style="fill:none;stroke:#132444;stroke-width:0.5;stroke-miterlimit:10;" d="M434.896,369.303
					c5.762-4.479,11.808-9.338,14.211-16.219"/>
			</g>
			<g>
				<path style="fill:#FA6E61;" d="M439.53,265.768c2.995,8.906,6.878,23.494,11.006,28.639c2.119,2.648,4.809,4.75,7.76,6.369
					c8.199,4.504,14.567,3.572,23.463,6.234c0.043-2.582,0.012-1.002,0.879-3.402c-7.593-3.582-28.521-10.396-29.572-28.137
					c-0.83-14.012-2.463-14.711-5.906-22.229c-0.749-1.637-3.112-4.781-4.809-5.311C440.657,247.402,434.217,249.977,439.53,265.768
					"/>
				<path style="fill:#FA6E61;" d="M476.351,304.639c1.847,1.438,3.717,2.885,5.851,3.84c0.679,0.305,1.507,0.84,2.154,0.469
					c0.033-0.551-0.271-0.418-1.157-0.893c-0.485-0.26-1.193-0.555-1.439-1.045c1.841,0.982,3.977,1.41,6.059,1.213
					c-0.041-0.371-0.365-0.656-0.715-0.781c-0.35-0.129-0.731-0.133-1.102-0.178c-0.949-0.107-1.865-0.467-2.633-1.029
					c1.747,0.568,3.675,1.133,5.385,0.445c0.034-0.295-0.201-0.563-0.472-0.676c-0.272-0.113-0.578-0.111-0.875-0.125
					c-1.104-0.049-2.198-0.357-3.164-0.887c1.587,0.42,3.277,0.455,4.879,0.096c0.017-0.533-0.708-0.697-1.243-0.738
					c-1.449-0.104-2.802-0.463-3.789-1.072c-0.153-0.094-1.032-0.496-1.016-0.674c0.013-0.141,1.534-0.928,2.02-1.326
					c0.427-0.346,0.706-1.014,0.354-1.436c-2.667,1.215-5.64,2.453-8.43,1.58C476.89,302.582,476.59,303.723,476.351,304.639"/>
			</g>
			<path style="fill:#141D30;" d="M432.576,221.288c-2.261-1.988-6.005-2.009-8.291-0.046c-3.154,2.712-3.148,8.007-6.507,10.463
				c-3.898,2.85-9.254,0.086-14.072-0.286c-3.357-0.263-6.845,0.799-9.328,3.067c-2.482,2.268-3.858,5.757-3.356,9.079
				c0.475,3.129,2.505,6.172,1.669,9.226c-0.322,1.182-1.051,2.209-1.54,3.331c-1.488,3.424-0.446,7.77,2.433,10.152
				c2.884,2.379,7.358,2.592,10.454,0.5c1.522-1.031,2.754-2.561,4.503-3.127c2.003-0.652,4.159,0.119,6.259,0.281
				c4.445,0.342,8.825-2.248,11.238-5.986c2.418-3.739,3.025-8.446,2.337-12.839c-0.303-1.948-0.809-4.104,0.26-5.763
				c1.048-1.624,3.252-2.146,4.44-3.672C436.176,231.692,430.177,225.137,432.576,221.288"/>
			<path style="fill:#FFA607;" d="M446.251,242.878c-2.301,1.115-4.177,3.082-5.184,5.429c-0.605,1.416-0.901,2.942-1.103,4.47
				c-0.931,7.026,0.035,14.291,2.767,20.825c4.51-0.666,8.944-1.85,13.189-3.518c0.317-0.121,0.661-0.277,0.791-0.588
				c0.103-0.244,0.046-0.521-0.013-0.777c-1.721-7.49-4.101-14.821-7.101-21.889c-0.591-1.393-1.247-2.829-2.418-3.781
				C446.701,242.658,445.622,242.778,446.251,242.878"/>
			<g>
				<path style="fill:#FFBF00;" d="M428.304,238.156c-5.048,0.101-10.685,0.451-14.13,4.135c-3.475,3.718-3.391,9.409-3.135,14.484
					c0.649,12.861,0.854,26.607-5.978,37.531c13.374,5.865,28.894,6.695,42.821,2.291c-1.315-8.838-2.365-17.934-0.358-26.643
					c1.806-7.832,5.966-16.295,2.163-23.382c-2.05-3.814-6.106-6.232-10.312-7.299C435.169,238.208,430.767,238.321,428.304,238.156
					"/>
				<path style="fill:#FFA607;" d="M446.094,284.834c-0.862,0.043-1.707,0.174-2.573,0.113c-0.841-0.057-1.67-0.215-2.499-0.369
					c-1.506-0.281-3.009-0.465-4.48-0.924c-5.467-1.693-9.822-6.004-12.25-11.098c-2.778-5.83-3.323-12.174-3.244-18.545
					c0.068-5.404,0.954-11.01,3.739-15.708c-3.991,0.29-7.953,1.145-10.612,3.987c-3.474,3.718-3.391,9.409-3.135,14.484
					c0.649,12.861,0.854,26.607-5.978,37.531c13.374,5.865,28.894,6.695,42.821,2.291c-0.582-3.902-1.109-7.854-1.345-11.801
					C446.389,284.807,446.242,284.824,446.094,284.834"/>
				<path style="fill:none;stroke:#26395E;stroke-width:0.5;stroke-miterlimit:10;" d="M429.113,264.514
					c7.065-2.57,12.715-8.715,14.667-15.962"/>
				<path style="fill:none;stroke:#26395E;stroke-width:0.5;stroke-miterlimit:10;" d="M437.161,266.307
					c3.264-2.346,5.867-5.596,7.439-9.283"/>
			</g>
			<g>
				<path style="fill:#FF7055;" d="M438.67,232.685c-0.449,3.026-0.223,6.151,0.653,9.082c-2.16,1.219-4.855,0.772-7.25,0.118
					c-1.182-0.323-2.368-0.694-3.41-1.338c-0.116-0.073-0.236-0.155-0.295-0.277c-0.062-0.127-0.082-0.287-0.031-0.418
					c1.894-4.89,2.27-9.66,1.961-15.74c2.288,1.14,5.155,0.472,7.493,1.507c0.225,0.099,0.452,0.213,0.609,0.404
					c0.189,0.235,0.241,0.551,0.281,0.85C438.97,228.99,438.901,231.124,438.67,232.685"/>
				<path style="fill:#D75246;" d="M431.93,232.573c-1.398-2.831-0.827-6.067-1.48-9.072c2.287,1.141,5.008,1.083,7.343,2.119
					c0.225,0.099,0.452,0.213,0.609,0.404c0.189,0.235,0.241,0.551,0.281,0.85c0.287,2.116,0.218,4.25-0.012,5.81
					c-0.249,1.677-0.282,3.379-0.12,5.068C435.722,237.058,433.231,235.206,431.93,232.573"/>
				<path style="fill:#FF7055;" d="M443.706,219.273c0.296,1.917,0.596,3.615,0.811,5.542c0.293,2.633,0.841,4.677-0.453,6.991
					c-1.049,1.874-3.044,3.276-5.596,2.984c-2.138-0.243-3.918-1.38-5.287-3.039c-2.629-3.184-3.847-7.49-3.274-11.577
					c0.189-1.352,0.449-2.519,2.085-3.447c1.859-1.058,3.52-1.386,5.65-1.543C440.668,214.963,443.411,217.357,443.706,219.273"/>
				<g>
					<path style="fill:#141D30;" d="M444.886,213.005c2.458,1.833,3.418,3.701,1.998,5.548c-0.938,1.216-2.019,0.231-2.409,0.226
						c-0.538-0.01-0.756,0.664-1.073,1.1c-0.581,0.799-1.735,0.882-2.716,0.758c-0.974-0.121-1.969-0.388-2.718-1.025
						c-0.507-0.432-0.878-1.013-1.417-1.408c-0.539-0.394-1.371-0.534-1.83-0.051c-0.575,0.605-0.168,1.696-0.668,2.363
						c-0.336,0.452-0.993,0.548-1.542,0.421c-1.015-0.238-1.806-1.124-2.081-2.128c-0.276-1.003-0.088-2.096,0.363-3.032
						c0.473-0.99,1.234-1.84,2.166-2.422c2.21-1.378,4.204,0.176,6.479-1.102C441.339,211.189,444.624,212.809,444.886,213.005"/>
					<path style="fill:#141D30;" d="M433.459,217.198c-0.723,1.456-1.09,3.092-1.056,4.719c0.006,0.22,0.017,0.441-0.035,0.653
						c-0.057,0.245-0.192,0.462-0.325,0.673c-0.61,0.973-1.22,1.943-1.831,2.914c-1.603-1.48-3.77-3.499-2.618-7.237
						c0.218-0.71,0.605-1.867,1.101-2.417c2.358-2.61,4.134-0.342,4.425-0.08C433.409,216.684,433.551,217.158,433.459,217.198"/>
				</g>
				<path style="fill:#FF7055;" d="M431.231,224.579c-0.736-0.741-1.923-0.979-2.872-0.573c-1.677,0.721,0.589,3.794,3.639,3.75
					c0.426-0.005,0.925-0.132,1.07-0.537c0.117-0.323-0.046-0.678-0.225-0.973C432.35,225.434,431.699,224.717,431.231,224.579"/>
			</g>
			<g>
				
					<rect x="380.848" y="289.387" transform="matrix(0.9588 -0.2841 0.2841 0.9588 -73.2373 137.6338)" style="fill:#2E6ADB;" width="114.183" height="63.9"/>
				<g>
					<polyline style="fill:none;stroke:#FFFFFF;stroke-miterlimit:10;" points="415.873,305.273 401.673,329.221 423.745,339.096 
											"/>
					<polyline style="fill:none;stroke:#FFFFFF;stroke-miterlimit:10;" points="449.052,297.578 473.467,310.961 459.497,330.695 
											"/>
					<line style="fill:none;stroke:#FFFFFF;stroke-miterlimit:10;" x1="441.85" y1="294.014" x2="430.777" y2="349.621"/>
				</g>
			</g>
			<g>
				<g>
					<path style="fill:#FF7055;" d="M403.792,259.197c-2.759,8.621-8.112,22.18-7.76,28.498c0.18,3.252,1.139,6.396,2.591,9.313
						c4.035,8.102,9.752,10.939,15.425,17.996c1.541-1.986,0.595-0.772,2.699-2.16c-4.08-7.045-17.108-24.078-7.616-38.502
						c7.496-11.393,6.575-12.852,8.165-20.645c0.346-1.693,0.256-5.469-0.811-6.832
						C415.417,245.501,408.685,243.905,403.792,259.197"/>
					<path style="fill:#FF7055;" d="M413.739,314.254c0.718,2.225,1.448,4.477,2.675,6.469c0.39,0.633,0.772,1.541,1.517,1.6
						c0.335-0.438,0.01-0.502-0.453-1.389c-0.257-0.486-0.677-1.129-0.603-1.678c0.968,1.852,2.492,3.408,4.322,4.416
						c0.177-0.328,0.07-0.748-0.147-1.051c-0.217-0.301-0.531-0.52-0.812-0.764c-0.723-0.621-1.279-1.438-1.596-2.336
						c1.126,1.457,2.4,3.01,4.2,3.402c0.193-0.221,0.151-0.576-0.01-0.822c-0.163-0.25-0.415-0.42-0.652-0.6
						c-0.885-0.662-1.615-1.531-2.116-2.516c1.075,1.244,2.452,2.223,3.979,2.832c0.316-0.436-0.192-0.979-0.613-1.311
						c-1.138-0.9-2.054-1.963-2.526-3.02c-0.073-0.166-0.575-0.992-0.46-1.129c0.091-0.109,1.791,0.094,2.414,0.043
						c0.549-0.047,1.157-0.445,1.103-0.99c-2.887-0.5-6.04-1.15-7.855-3.441C415.347,312.857,414.456,313.631,413.739,314.254"/>
				</g>
				<path style="fill:#FFBF00;" d="M418.968,240.082c-2.555-0.093-5.135,0.764-7.123,2.367c-1.199,0.965-2.175,2.178-3.072,3.43
					c-4.114,5.771-6.668,12.639-7.317,19.692c4.295,1.525,8.767,2.563,13.298,3.078c0.338,0.039,0.715,0.064,0.976-0.15
					c0.204-0.168,0.285-0.438,0.352-0.691c1.989-7.424,3.325-15.015,3.988-22.667c0.131-1.506,0.225-3.081-0.364-4.476
					C419.468,240.099,418.46,239.7,418.968,240.082"/>
			</g>
		</g>
	</g>
	<g>
		<ellipse style="fill:#B8D0FF;" cx="158" cy="438.5" rx="97" ry="13.5"/>
		<g>
			<g>
				<path style="fill:#26395E;" d="M114.644,345.145l-0.339-1.072c-0.14-0.443-0.393-0.779-0.709-1.055
					c-2.961-5.828-6.624-11.422-8.915-17.463c-3.198-8.434-1.755-18.598,2.189-26.646c1.422-2.908-4.459-4.164-5.866-1.285
					c-3.671,7.494-4.375,15.23-3.488,23.193c1.026,9.228,7.274,17.107,11.267,25.611
					C110.127,349.305,115.613,348.213,114.644,345.145z"/>
				<rect x="127.055" y="361.887" style="fill:#26395E;" width="5.098" height="70.1"/>
				<path style="fill:#26395E;" d="M103.816,430.711c6.046-8.059,15.345-13.24,25.787-13.24c10.448,0,19.742,5.182,25.791,13.24
					h4.966c-6.642-10.545-17.932-17.486-30.757-17.486c-12.813,0-24.115,6.941-30.752,17.486H103.816z"/>
				<path style="fill:#4E73A8;" d="M106.418,432.02c0,2.541-2.068,4.6-4.621,4.6c-2.556,0-4.627-2.059-4.627-4.6
					c0-2.535,2.071-4.596,4.627-4.596C104.35,427.424,106.418,429.484,106.418,432.02z"/>
				<path style="fill:#4E73A8;" d="M134.231,432.02c0,2.541-2.072,4.6-4.628,4.6c-2.552,0-4.624-2.059-4.624-4.6
					c0-2.535,2.073-4.596,4.624-4.596C132.159,427.424,134.231,429.484,134.231,432.02z"/>
				<path style="fill:#4E73A8;" d="M163.433,432.02c0,2.541-2.074,4.6-4.629,4.6c-2.553,0-4.626-2.059-4.626-4.6
					c0-2.535,2.073-4.596,4.626-4.596C161.359,427.424,163.433,429.484,163.433,432.02z"/>
				<path style="fill:#B8D0FF;" d="M127.168,293.951c0,7.861-6.411,14.23-14.315,14.23H94.555c-7.905,0-14.31-6.369-14.31-14.23l0,0
					c0-7.857,6.405-14.232,14.31-14.232h18.298C120.756,279.719,127.168,286.094,127.168,293.951L127.168,293.951z"/>
				<path style="fill:#B8D0FF;" d="M161.876,357.951c0,6.688-5.451,12.107-12.177,12.107h-42.421
					c-6.728,0-12.182-5.42-12.182-12.107l0,0c0-6.691,5.454-12.109,12.182-12.109h42.421
					C156.425,345.842,161.876,351.26,161.876,357.951L161.876,357.951z"/>
			</g>
			<g>
				<g>
					<g>
						<g>
							<g>
								<path style="fill:#EA554E;" d="M211.522,407.26c3.186,5.24,8.075,7.125,11.465,10.738c0.241,0.256,0.478,0.539,0.569,0.881
									c0.198,0.748-0.394,1.52-1.102,1.777c-0.709,0.26-1.489,0.139-2.23,0.016c-4.194-0.693-8.391-1.387-12.587-2.08
									c-0.455-0.078-0.922-0.158-1.316-0.402c-0.851-0.533-1.116-1.656-1.306-2.66c-0.571-3.025-0.105-4.203-0.676-7.228
									C207.138,408.732,211.522,407.26,211.522,407.26z"/>
								<path style="fill:#132444;" d="M223.557,418.879c-0.091-0.342-0.329-0.625-0.569-0.881
									c-1.351-1.441-2.541-2.963-4.337-3.871c-0.78,1.107-2.876,2.08-4.325,2.01c-0.988-0.047-1.97-0.182-2.953-0.289
									c-0.989-0.105-1.968-0.279-2.902-0.631c-1.427-0.539-2.752-1.381-3.796-2.494c0.064,0.906,0.155,1.83,0.34,2.807
									c0.19,1.004,0.457,2.127,1.306,2.66c0.394,0.244,0.862,0.324,1.316,0.402c4.196,0.693,8.393,1.387,12.587,2.08
									c0.741,0.123,1.521,0.244,2.229-0.016C223.163,420.398,223.754,419.627,223.557,418.879"/>
							</g>
							<g>
								<path style="fill:#EA554E;" d="M211.828,407.863c-0.03-0.102-0.073-0.207-0.09-0.303
									c-2.929-15.773-7.797-43.295-10.617-54.058c-4.15-15.84-4.916-21.274-29.977-27.567
									c-27.162-6.818-65.433-4.762-65.433-4.762s-1.999,13.797-1.322,21.877c0.975,11.801,21.868,18.232,26.022,18.445
									c11.231,0.584,53.856-8.723,53.856-8.723s2.33,19.102,5.528,27.643c3.479,9.309,7.495,13.664,15.802,28.906
									C207.664,408.791,209.754,408.365,211.828,407.863z"/>
							</g>
						</g>
						<g>
							<g>
								<path style="fill:#FA6E61;" d="M205.367,418.756c1.02-0.289,1.628-0.43,2.556-1.213c-3.7-16.48-9.745-44.408-13.07-55.396
									c-2.748-9.08-2.169-16.383-8.762-20.869c-4.559-3.1-11.861-4.275-23.665-6.771c-28.667-6.061-62.214-7.078-62.214-7.078
									s13.901,33.461,18.251,33.52c11.766,0.168,58.741,1.104,58.741,1.104s3.384,19.934,7.063,28.738
									c3.874,9.287,7.91,13.652,16.583,28.07C202.207,418.756,204.017,419.139,205.367,418.756z"/>
							</g>
							<g>
								<path style="fill:#FA6E61;" d="M207.923,417.543c3.187,5.24,8.075,7.125,11.465,10.738c0.241,0.258,0.478,0.539,0.569,0.881
									c0.198,0.748-0.395,1.52-1.103,1.777c-0.709,0.26-1.489,0.139-2.23,0.017c-4.194-0.695-8.391-1.389-12.587-2.082
									c-0.455-0.076-0.922-0.156-1.316-0.402c-0.851-0.531-1.116-1.656-1.306-2.66c-0.571-3.025-0.105-4.203-0.676-7.228
									C203.539,419.018,207.923,417.543,207.923,417.543z"/>
								<path style="fill:#132444;" d="M219.958,429.162c-0.091-0.342-0.329-0.623-0.569-0.881c-1.352-1.44-2.54-2.961-4.337-3.869
									c-0.78,1.105-2.875,2.078-4.325,2.01c-0.988-0.049-1.97-0.184-2.953-0.289c-0.989-0.107-1.967-0.281-2.902-0.633
									c-1.427-0.537-2.751-1.379-3.796-2.494c0.064,0.908,0.155,1.83,0.34,2.807c0.19,1.004,0.457,2.129,1.306,2.66
									c0.394,0.246,0.861,0.326,1.316,0.402c4.196,0.693,8.393,1.387,12.587,2.082c0.741,0.121,1.521,0.242,2.23-0.017
									C219.563,430.682,220.155,429.91,219.958,429.162"/>
							</g>
						</g>
					</g>
					<g>
						<g>
							<path style="fill:#2E6ADB;" d="M100.247,313.262c0,0-3.431,17.668-3.649,26.693c-0.666,28.037,31.891,27.277,36.479,27.85
								c14.721,1.84,41.231-5.209,41.231-5.209s-1.627-13.27,6.403-22.482c5.099-5.852,10.008-7.066,10.008-7.066
								s-7.984-10.598-50.388-10.941C127.084,321.998,100.247,313.262,100.247,313.262z"/>
						</g>
						<g style="opacity:0.3;">
							<path style="fill:#5D81EC;" d="M116.078,348.129c3.804-8.045,15.084-8.332,22.687-8.73
								c13.646-0.713,27.314,0.305,40.844,2.096c0.347-0.469,0.71-0.93,1.103-1.381c5.099-5.852,10.008-7.066,10.008-7.066
								s-7.984-10.598-50.388-10.941c-13.247-0.108-40.085-8.844-40.085-8.844s-3.431,17.668-3.649,26.693
								c-0.413,17.389,11.952,23.695,22.499,26.119C116.231,360.709,113.354,353.893,116.078,348.129z"/>
						</g>
					</g>
				</g>
				<g>
					<path style="fill:#FFA607;" d="M134.899,264.357c4.092-1.217,7.891,0.861,11.019,4.848c7.994,10.176,5.405,15.021,6.048,29.777
						c0.386,8.836,30.712,9.59,30.712,9.59s-1.671,2.688-1.308,4.689c0.485,2.664,0.111,0.773,1.743,4.754
						c0,0-34.423,0.475-47.06-1.553c-8.262-1.32-8.969-37.096-8.262-40.734C129.177,268.59,132.83,264.975,134.899,264.357z"/>
				</g>
				<g>
					<g>
						<path style="fill:#FFBF00;" d="M146.397,270.088c2.897,4.131,6.2,20.734-0.748,27.422c-6.517,6.268-3.538,23.229-5.318,24.596
							c-6.977,5.369-12.748,8.695-31.965,5.322c-1.297-0.227-10.273-1.547-10.273-1.547s1.758-19.256,3.228-27.695
							c3.786-21.738,7.458-30.797,13.027-35.109c4.504-3.488,11.906-6.217,17.707-4.281
							C136.094,260.145,142.167,264.053,146.397,270.088z"/>
					</g>
					<g style="opacity:0.3;">
						<path style="fill:#FFA607;" d="M131.325,300.922c-2.976-5.938-0.735-11.084,0.342-17.824
							c1.173-7.34-4.371-17.416-4.289-24.936c-4.712,0.143-9.675,2.316-13.031,4.914c-5.569,4.313-9.241,13.371-13.027,35.109
							c-1.469,8.44-3.228,27.695-3.228,27.695s8.976,1.32,10.273,1.547c19.217,3.373,24.988,0.047,31.965-5.322
							c0.983-0.756,0.517-6.27,0.999-12.113C134.962,309.123,134.699,307.656,131.325,300.922z"/>
					</g>
					<path style="fill:none;stroke:#26395E;stroke-width:0.5;stroke-miterlimit:10;" d="M135.78,292.352
						c1.726-2.072,3.569-3.84,5.056-6.18c1.091-1.715,2.419-5.059,3.514-6.16"/>
					<path style="fill:none;stroke:#26395E;stroke-width:0.5;stroke-miterlimit:10;" d="M142.637,291.666
						c0.764-1.832,2.085-3.691,3.085-5.484"/>
				</g>
				<g>
					<path style="fill:#FFBF00;" d="M112.459,267.289c2.786-3.229,10.459-3.9,13.511,0.145c7.799,10.328,2.146,20.799,0.291,36.32
						c-1.05,8.781,31.915,11.439,31.915,11.439l0.708,8.863c0,0-37.322,2.666-48.314-3.885c-11.423-6.811-3.791-35.697-3.016-39.32
						C109.074,273.738,110.607,269.434,112.459,267.289z"/>
				</g>
				<g>
					<path style="fill:#141D30;" d="M135.419,237.167c-5.788,0.611-4.297,9.79-7.592,13.06c-2.75,2.729-4.698,0.869-7.586,0.904
						c-2.994,0.037-3.346,2.266-5.867,3.635c-5.66,3.08-9.344-3.951-13.362-6.422c-4.637-2.854-10.665-9.55-4.333-14.78
						c1.358-1.121,3.037-1.01,4.524-1.88c1.726-1.011,2.744-2.592,4.336-3.797c4.311-3.263,6.735-0.393,10.783,1.515
						c3.486,1.645,7.239-1.063,10.409,1.328c2.51,1.893,3.124,7.098,7.053,6.383c-0.26-0.107-0.599-0.209-0.823-0.379"/>
					<g>
						<path style="fill:#FF7055;" d="M135.657,253.488c-0.652,3.078-0.619,6.299,0.096,9.365c-2.295,1.113-5.033,0.484-7.449-0.342
							c-1.192-0.404-2.386-0.861-3.415-1.588c-0.116-0.082-0.234-0.174-0.285-0.303c-0.057-0.135-0.069-0.299-0.005-0.432
							c2.251-4.899,2.942-9.772,3.009-16.03c2.275,1.315,5.262,0.809,7.595,2.021c0.224,0.115,0.451,0.247,0.598,0.452
							c0.18,0.255,0.215,0.581,0.237,0.893C136.198,249.715,135.993,251.9,135.657,253.488"/>
						<path style="fill:#D75246;" d="M128.746,252.947c-1.256-2.996-0.463-6.281-0.945-9.408c2.274,1.315,5.072,1.43,7.403,2.642
							c0.224,0.115,0.451,0.247,0.598,0.452c0.18,0.255,0.215,0.581,0.237,0.893c0.159,2.189-0.046,4.375-0.382,5.96
							c-0.362,1.707-0.503,3.453-0.444,5.197C132.354,257.791,129.915,255.73,128.746,252.947"/>
						<path style="fill:#FF7055;" d="M141.676,240.042c0.183,1.985,0.384,3.749,0.482,5.739c0.135,2.722,0.566,4.856-0.908,7.147
							c-1.196,1.857-3.331,3.17-5.934,2.711c-2.177-0.387-3.933-1.666-5.233-3.455c-2.497-3.436-3.475-7.933-2.628-12.09
							c0.279-1.376,0.621-2.556,2.359-3.405c1.974-0.968,3.7-1.199,5.896-1.227C138.83,235.425,141.493,238.056,141.676,240.042"/>
						<g>
							<path style="fill:#141D30;" d="M143.284,233.682c2.406,2.038,3.272,4.017,1.699,5.821c-1.039,1.189-2.086,0.11-2.486,0.079
								c-0.552-0.045-0.82,0.634-1.172,1.06c-0.646,0.784-1.837,0.796-2.836,0.607c-0.992-0.186-1.996-0.522-2.724-1.224
								c-0.493-0.477-0.838-1.097-1.366-1.536c-0.529-0.438-1.375-0.634-1.875-0.166c-0.629,0.584-0.28,1.73-0.836,2.382
								c-0.375,0.443-1.052,0.502-1.61,0.334c-1.025-0.307-1.781-1.266-2-2.314c-0.22-1.047,0.041-2.156,0.564-3.088
								c0.548-0.987,1.385-1.811,2.377-2.35c2.355-1.275,4.302,0.447,6.72-0.72C139.758,231.594,143.028,233.465,143.284,233.682"/>
							<path style="fill:#141D30;" d="M131.29,237.262c-0.836,1.449-1.317,3.104-1.383,4.777c-0.008,0.226-0.01,0.455-0.079,0.668
								c-0.075,0.247-0.226,0.462-0.376,0.668c-0.687,0.962-1.376,1.919-2.063,2.877c-1.552-1.621-3.648-3.832-2.229-7.595
								c0.27-0.716,0.739-1.878,1.283-2.412c2.586-2.528,4.266-0.089,4.547,0.198C131.271,236.731,131.387,237.227,131.29,237.262"
								/>
						</g>
						<path style="fill:#FF7055;" d="M128.536,244.697c-0.709-0.808-1.912-1.127-2.911-0.77c-1.769,0.633,0.363,3.932,3.497,4.08
							c0.438,0.021,0.956-0.077,1.131-0.484c0.141-0.324-0.003-0.697-0.168-1.012C129.629,245.645,129.008,244.869,128.536,244.697"
							/>
					</g>
				</g>
			</g>
			<path style="fill:#FFFFFF;" d="M192.883,287.006c0,1.121,0.911,2.029,2.031,2.029c1.123,0,2.031-0.908,2.031-2.029
				c0-1.129-0.909-2.033-2.031-2.033C193.794,284.973,192.883,285.877,192.883,287.006z"/>
			<g>
				<g>
					<polygon style="fill:#26395E;" points="66.734,443.877 86.112,328.393 95.206,328.93 70.314,443.877 					"/>
					<polygon style="fill:#26395E;" points="254.258,443.877 234.881,328.393 225.572,328.674 250.68,443.877 					"/>
				</g>
				<rect x="74.114" y="326.02" style="fill:#26395E;" width="171.872" height="4.26"/>
			</g>
			<g>
				<g>
					<rect x="125.267" y="323.559" style="fill:#5D81EC;" width="31.23" height="2.461"/>
					<polygon style="fill:#5D81EC;" points="168.875,279.594 165.351,279.594 152.275,323.559 156.498,323.559 					"/>
				</g>
				<g>
					<polygon style="fill:#B8D0FF;" points="168.875,279.594 155.214,326.02 208.57,326.02 221.99,279.594 					"/>
					<path style="opacity:0.4;fill:#B8D0FF;" d="M187.835,314.063c-13.496-5.596-19.655-17.746-19.955-31.088l-12.665,43.045h53.356
						l2.627-9.086C203.329,317.941,195.292,317.154,187.835,314.063z"/>
				</g>
			</g>
		</g>
	</g>
	<g>
		<path style="fill:#2E6ADB;" d="M146.345,217.602c0-23.533,19.127-42.61,42.72-42.61c23.597,0,42.724,19.078,42.724,42.61
			c0,23.537-19.127,42.615-42.724,42.615C165.472,260.217,146.345,241.138,146.345,217.602"/>
		<path style="fill:#FFFFFF;" d="M154.512,217.602c0-19.034,15.472-34.464,34.553-34.464c19.083,0,34.558,15.431,34.558,34.464
			c0,19.035-15.475,34.469-34.558,34.469C169.983,252.07,154.512,236.636,154.512,217.602"/>
		<g>
			
				<line style="fill:none;stroke:#132444;stroke-width:0.5;stroke-miterlimit:10;" x1="189.066" y1="185.302" x2="189.066" y2="196.892"/>
			
				<line style="fill:none;stroke:#132444;stroke-width:0.5;stroke-miterlimit:10;" x1="189.066" y1="238.311" x2="189.066" y2="249.9"/>
			
				<line style="fill:none;stroke:#132444;stroke-width:0.5;stroke-miterlimit:10;" x1="210.739" y1="193.604" x2="202.96" y2="202.218"/>
			
				<line style="fill:none;stroke:#132444;stroke-width:0.5;stroke-miterlimit:10;" x1="175.169" y1="232.989" x2="167.39" y2="241.603"/>
			
				<line style="fill:none;stroke:#132444;stroke-width:0.5;stroke-miterlimit:10;" x1="156.682" y1="217.602" x2="168.304" y2="217.602"/>
			
				<line style="fill:none;stroke:#132444;stroke-width:0.5;stroke-miterlimit:10;" x1="209.827" y1="217.602" x2="221.45" y2="217.602"/>
			
				<line style="fill:none;stroke:#132444;stroke-width:0.5;stroke-miterlimit:10;" x1="166.167" y1="194.765" x2="174.385" y2="202.96"/>
			
				<line style="fill:none;stroke:#132444;stroke-width:0.5;stroke-miterlimit:10;" x1="203.745" y1="232.246" x2="211.965" y2="240.439"/>
		</g>
		<g>
			<path style="fill:#2D4C7F;" d="M186.659,219.844c-0.613-2.027,0.535-4.165,2.564-4.78c2.031-0.614,4.173,0.532,4.785,2.552
				c0.613,2.026-0.535,4.165-2.566,4.778C189.415,223.007,187.273,221.868,186.659,219.844"/>
			<polygon style="fill:#2D4C7F;" points="190.448,219.109 183.561,209.044 181.855,201.48 186.178,207.375 			"/>
			<polygon style="fill:#2D4C7F;" points="189.76,218.196 192.987,202.837 197.848,193.908 196.159,203.12 			"/>
		</g>
	</g>
	<g>
		<g>
			<path style="fill:#FFFFFF;" d="M240.485,243.165l55.123-1.073c3.273-0.064,5.979,2.538,6.043,5.811l0.374,19.166
				c0.064,3.273-2.539,5.979-5.812,6.043l-36.28,0.707c-2.328,2.016-5.608,5.277-6.146,8.051c-0.849,4.371-0.206,5.447-0.206,5.447
				s-7.915-8.201-6.867-13.242l-5.626,0.111c-3.274,0.063-5.98-2.539-6.044-5.813l-0.373-19.164
				C234.61,245.933,237.211,243.229,240.485,243.165z"/>
			<path style="opacity:0.1;fill:#5D81EC;" d="M238.188,273.488c1.922-2.707,4.368-4.984,7.439-6.436
				c8.706-4.109,18.993-1.088,28.159-3.316c10.299-2.502,22.854-9.965,22.884-21.566c2.778,0.446,4.925,2.821,4.982,5.732
				l0.374,19.166c0.064,3.273-2.539,5.979-5.812,6.043l-36.28,0.707c-2.328,2.016-5.608,5.277-6.146,8.051
				c-0.849,4.371-0.206,5.447-0.206,5.447s-7.915-8.201-6.867-13.242l-5.626,0.111C240.041,274.205,239.052,273.949,238.188,273.488
				z"/>
		</g>
		<g>
			<path style="fill:#9EC0FF;" d="M278.391,254.691c0.044,2.232,1.889,4.008,4.121,3.965c2.232-0.045,4.007-1.891,3.963-4.125
				c-0.043-2.23-1.889-4.006-4.12-3.963C280.123,250.611,278.348,252.457,278.391,254.691z"/>
			<path style="fill:#9EC0FF;" d="M264.243,254.965c0.044,2.234,1.888,4.01,4.122,3.965c2.231-0.043,4.006-1.889,3.962-4.121
				c-0.043-2.232-1.888-4.008-4.12-3.965C265.975,250.889,264.2,252.732,264.243,254.965z"/>
			<path style="fill:#9EC0FF;" d="M250.095,255.24c0.044,2.234,1.889,4.01,4.122,3.967c2.233-0.045,4.006-1.889,3.963-4.125
				c-0.043-2.23-1.888-4.006-4.121-3.963C251.827,251.164,250.051,253.01,250.095,255.24z"/>
		</g>
	</g>
</g>
</svg>
