<svg id="Capa_1" data-name="Capa 1" xmlns="http://www.w3.org/2000/svg" viewBox="0 0 1901.95 234.98"><path d="M233.15,111.63c55.43,0,85.36,20.74,85.36,62.23,0,46.6-28.23,74.48-97.6,74.48H9.05l45.23-58.49H226.35c16.66,0,24.14-4.77,24.14-16.67,0-11.56-7.48-16.32-24.14-16.32H102.57c-58.5,0-85.36-26.19-85.36-65.29,0-42.85,28.56-70.74,97.6-70.74H312.39L267.16,80H109.37C93,80,85.22,84.09,85.22,95.65s7.82,16,24.15,16Z" transform="translate(-9.05 -17.09)" style="fill:#03aeef"/><path d="M538.25,190.19h-119v58.15H349.17V132H545.05c21.77,0,34.35-10.55,34.35-26.19,0-16-12.58-25.84-34.35-25.84H349.17l46.59-59.18H538.59c70.39,0,111.54,34.69,111.54,85.36C650.13,156.52,609,190.19,538.25,190.19Z" transform="translate(-9.05 -17.09)" style="fill:#03aeef"/><path d="M932.45,189.85l-45.56,58.49h-201V20.83H756.3v169Z" transform="translate(-9.05 -17.09)" style="fill:#03aeef"/><path d="M1198.42,20.83l-135,152.35v75.16H992.68V172.85l-138.75-152h90.46L998.8,84.09c7.14,8.16,26.19,28.9,30.94,35.7,4.43-6.46,12.25-16.32,28.57-36.05L1110,20.83Z" transform="translate(-9.05 -17.09)" style="fill:#1e77bc"/><path d="M1504.88,20.83,1459.32,80H1378V248.34h-70.39V80H1200.86l45.57-59.18Z" transform="translate(-9.05 -17.09)" style="fill:#1e77bc"/><path d="M1597.78,248.34h-70.39V20.83h70.39Z" transform="translate(-9.05 -17.09)" style="fill:#1e77bc"/><path d="M1844,239.84,1704.58,114.69V248.34h-63.94V59.6c0-30.27,18.37-42.51,38.43-42.51,8.5,0,17,2,28.23,12.24l139.43,125.15V20.83H1911v188.4c0,30.26-18.36,42.85-38.77,42.85C1863.39,252.08,1854.89,250,1844,239.84Z" transform="translate(-9.05 -17.09)" style="fill:#1e77bc"/></svg>